<svg id="Layer_1" data-name="Layer 1" xmlns="http://www.w3.org/2000/svg" xmlns:xlink="http://www.w3.org/1999/xlink" viewBox="0 0 2000 732.79"><defs><style>.cls-1,.cls-2,.cls-3,.cls-4,.cls-5{fill-rule:evenodd;}.cls-2{fill:url(#radial-gradient);}.cls-3{fill:url(#linear-gradient);}.cls-4{fill:url(#linear-gradient-2);}.cls-5{fill:url(#linear-gradient-3);}</style><radialGradient id="radial-gradient" cx="1961.84" cy="254.06" r="39.13" gradientUnits="userSpaceOnUse"><stop offset="0" stop-color="#414042"/><stop offset="1" stop-color="#231f20"/></radialGradient><linearGradient id="linear-gradient" y1="392.96" x2="382.63" y2="392.96" gradientUnits="userSpaceOnUse"><stop offset="0" stop-color="#4f4f51"/><stop offset="0.21" stop-color="#434244"/><stop offset="0.71" stop-color="#2c282a"/><stop offset="1" stop-color="#231f20"/></linearGradient><linearGradient id="linear-gradient-2" x1="1.57" y1="130.81" x2="396.29" y2="130.81" gradientUnits="userSpaceOnUse"><stop offset="0" stop-color="#231f20"/><stop offset="0.27" stop-color="#282425"/><stop offset="0.59" stop-color="#353234"/><stop offset="0.94" stop-color="#4a4a4c"/><stop offset="1" stop-color="#4f4f51"/></linearGradient><linearGradient id="linear-gradient-3" x1="99.33" y1="732.79" x2="99.33" y2="506.01" gradientUnits="userSpaceOnUse"><stop offset="0" stop-color="#4f4f51"/><stop offset="0.34" stop-color="#3b393b"/><stop offset="0.73" stop-color="#292627"/><stop offset="1" stop-color="#231f20"/></linearGradient></defs><path d="M1265.08,541.06a44.38,44.38,0,0,0-22.65-5.66,43.92,43.92,0,0,0-22.74,6,42.55,42.55,0,0,0-16.11,17.16q-5.94,11.16-5.93,25.79a50.59,50.59,0,0,0,5.75,24.3,41.35,41.35,0,0,0,16,16.63,45.81,45.81,0,0,0,23.35,5.93q13.41,0,22.82-4.79t16.73-15.59a3,3,0,0,0,.52-1.4,1.58,1.58,0,0,0-.87-1.39l-8.89-4.19a2.5,2.5,0,0,0-1.4-.34,1.5,1.5,0,0,0-1.21.69A35.05,35.05,0,0,1,1259,614.5a30.21,30.21,0,0,1-14.29,3.31,27.57,27.57,0,0,1-14.11-3.75,27.88,27.88,0,0,1-10.19-10.1,27.47,27.47,0,0,1-3.74-14.2c0-1.86.57-2.79,1.74-2.79h64.46c1.15,0,1.89-.26,2.17-.78a5,5,0,0,0,.44-2.36v-.7q0-14.8-5.31-25.6A37.76,37.76,0,0,0,1265.08,541.06Zm1.48,34.41a3.76,3.76,0,0,1-2.35.53l-47.22-.18a28.72,28.72,0,0,1,3-13.85,26.45,26.45,0,0,1,9.15-10.28,24.29,24.29,0,0,1,13.76-3.92,22.81,22.81,0,0,1,21.34,13.07,28.64,28.64,0,0,1,2.88,12.71A2.48,2.48,0,0,1,1266.56,575.47Z" transform="translate(-87.37 -43.02)"/><path d="M1358.81,578.08,1337.38,572q-7.34-2.1-10.11-4.88a8.7,8.7,0,0,1-2.79-6.27q0-6.11,5.58-9.68c3.72-2.37,8.47-3.57,14.28-3.57a29.7,29.7,0,0,1,13.77,3,26.81,26.81,0,0,1,9.58,8.1,2.64,2.64,0,0,0,1.92.88,2.42,2.42,0,0,0,1.05-.18l9.06-4.7a1.48,1.48,0,0,0,.86-1.22,3.45,3.45,0,0,0-.69-1.74q-4.71-7.34-14.12-11.85a52.84,52.84,0,0,0-40.5-1,30.42,30.42,0,0,0-12.9,9.93,24.42,24.42,0,0,0-4.61,14.73,21.12,21.12,0,0,0,5.92,15.33q5.92,6.09,18.81,9.23l17.77,4.53c5.47,1.4,9.39,3.1,11.77,5.14a9.39,9.39,0,0,1,3.57,7.4q0,6.11-6.28,9.67t-15.84,3.57q-18.12,0-27.36-13.94a1.67,1.67,0,0,0-1.39-.7,4.06,4.06,0,0,0-1.74.53l-8.54,4.53a1.71,1.71,0,0,0-.87,1.57,3.12,3.12,0,0,0,.52,1.57q4.53,8.54,15.16,13.85t24.56,5.31a54.39,54.39,0,0,0,20-3.49,31.71,31.71,0,0,0,13.85-9.84,23.22,23.22,0,0,0,5-14.72,22.41,22.41,0,0,0-5.84-15.42Q1371,581.22,1358.81,578.08Z" transform="translate(-87.37 -43.02)"/><path d="M1456.89,578.08,1435.46,572q-7.32-2.1-10.1-4.88a8.68,8.68,0,0,1-2.8-6.27q0-6.11,5.59-9.68c3.71-2.37,8.47-3.57,14.28-3.57a29.65,29.65,0,0,1,13.76,3,26.64,26.64,0,0,1,9.58,8.1,2.67,2.67,0,0,0,1.92.88,2.42,2.42,0,0,0,1-.18l9.06-4.7a1.48,1.48,0,0,0,.87-1.22,3.39,3.39,0,0,0-.7-1.74q-4.71-7.34-14.11-11.85a52.84,52.84,0,0,0-40.5-1,30.35,30.35,0,0,0-12.9,9.93,24.43,24.43,0,0,0-4.62,14.73,21.09,21.09,0,0,0,5.93,15.33q5.93,6.09,18.81,9.23l17.77,4.53c5.46,1.4,9.38,3.1,11.76,5.14a9.37,9.37,0,0,1,3.58,7.4q0,6.11-6.28,9.67t-15.85,3.57q-18.12,0-27.36-13.94a1.66,1.66,0,0,0-1.38-.7,4.13,4.13,0,0,0-1.75.53l-8.54,4.53a1.71,1.71,0,0,0-.87,1.57,3.12,3.12,0,0,0,.52,1.57q4.53,8.54,15.16,13.85t24.57,5.31a54.33,54.33,0,0,0,20-3.49,31.71,31.71,0,0,0,13.85-9.84,23.22,23.22,0,0,0,5-14.72,22.41,22.41,0,0,0-5.84-15.42Q1469.09,581.22,1456.89,578.08Z" transform="translate(-87.37 -43.02)"/><path d="M1570.48,541.06a44.33,44.33,0,0,0-22.65-5.66,43.86,43.86,0,0,0-22.73,6A42.57,42.57,0,0,0,1509,558.57q-5.93,11.16-5.92,25.79a50.48,50.48,0,0,0,5.75,24.3,41.22,41.22,0,0,0,16,16.63,45.75,45.75,0,0,0,23.34,5.93q13.41,0,22.82-4.79t16.73-15.59a3,3,0,0,0,.52-1.4,1.58,1.58,0,0,0-.87-1.39l-8.88-4.19a2.52,2.52,0,0,0-1.4-.34,1.48,1.48,0,0,0-1.21.69,35.08,35.08,0,0,1-11.51,10.29,30.23,30.23,0,0,1-14.28,3.31,27.82,27.82,0,0,1-28.06-28c0-1.86.58-2.79,1.75-2.79h64.46c1.16,0,1.88-.26,2.18-.78a5,5,0,0,0,.44-2.36v-.7q0-14.8-5.32-25.6A37.7,37.7,0,0,0,1570.48,541.06Zm1.48,34.41a3.74,3.74,0,0,1-2.35.53l-47.22-.18a28.61,28.61,0,0,1,3.06-13.85,26.35,26.35,0,0,1,9.14-10.28,24.33,24.33,0,0,1,13.77-3.92,22.83,22.83,0,0,1,21.34,13.07,28.77,28.77,0,0,1,2.87,12.71A2.48,2.48,0,0,1,1572,575.47Z" transform="translate(-87.37 -43.02)"/><path d="M1668.22,535.4a34.17,34.17,0,0,0-15.16,3.39,88.44,88.44,0,0,0-16,10.72c-.58.58-1,.81-1.31.7s-.43-.53-.43-1.22v-9.58c0-1.51-.7-2.27-2.09-2.27h-13.76c-1.51,0-2.27.87-2.27,2.62v86.93a2.47,2.47,0,0,0,2.79,2.79h12.37a3.73,3.73,0,0,0,2.53-.7,2.89,2.89,0,0,0,.78-2.26V562.4a71.14,71.14,0,0,1,13.33-10,25.53,25.53,0,0,1,12.28-3.06q8.19,0,12.29,4.28t4.09,12.1v61q0,2.79,2.61,2.79h12.9q3,0,3-3.14V562.05q0-12.18-7.41-19.42T1668.22,535.4Z" transform="translate(-87.37 -43.02)"/><path d="M1777.63,537.14h-20.91a1.39,1.39,0,0,1-1.57-1.57v-27c0-1.86-.76-2.79-2.26-2.79h-12c-1.17,0-1.86.82-2.09,2.44l-2.1,27.35c0,1-.46,1.57-1.39,1.57h-13.94c-1.39,0-2.09.64-2.09,1.92v9.23c0,1.39.76,2.09,2.27,2.09h13.07c1.16,0,1.73.7,1.73,2.09V607.7q0,11.16,5.59,16.46t17.07,5.32a128.47,128.47,0,0,0,17.77-.87,2.82,2.82,0,0,0,2.61-3v-7.48a1.85,1.85,0,0,0-2.09-2.1h-11.15c-4,0-6.83-.92-8.62-2.79s-2.71-5.22-2.71-10.1v-51c0-1.15.53-1.74,1.58-1.74h20.9c1.62,0,2.44-.7,2.44-2.09v-9.23C1779.72,537.78,1779,537.14,1777.63,537.14Z" transform="translate(-87.37 -43.02)"/><path d="M1821.7,500.21h-14.45c-1.75,0-2.62,1-2.62,3V519a3.8,3.8,0,0,0,.7,2.53,3.14,3.14,0,0,0,2.44.78h12.89a3.5,3.5,0,0,0,2.7-.87,4.1,4.1,0,0,0,.78-2.78V503a2.92,2.92,0,0,0-.69-2A2.24,2.24,0,0,0,1821.7,500.21Z" transform="translate(-87.37 -43.02)"/><path d="M1821.53,537.14H1807.6a2.49,2.49,0,0,0-1.93.61,3.15,3.15,0,0,0-.51,2v86.93a2.82,2.82,0,0,0,.69,2.18,3.78,3.78,0,0,0,2.44.61h11.85a4.07,4.07,0,0,0,2.7-.7,3.42,3.42,0,0,0,.78-2.61V539.58C1823.62,538,1822.93,537.14,1821.53,537.14Z" transform="translate(-87.37 -43.02)"/><path d="M1892.79,535.4q-14.11,0-24.13,5.14a33.42,33.42,0,0,0-14.9,14.55,5.43,5.43,0,0,0-.52,1.91,1.36,1.36,0,0,0,1,1.39l11.85,3.49a2.93,2.93,0,0,0,1.83.09,2.61,2.61,0,0,0,1.13-1.31q8.54-12.88,22.83-12.89,9,0,14.28,5t5.22,13.5v4.35c0,1.51-.92,2.39-2.78,2.61l-11.32.87q-22.65,1-34.94,9.41T1850.11,606q0,11.49,7.75,18.38t21.16,6.88q17.07,0,29.79-12.2a4.5,4.5,0,0,1,1.93-1c.45,0,.8.46,1,1.39l.35,6.62q.36,3.5,2.79,3.49h11.67a2.81,2.81,0,0,0,2-.61,3.4,3.4,0,0,0,.61-2.35V565q0-13.93-9.06-21.77T1892.79,535.4Zm18.63,64.29q0,6.09-7.48,12.2a28.67,28.67,0,0,1-17.77,6.44q-8.19,0-13.07-3.93a13,13,0,0,1-4.88-10.71q0-8.72,8.45-13.68t22.91-5.83l9.41-.7c1.63-.11,2.43.76,2.43,2.61Z" transform="translate(-87.37 -43.02)"/><path d="M1976.41,500.21h-13.76c-1.51,0-2.27.86-2.27,2.61L1960,626.69a2.82,2.82,0,0,0,.7,2.18,3.8,3.8,0,0,0,2.44.61H1975a4.42,4.42,0,0,0,2.88-.7,3.42,3.42,0,0,0,.78-2.61V502.82C1978.68,501.07,1977.92,500.21,1976.41,500.21Z" transform="translate(-87.37 -43.02)"/><path d="M2076.15,587.75q-5.83-6.53-18-9.67L2036.69,572q-7.32-2.1-10.11-4.88a8.7,8.7,0,0,1-2.79-6.27c0-4.07,1.87-7.29,5.58-9.68s8.48-3.57,14.29-3.57a29.68,29.68,0,0,1,13.76,3,26.64,26.64,0,0,1,9.58,8.1,2.66,2.66,0,0,0,1.92.88,2.42,2.42,0,0,0,1-.18l9.06-4.7a1.48,1.48,0,0,0,.87-1.22,3.39,3.39,0,0,0-.7-1.74q-4.71-7.34-14.11-11.85a52.87,52.87,0,0,0-40.51-1,30.38,30.38,0,0,0-12.89,9.93,24.43,24.43,0,0,0-4.62,14.73A21.09,21.09,0,0,0,2013,579q5.91,6.09,18.81,9.23l17.77,4.53c5.46,1.4,9.38,3.1,11.76,5.14a9.4,9.4,0,0,1,3.58,7.4q0,6.11-6.28,9.67t-15.85,3.57q-18.12,0-27.36-13.94a1.67,1.67,0,0,0-1.39-.7,4.14,4.14,0,0,0-1.74.53l-8.54,4.53a1.71,1.71,0,0,0-.87,1.57,3.12,3.12,0,0,0,.52,1.57q4.53,8.54,15.16,13.85t24.57,5.31a54.37,54.37,0,0,0,20-3.49,31.71,31.71,0,0,0,13.85-9.84,23.22,23.22,0,0,0,5-14.72A22.41,22.41,0,0,0,2076.15,587.75Z" transform="translate(-87.37 -43.02)"/><path class="cls-1" d="M663.52,256.73H687.7V288q10.38-16,29.79-25.77a90.64,90.64,0,0,1,41.19-9.73q43.32,0,71.66,28.81T858.73,353q0,41.89-28,70.77t-70,28.91q-23.31,0-41.9-8.95a81,81,0,0,1-31-26.25V509.6H663.52V256.73ZM687.7,351q0,32.64,21.57,55.84T760,430q29.88,0,51.51-22t21.63-53.87q0-33.31-21.57-56T759.1,275.28q-28.19,0-49.79,22.83T687.7,351Z" transform="translate(-87.37 -43.02)"/><path class="cls-1" d="M913.75,352c0,21.42,6.82,39.35,20.42,54s30.75,21.87,51.17,21.87q30.23,0,50.53-21.76t20.27-54.35q0-33.07-20.55-54.35T983.15,276q-28.32,0-48.86,21.88T913.75,352Zm-25,.46q0-41,28.12-70.15t66.63-29.16q40.37,0,69,28.64t28.66,68.3q0,41.68-28,71.2t-67.85,29.46q-40.44,0-68.53-28.89T888.75,352.42Z" transform="translate(-87.37 -43.02)"/><path class="cls-1" d="M1136.6,447.74h-24.54v-191h23.12v22c5.79-8.18,12.32-14.4,19.6-18.56a47,47,0,0,1,11.74-4.62,52,52,0,0,1,13.28-1.66l.17,26.55q-23.1,2.14-33.24,13.75t-10.13,38.18Z" transform="translate(-87.37 -43.02)"/><polygon class="cls-1" points="1155.8 404.72 1155.8 238.31 1119.52 238.31 1119.52 213.77 1155.8 213.77 1155.8 151.91 1180.32 151.91 1180.32 213.77 1216.6 213.77 1216.6 238.31 1180.32 238.31 1180.32 404.72 1155.8 404.72"/><path class="cls-1" d="M1452.65,336.35,1419,447.77h-25.28l-66.17-191,44.88.08,33.87,108.93,33.26-109.07,27,.15,33.1,108.78,34-108.79,44.54-.08-66.51,191h-25.21l-33.93-111.42Zm133.22,16.07a105.3,105.3,0,0,1,6.73-37.63,96.88,96.88,0,0,1,20.55-32.28,104.31,104.31,0,0,1,31.92-23,88.78,88.78,0,0,1,37.78-8.5,99.83,99.83,0,0,1,38.61,7.35,97.05,97.05,0,0,1,32.11,22.14,102.83,102.83,0,0,1,21.43,32.3,96,96,0,0,1,7.64,37.33,107.77,107.77,0,0,1-6.89,38.12A98.76,98.76,0,0,1,1756,420.42a104.37,104.37,0,0,1-15.28,13.75,107.27,107.27,0,0,1-17.49,10.48,93.33,93.33,0,0,1-38.56,8.19A97.9,97.9,0,0,1,1646,445.3,94.73,94.73,0,0,1,1614.21,423a108,108,0,0,1-20.93-32.55,118.52,118.52,0,0,1-5.51-18.72,97.14,97.14,0,0,1-1.9-19.26Zm43.31-.33c0,16.11,4.79,30.4,15.93,42.14,10.74,11.31,24,16.66,39.54,16.66,15.44,0,28.37-5.5,38.89-16.8,11-11.85,15.79-26.21,15.79-42.34s-4.54-30.59-15.76-42.36c-10.65-11.18-23.77-16.44-39.2-16.44s-28.43,5.6-39.1,16.78c-11.24,11.79-16.09,26.13-16.09,42.36Zm221.2-83a54,54,0,0,1,11.44-8.76,53.3,53.3,0,0,1,26.68-6.65h4.75v43.64h-4.75a42.19,42.19,0,0,0-16.57,3.12,30.06,30.06,0,0,0-11.52,8.27c-7.07,8.38-8.34,22.74-8.34,33.22V447.77h-42V256.69h40.27v12.42Zm150.18,114.2-41.25,64.52-47.63-.07,64.53-99.06L1919,256.76l47.84-.07,120.55,191.09-47.58-.07Z" transform="translate(-87.37 -43.02)"/><polygon class="cls-2" points="1923.94 258.65 1947.32 294.38 1999.74 213.73 1950.41 213.73 1923.94 258.65"/><polygon class="cls-3" points="0 637.68 199.82 505.24 396.29 375.01 225.22 261.63 396.29 375.01 396.29 148.24 225.22 261.63 0 410.91 0 637.68"/><polygon class="cls-4" points="225.22 261.63 396.29 148.24 172.92 0.19 172.64 0 1.57 113.39 2.27 113.85 225.22 261.63"/><polygon class="cls-5" points="198.65 732.79 0 637.68 198.65 506.01 198.65 732.79"/></svg>