<svg xmlns="http://www.w3.org/2000/svg" xmlns:xlink="http://www.w3.org/1999/xlink" viewBox="0 0 217.62 190.5"><defs><style>.cls-1{fill:#515254;}.cls-1,.cls-2,.cls-3,.cls-4,.cls-5{fill-rule:evenodd;}.cls-2{fill:url(#radial-gradient);}.cls-3{fill:url(#linear-gradient);}.cls-4{fill:url(#linear-gradient-2);}.cls-5{fill:url(#linear-gradient-3);}.cls-6{fill:#f05223;}</style><radialGradient id="radial-gradient" cx="211.78" cy="140.57" r="5.98" gradientUnits="userSpaceOnUse"><stop offset="0" stop-color="#e75d25"/><stop offset="1" stop-color="#d54d2a"/></radialGradient><linearGradient id="linear-gradient" x1="79.93" y1="60.06" x2="138.41" y2="60.06" gradientUnits="userSpaceOnUse"><stop offset="0" stop-color="#f47a3a"/><stop offset="0.11" stop-color="#ef7437"/><stop offset="0.67" stop-color="#dc5a2c"/><stop offset="1" stop-color="#d55028"/></linearGradient><linearGradient id="linear-gradient-2" x1="80.17" y1="19.99" x2="140.5" y2="19.99" gradientUnits="userSpaceOnUse"><stop offset="0" stop-color="#d54927"/><stop offset="0.25" stop-color="#d84e29"/><stop offset="0.54" stop-color="#e05d30"/><stop offset="0.86" stop-color="#ee753a"/><stop offset="1" stop-color="#f58240"/></linearGradient><linearGradient id="linear-gradient-3" x1="95.11" y1="112" x2="95.11" y2="77.34" gradientUnits="userSpaceOnUse"><stop offset="0" stop-color="#e56f30"/><stop offset="0.37" stop-color="#d1552b"/><stop offset="0.75" stop-color="#c14127"/><stop offset="1" stop-color="#bc3a26"/></linearGradient></defs><g id="Layer_2" data-name="Layer 2"><g id="Layer_1-2" data-name="Layer 1"><path class="cls-1" d="M0,134.4H3.7v4.78a11.39,11.39,0,0,1,4.55-3.94,14,14,0,0,1,6.3-1.48,14.74,14.74,0,0,1,11,4.4,15.9,15.9,0,0,1,.05,21.78,14.32,14.32,0,0,1-10.7,4.41A14.6,14.6,0,0,1,8.44,163a12.38,12.38,0,0,1-4.74-4v14.08H0V134.4Zm3.7,14.4A12.09,12.09,0,0,0,7,157.34a10.24,10.24,0,0,0,7.75,3.54,10.68,10.68,0,0,0,7.88-3.37,11.28,11.28,0,0,0,3.3-8.23,12,12,0,0,0-3.29-8.56,10.63,10.63,0,0,0-8-3.48A10.21,10.21,0,0,0,7,140.72,11.41,11.41,0,0,0,3.7,148.8Z"/><path class="cls-1" d="M38.24,149a11.62,11.62,0,0,0,3.13,8.24,10.26,10.26,0,0,0,7.82,3.34,10.11,10.11,0,0,0,7.72-3.32,11.76,11.76,0,0,0,3.1-8.31,11.49,11.49,0,0,0-3.14-8.31,10.68,10.68,0,0,0-8-3.25,9.9,9.9,0,0,0-7.47,3.34A11.63,11.63,0,0,0,38.24,149Zm-3.82.07a14.91,14.91,0,0,1,4.3-10.73,13.7,13.7,0,0,1,10.19-4.45,14.94,14.94,0,0,1,14.92,14.81,15.31,15.31,0,0,1-4.27,10.89,13.81,13.81,0,0,1-10.37,4.5,14,14,0,0,1-10.48-4.42A14.71,14.71,0,0,1,34.42,149Z"/><path class="cls-1" d="M72.3,163.59H68.55V134.4h3.54v3.37a9.53,9.53,0,0,1,3-2.84,7.33,7.33,0,0,1,1.8-.7,7.9,7.9,0,0,1,2-.25l0,4.05c-2.35.22-4.05.92-5.08,2.1S72.3,143.27,72.3,146Z"/><polygon class="cls-1" points="88.59 163.59 88.59 138.16 83.05 138.16 83.05 134.41 88.59 134.41 88.59 124.95 92.34 124.95 92.34 134.41 97.88 134.41 97.88 138.16 92.34 138.16 92.34 163.59 88.59 163.59"/><path class="cls-1" d="M120.61,146.57l-5.14,17h-3.86l-10.12-29.2h6.86l5.18,16.65,5.08-16.67,4.14,0,5,16.62,5.2-16.63h6.81l-10.16,29.2h-3.86l-5.18-17ZM141,149a16.16,16.16,0,0,1,1-5.76,14.8,14.8,0,0,1,3.14-4.93,16.06,16.06,0,0,1,4.88-3.52,13.52,13.52,0,0,1,5.77-1.3,15.26,15.26,0,0,1,5.9,1.13A14.73,14.73,0,0,1,166.6,138a15.71,15.71,0,0,1,3.27,4.94,14.53,14.53,0,0,1,1.17,5.7,16.56,16.56,0,0,1-1,5.83,15.13,15.13,0,0,1-3,4.92,16.1,16.1,0,0,1-2.34,2.1,16.27,16.27,0,0,1-2.67,1.6,14.23,14.23,0,0,1-5.89,1.25,14.93,14.93,0,0,1-5.91-1.15,14.51,14.51,0,0,1-4.86-3.41,16.59,16.59,0,0,1-3.2-5,19.11,19.11,0,0,1-.84-2.86A14.51,14.51,0,0,1,141,149Zm6.62-.05a9,9,0,0,0,2.43,6.43,8,8,0,0,0,6,2.55,7.76,7.76,0,0,0,5.94-2.57,9.1,9.1,0,0,0,2.41-6.47,9,9,0,0,0-2.41-6.47,8.32,8.32,0,0,0-12,.05,9,9,0,0,0-2.46,6.48Zm33.8-12.69a8.55,8.55,0,0,1,1.75-1.34,8.18,8.18,0,0,1,4.08-1H188v6.67h-.73a6.42,6.42,0,0,0-2.53.47,4.63,4.63,0,0,0-1.76,1.27c-1.08,1.28-1.28,3.47-1.28,5.08V163.6h-6.41V134.39h6.15v1.9Zm23,17.46L198,163.61h-7.28l9.87-15.14-8.75-14.05,7.31,0,18.43,29.21h-7.28Z"/><polygon class="cls-2" points="205.99 141.27 209.56 146.73 217.58 134.4 210.04 134.4 205.99 141.27"/><polygon class="cls-3" points="79.93 97.46 110.47 77.22 140.5 57.32 114.36 39.99 140.5 57.32 140.5 22.66 114.36 39.99 79.93 62.8 79.93 97.46"/><polygon class="cls-4" points="114.36 39.99 140.5 22.66 106.36 0.03 106.32 0 80.17 17.33 80.28 17.4 114.36 39.99"/><polygon class="cls-5" points="110.29 112 79.93 97.46 110.29 77.34 110.29 112"/><path class="cls-6" d="M92.76,176.72a7.23,7.23,0,0,0-6.93.05,6.61,6.61,0,0,0-2.47,2.63,8.3,8.3,0,0,0-.9,3.94,7.67,7.67,0,0,0,.88,3.71,6.33,6.33,0,0,0,2.45,2.55,7,7,0,0,0,3.57.9,7.58,7.58,0,0,0,3.48-.73,7,7,0,0,0,2.56-2.38.49.49,0,0,0,.08-.22.24.24,0,0,0-.13-.21L94,186.32a.38.38,0,0,0-.22,0,.21.21,0,0,0-.18.1A5.4,5.4,0,0,1,91.83,188a4.7,4.7,0,0,1-2.18.5,4.28,4.28,0,0,1-3.72-2.12,4.19,4.19,0,0,1-.57-2.17q0-.42.27-.42h9.85q.27,0,.33-.12a.7.7,0,0,0,.07-.36v-.11a8.77,8.77,0,0,0-.81-3.91A5.83,5.83,0,0,0,92.76,176.72ZM93,182a.59.59,0,0,1-.36.08l-7.22,0a4.44,4.44,0,0,1,.47-2.11,4,4,0,0,1,1.4-1.57,3.7,3.7,0,0,1,2.1-.6,3.45,3.45,0,0,1,3.26,2,4.32,4.32,0,0,1,.44,1.95A.37.37,0,0,1,93,182Z"/><path class="cls-6" d="M107.09,182.38l-3.28-.93a3.53,3.53,0,0,1-1.54-.75,1.29,1.29,0,0,1-.43-1,1.68,1.68,0,0,1,.85-1.47,4,4,0,0,1,2.19-.55,4.52,4.52,0,0,1,2.1.47,4.21,4.21,0,0,1,1.47,1.23.4.4,0,0,0,.29.14.35.35,0,0,0,.16,0l1.38-.72c.09-.05.14-.11.14-.18a.53.53,0,0,0-.11-.27,5.08,5.08,0,0,0-2.16-1.81,7.4,7.4,0,0,0-3.24-.69,7.5,7.5,0,0,0-3,.54,4.69,4.69,0,0,0-2,1.52,3.74,3.74,0,0,0-.7,2.25,3.23,3.23,0,0,0,.9,2.34,5.92,5.92,0,0,0,2.88,1.41l2.71.7a4.49,4.49,0,0,1,1.8.78,1.45,1.45,0,0,1,.55,1.13,1.65,1.65,0,0,1-1,1.48,4.79,4.79,0,0,1-2.42.55,4.71,4.71,0,0,1-4.19-2.13.25.25,0,0,0-.21-.11.63.63,0,0,0-.26.08l-1.31.69a.27.27,0,0,0-.13.24.43.43,0,0,0,.08.24,5.06,5.06,0,0,0,2.31,2.12,9.12,9.12,0,0,0,6.82.28,4.9,4.9,0,0,0,2.12-1.51,3.56,3.56,0,0,0,.76-2.25,3.39,3.39,0,0,0-.9-2.35A5.34,5.34,0,0,0,107.09,182.38Z"/><path class="cls-6" d="M122.08,182.38l-3.28-.93a3.53,3.53,0,0,1-1.54-.75,1.33,1.33,0,0,1-.43-1,1.67,1.67,0,0,1,.86-1.47,3.89,3.89,0,0,1,2.18-.55,4.52,4.52,0,0,1,2.1.47,4.12,4.12,0,0,1,1.47,1.23.4.4,0,0,0,.29.14.35.35,0,0,0,.16,0l1.38-.72c.09-.05.14-.11.14-.18a.53.53,0,0,0-.11-.27,5.08,5.08,0,0,0-2.16-1.81,7.37,7.37,0,0,0-3.24-.69,7.5,7.5,0,0,0-3,.54,4.69,4.69,0,0,0-2,1.52,3.74,3.74,0,0,0-.7,2.25,3.23,3.23,0,0,0,.9,2.34,5.92,5.92,0,0,0,2.88,1.41l2.71.7a4.49,4.49,0,0,1,1.8.78,1.42,1.42,0,0,1,.55,1.13,1.65,1.65,0,0,1-1,1.48,4.79,4.79,0,0,1-2.42.55,4.71,4.71,0,0,1-4.19-2.13.25.25,0,0,0-.21-.11.63.63,0,0,0-.26.08l-1.31.69a.27.27,0,0,0-.13.24.43.43,0,0,0,.08.24,5.06,5.06,0,0,0,2.31,2.12,9.12,9.12,0,0,0,6.82.28,4.9,4.9,0,0,0,2.12-1.51,3.56,3.56,0,0,0,.76-2.25,3.42,3.42,0,0,0-.89-2.35A5.42,5.42,0,0,0,122.08,182.38Z"/><path class="cls-6" d="M139.44,176.72a7.25,7.25,0,0,0-6.94.05A6.51,6.51,0,0,0,130,179.4a8.3,8.3,0,0,0-.91,3.94,7.79,7.79,0,0,0,.88,3.71,6.47,6.47,0,0,0,2.45,2.55,7.07,7.07,0,0,0,3.57.9,7.6,7.6,0,0,0,3.49-.73,7,7,0,0,0,2.56-2.38.49.49,0,0,0,.08-.22A.24.24,0,0,0,142,187l-1.36-.64a.33.33,0,0,0-.21,0,.21.21,0,0,0-.18.1,5.5,5.5,0,0,1-1.76,1.58,4.71,4.71,0,0,1-2.19.5,4.25,4.25,0,0,1-4.28-4.29c0-.28.09-.42.26-.42h9.86q.26,0,.33-.12a.82.82,0,0,0,.07-.36v-.11a8.77,8.77,0,0,0-.82-3.91A5.81,5.81,0,0,0,139.44,176.72Zm.23,5.26a.64.64,0,0,1-.36.08l-7.22,0a4.33,4.33,0,0,1,.47-2.11,4,4,0,0,1,1.39-1.57,3.75,3.75,0,0,1,2.11-.6,3.48,3.48,0,0,1,3.26,2,4.46,4.46,0,0,1,.44,1.95A.37.37,0,0,1,139.67,182Z"/><path class="cls-6" d="M154.38,175.86a5.16,5.16,0,0,0-2.32.52,13.23,13.23,0,0,0-2.45,1.63c-.09.09-.15.13-.2.11s-.07-.08-.07-.19v-1.46c0-.23-.1-.35-.31-.35h-2.11c-.23,0-.34.14-.34.4v13.29a.37.37,0,0,0,.42.42h1.89a.59.59,0,0,0,.39-.1.45.45,0,0,0,.12-.35V180a10.73,10.73,0,0,1,2-1.53,3.87,3.87,0,0,1,1.87-.46,2.47,2.47,0,0,1,1.88.65,2.54,2.54,0,0,1,.63,1.85v9.32q0,.42.39.42h2c.3,0,.45-.16.45-.47v-9.83a4,4,0,0,0-1.13-3A4.29,4.29,0,0,0,154.38,175.86Z"/><path class="cls-6" d="M171.1,176.12h-3.2a.21.21,0,0,1-.24-.24v-4.12c0-.29-.11-.43-.34-.43h-1.84c-.18,0-.28.12-.32.37l-.32,4.18q0,.24-.21.24H162.5c-.21,0-.32.1-.32.3v1.41c0,.21.11.32.35.32h2c.18,0,.27.1.27.32v8.44a3.31,3.31,0,0,0,.85,2.51,3.68,3.68,0,0,0,2.61.81,19.62,19.62,0,0,0,2.72-.13.43.43,0,0,0,.4-.45V188.5a.29.29,0,0,0-.32-.32h-1.71a1.8,1.8,0,0,1-1.32-.42,2.27,2.27,0,0,1-.41-1.55v-7.8c0-.17.08-.26.24-.26h3.2c.24,0,.37-.11.37-.32v-1.41C171.42,176.22,171.31,176.12,171.1,176.12Z"/><path class="cls-6" d="M177.84,170.48h-2.21c-.27,0-.4.15-.4.45v2.42a.59.59,0,0,0,.1.39.49.49,0,0,0,.38.12h2a.53.53,0,0,0,.41-.13.63.63,0,0,0,.12-.43v-2.4a.44.44,0,0,0-.11-.3A.34.34,0,0,0,177.84,170.48Z"/><path class="cls-6" d="M177.81,176.12h-2.13a.34.34,0,0,0-.29.1.42.42,0,0,0-.08.3v13.29a.42.42,0,0,0,.1.33.59.59,0,0,0,.37.09h1.82a.63.63,0,0,0,.41-.1.53.53,0,0,0,.12-.4V176.49C178.13,176.25,178,176.12,177.81,176.12Z"/><path class="cls-6" d="M188.7,175.86a8,8,0,0,0-3.69.78,5.13,5.13,0,0,0-2.27,2.22.79.79,0,0,0-.09.3.21.21,0,0,0,.16.21l1.82.53a.47.47,0,0,0,.28,0,.5.5,0,0,0,.17-.2,4,4,0,0,1,3.49-2,3,3,0,0,1,2.18.76,2.7,2.7,0,0,1,.8,2.06v.67c0,.23-.14.36-.43.39l-1.73.14a10.26,10.26,0,0,0-5.34,1.43,4,4,0,0,0-1.87,3.44,3.57,3.57,0,0,0,1.18,2.81,4.71,4.71,0,0,0,3.24,1.05,6.37,6.37,0,0,0,4.55-1.86.64.64,0,0,1,.29-.16c.07,0,.13.07.16.21l.05,1c0,.36.18.53.43.53h1.78a.43.43,0,0,0,.31-.09.52.52,0,0,0,.09-.36v-9.4a4.18,4.18,0,0,0-1.38-3.33A6.3,6.3,0,0,0,188.7,175.86Zm2.85,9.82a2.55,2.55,0,0,1-1.15,1.87,4.39,4.39,0,0,1-2.71,1,3.1,3.1,0,0,1-2-.6,2,2,0,0,1-.75-1.64,2.33,2.33,0,0,1,1.3-2.09,7.92,7.92,0,0,1,3.5-.89l1.44-.11c.24,0,.37.12.37.4Z"/><path class="cls-6" d="M201.48,170.48h-2.1c-.23,0-.35.13-.35.4L199,189.81a.42.42,0,0,0,.1.33.62.62,0,0,0,.38.09h1.81a.69.69,0,0,0,.44-.1.53.53,0,0,0,.12-.4V170.88C201.83,170.61,201.71,170.48,201.48,170.48Z"/><path class="cls-6" d="M216.72,183.86a5.34,5.34,0,0,0-2.75-1.48l-3.28-.93a3.53,3.53,0,0,1-1.54-.75,1.29,1.29,0,0,1-.43-1,1.68,1.68,0,0,1,.85-1.47,4,4,0,0,1,2.19-.55,4.52,4.52,0,0,1,2.1.47,4.21,4.21,0,0,1,1.47,1.23.38.38,0,0,0,.29.14.35.35,0,0,0,.16,0l1.38-.72c.09-.05.14-.11.14-.18a.53.53,0,0,0-.11-.27,5.08,5.08,0,0,0-2.16-1.81,8.13,8.13,0,0,0-6.19-.15,4.69,4.69,0,0,0-2,1.52,3.74,3.74,0,0,0-.7,2.25,3.23,3.23,0,0,0,.9,2.34,5.92,5.92,0,0,0,2.88,1.41l2.71.7a4.49,4.49,0,0,1,1.8.78,1.45,1.45,0,0,1,.55,1.13,1.65,1.65,0,0,1-1,1.48,4.8,4.8,0,0,1-2.43.55,4.69,4.69,0,0,1-4.18-2.13.25.25,0,0,0-.21-.11.63.63,0,0,0-.26.08l-1.31.69a.27.27,0,0,0-.13.24.43.43,0,0,0,.08.24,5.06,5.06,0,0,0,2.31,2.12,9.12,9.12,0,0,0,6.82.28,4.9,4.9,0,0,0,2.12-1.51,3.56,3.56,0,0,0,.76-2.25A3.39,3.39,0,0,0,216.72,183.86Z"/></g></g></svg>