<svg xmlns="http://www.w3.org/2000/svg" xmlns:xlink="http://www.w3.org/1999/xlink" viewBox="0 0 305.67 112"><defs><style>.cls-1,.cls-2,.cls-3,.cls-4,.cls-5{fill-rule:evenodd;}.cls-1{fill:url(#New_Gradient_Swatch_1);}.cls-2{fill:url(#linear-gradient);}.cls-3{fill:url(#linear-gradient-2);}.cls-4{fill:url(#linear-gradient-3);}.cls-5{fill:#515254;}.cls-6{fill:#f05223;}</style><radialGradient id="New_Gradient_Swatch_1" cx="299.84" cy="38.84" r="5.98" gradientUnits="userSpaceOnUse"><stop offset="0" stop-color="#e75d25"/><stop offset="1" stop-color="#d54d2a"/></radialGradient><linearGradient id="linear-gradient" y1="60.06" x2="58.48" y2="60.06" gradientUnits="userSpaceOnUse"><stop offset="0" stop-color="#f47a3a"/><stop offset="0.11" stop-color="#ef7437"/><stop offset="0.67" stop-color="#dc5a2c"/><stop offset="1" stop-color="#d55028"/></linearGradient><linearGradient id="linear-gradient-2" x1="0.24" y1="19.99" x2="60.57" y2="19.99" gradientUnits="userSpaceOnUse"><stop offset="0" stop-color="#d54927"/><stop offset="0.25" stop-color="#d84e29"/><stop offset="0.54" stop-color="#e05d30"/><stop offset="0.86" stop-color="#ee753a"/><stop offset="1" stop-color="#f58240"/></linearGradient><linearGradient id="linear-gradient-3" x1="15.18" y1="112" x2="15.18" y2="77.34" gradientUnits="userSpaceOnUse"><stop offset="0" stop-color="#e56f30"/><stop offset="0.37" stop-color="#d1552b"/><stop offset="0.75" stop-color="#c14127"/><stop offset="1" stop-color="#bc3a26"/></linearGradient></defs><g id="Layer_2" data-name="Layer 2"><g id="Layer_1-2" data-name="Layer 1"><polygon class="cls-1" points="294.05 39.54 297.62 45 305.63 32.68 298.09 32.68 294.05 39.54"/><polygon class="cls-2" points="0 97.46 30.54 77.22 60.57 57.32 34.42 39.99 60.57 57.32 60.57 22.66 34.42 39.99 0 62.8 0 97.46"/><polygon class="cls-3" points="34.42 39.99 60.57 22.66 26.43 0.03 26.39 0 0.24 17.33 0.35 17.4 34.42 39.99"/><polygon class="cls-4" points="30.36 112 0 97.46 30.36 77.34 30.36 112"/><path class="cls-5" d="M88.06,32.67h3.69v4.79a11.38,11.38,0,0,1,4.55-3.94A13.84,13.84,0,0,1,102.6,32a14.74,14.74,0,0,1,11,4.4,15,15,0,0,1,4.34,11,15,15,0,0,1-4.28,10.82,14.35,14.35,0,0,1-10.71,4.42,14.56,14.56,0,0,1-6.4-1.37,12.47,12.47,0,0,1-4.75-4V71.32H88.06V32.67Zm3.69,14.4a12.06,12.06,0,0,0,3.3,8.54,10.24,10.24,0,0,0,7.75,3.54,10.66,10.66,0,0,0,7.87-3.36A11.31,11.31,0,0,0,114,47.55a12,12,0,0,0-3.3-8.56,10.6,10.6,0,0,0-8-3.48A10.2,10.2,0,0,0,95.05,39,11.39,11.39,0,0,0,91.75,47.07Z"/><path class="cls-5" d="M126.3,47.23a11.61,11.61,0,0,0,3.12,8.24,10.29,10.29,0,0,0,7.82,3.35A10.12,10.12,0,0,0,145,55.49a11.71,11.71,0,0,0,3.1-8.31,11.41,11.41,0,0,0-3.14-8.3,10.64,10.64,0,0,0-8-3.26A9.9,9.9,0,0,0,129.44,39a11.56,11.56,0,0,0-3.14,8.26Zm-3.82.07a14.85,14.85,0,0,1,4.3-10.72A13.64,13.64,0,0,1,137,32.12a15,15,0,0,1,14.92,14.82,15.26,15.26,0,0,1-4.27,10.88,13.78,13.78,0,0,1-10.37,4.5,14,14,0,0,1-10.47-4.42A14.67,14.67,0,0,1,122.48,47.3Z"/><path class="cls-5" d="M160.36,61.87h-3.75V32.67h3.53V36a9.51,9.51,0,0,1,3-2.83,6.9,6.9,0,0,1,1.79-.71,8,8,0,0,1,2-.25l0,4.06q-3.54.31-5.08,2.1c-1,1.18-1.55,3.13-1.55,5.83Z"/><polygon class="cls-5" points="176.65 61.87 176.65 36.43 171.1 36.43 171.1 32.68 176.65 32.68 176.65 23.23 180.4 23.23 180.4 32.68 185.94 32.68 185.94 36.43 180.4 36.43 180.4 61.87 176.65 61.87"/><path class="cls-5" d="M208.66,44.84l-5.13,17h-3.87l-10.11-29.2,6.86,0,5.17,16.64,5.09-16.67,4.13,0,5.06,16.62,5.2-16.62,6.81,0L217.7,61.87h-3.85l-5.19-17ZM229,47.3a16.07,16.07,0,0,1,1-5.75,15,15,0,0,1,3.14-4.94,16,16,0,0,1,4.88-3.51,13.59,13.59,0,0,1,5.77-1.3,15.33,15.33,0,0,1,5.91,1.12,14.83,14.83,0,0,1,4.9,3.38,15.73,15.73,0,0,1,3.28,4.94A14.73,14.73,0,0,1,259.1,47,16.3,16.3,0,0,1,258,52.77a15,15,0,0,1-3,4.92,16.56,16.56,0,0,1-2.33,2.1,16.09,16.09,0,0,1-2.68,1.6,14.24,14.24,0,0,1-5.89,1.26,15,15,0,0,1-5.91-1.16,14.37,14.37,0,0,1-4.85-3.41,16.4,16.4,0,0,1-3.2-5,17.73,17.73,0,0,1-.85-2.86A15.26,15.26,0,0,1,229,47.3Zm6.62,0a9,9,0,0,0,2.44,6.44,8,8,0,0,0,6,2.54,7.77,7.77,0,0,0,5.94-2.56,9.12,9.12,0,0,0,2.42-6.47,9,9,0,0,0-2.41-6.48,8.33,8.33,0,0,0-12,.05,9,9,0,0,0-2.46,6.48Zm33.81-12.69a8.51,8.51,0,0,1,1.75-1.33,8.06,8.06,0,0,1,4.08-1H276v6.67h-.72a6.52,6.52,0,0,0-2.54.48A4.6,4.6,0,0,0,271,40.62c-1.08,1.28-1.27,3.48-1.27,5.08V61.87H263.3V32.67h6.15v1.89ZM292.4,52l-6.3,9.86h-7.28l9.86-15.14-8.74-14h7.31l18.42,29.2H298.4Z"/><path class="cls-6" d="M180,76.12a7.16,7.16,0,0,0-6.93,0,6.45,6.45,0,0,0-2.46,2.63,8.16,8.16,0,0,0-.91,3.94,7.67,7.67,0,0,0,.88,3.71A6.31,6.31,0,0,0,173,89a7,7,0,0,0,3.57.91,7.76,7.76,0,0,0,3.49-.73,7,7,0,0,0,2.55-2.39.51.51,0,0,0,.08-.21.23.23,0,0,0-.13-.21l-1.36-.64a.33.33,0,0,0-.21-.06.24.24,0,0,0-.19.11,5.25,5.25,0,0,1-1.76,1.57,4.56,4.56,0,0,1-2.18.51,4.25,4.25,0,0,1-2.16-.57,4.34,4.34,0,0,1-1.55-1.55,4.12,4.12,0,0,1-.58-2.17q0-.42.27-.42h9.85q.27,0,.33-.12a.7.7,0,0,0,.07-.36v-.11a8.77,8.77,0,0,0-.81-3.91A5.72,5.72,0,0,0,180,76.12Zm.23,5.26a.59.59,0,0,1-.36.08l-7.21,0a4.36,4.36,0,0,1,.46-2.12,4.15,4.15,0,0,1,1.4-1.57,3.7,3.7,0,0,1,2.1-.6,3.51,3.51,0,0,1,3.27,2,4.42,4.42,0,0,1,.43,2A.39.39,0,0,1,180.22,81.38Z"/><path class="cls-6" d="M194.32,81.78,191,80.85a3.77,3.77,0,0,1-1.54-.75,1.33,1.33,0,0,1-.43-1,1.69,1.69,0,0,1,.86-1.48,4,4,0,0,1,2.18-.54,4.51,4.51,0,0,1,2.1.46,4.06,4.06,0,0,1,1.47,1.24A.4.4,0,0,0,196,79a.35.35,0,0,0,.16,0l1.39-.72a.24.24,0,0,0,.13-.19.5.5,0,0,0-.11-.26A5.08,5.08,0,0,0,195.38,76a7.24,7.24,0,0,0-3.24-.7,7.5,7.5,0,0,0-2.95.55,4.61,4.61,0,0,0-2,1.52,3.72,3.72,0,0,0-.7,2.25,3.23,3.23,0,0,0,.9,2.34,6,6,0,0,0,2.88,1.41L193,84a4.62,4.62,0,0,1,1.8.79,1.42,1.42,0,0,1,.55,1.13,1.65,1.65,0,0,1-1,1.48A4.89,4.89,0,0,1,192,88a4.67,4.67,0,0,1-4.18-2.14.27.27,0,0,0-.22-.1.51.51,0,0,0-.26.08l-1.31.69a.25.25,0,0,0-.13.24A.52.52,0,0,0,186,87a5,5,0,0,0,2.32,2.12,8.28,8.28,0,0,0,3.75.81,8.39,8.39,0,0,0,3.06-.53,4.9,4.9,0,0,0,2.12-1.51,3.6,3.6,0,0,0,.76-2.25,3.42,3.42,0,0,0-.89-2.35A5.42,5.42,0,0,0,194.32,81.78Z"/><path class="cls-6" d="M209.31,81.78,206,80.85a3.76,3.76,0,0,1-1.55-.75,1.33,1.33,0,0,1-.43-1,1.69,1.69,0,0,1,.86-1.48,4,4,0,0,1,2.18-.54,4.51,4.51,0,0,1,2.1.46,4.06,4.06,0,0,1,1.47,1.24A.42.42,0,0,0,211,79a.32.32,0,0,0,.16,0l1.39-.72a.22.22,0,0,0,.13-.19.5.5,0,0,0-.11-.26A5.11,5.11,0,0,0,210.38,76a7.31,7.31,0,0,0-3.25-.7,7.41,7.41,0,0,0-2.94.55,4.64,4.64,0,0,0-2,1.52,3.72,3.72,0,0,0-.7,2.25,3.23,3.23,0,0,0,.9,2.34,6,6,0,0,0,2.88,1.41L208,84a4.64,4.64,0,0,1,1.79.79,1.42,1.42,0,0,1,.55,1.13,1.65,1.65,0,0,1-1,1.48A4.89,4.89,0,0,1,207,88a4.67,4.67,0,0,1-4.18-2.14.27.27,0,0,0-.22-.1.51.51,0,0,0-.26.08l-1.31.69a.25.25,0,0,0-.13.24A.52.52,0,0,0,201,87a5,5,0,0,0,2.32,2.12,8.28,8.28,0,0,0,3.75.81,8.39,8.39,0,0,0,3.06-.53,4.9,4.9,0,0,0,2.12-1.51,3.54,3.54,0,0,0,.76-2.25,3.42,3.42,0,0,0-.89-2.35A5.42,5.42,0,0,0,209.31,81.78Z"/><path class="cls-6" d="M226.67,76.12a7.16,7.16,0,0,0-6.93,0,6.54,6.54,0,0,0-2.47,2.63,8.27,8.27,0,0,0-.9,3.94,7.67,7.67,0,0,0,.88,3.71A6.25,6.25,0,0,0,219.7,89a6.91,6.91,0,0,0,3.56.91,7.73,7.73,0,0,0,3.49-.73,7,7,0,0,0,2.56-2.39.51.51,0,0,0,.08-.21.24.24,0,0,0-.14-.21l-1.35-.64a.38.38,0,0,0-.22-.06.22.22,0,0,0-.18.11,5.34,5.34,0,0,1-1.76,1.57,4.58,4.58,0,0,1-2.18.51,4.25,4.25,0,0,1-4.29-4.29q0-.42.27-.42h9.85c.17,0,.29,0,.33-.12a.7.7,0,0,0,.07-.36v-.11a8.64,8.64,0,0,0-.82-3.91A5.7,5.7,0,0,0,226.67,76.12Zm.23,5.26a.59.59,0,0,1-.36.08l-7.22,0a4.37,4.37,0,0,1,.47-2.12,4.07,4.07,0,0,1,1.4-1.57,3.7,3.7,0,0,1,2.1-.6,3.59,3.59,0,0,1,2,.55,3.52,3.52,0,0,1,1.28,1.45,4.43,4.43,0,0,1,.44,2A.39.39,0,0,1,226.9,81.38Z"/><path class="cls-6" d="M241.61,75.25a5.3,5.3,0,0,0-2.32.52,13.69,13.69,0,0,0-2.45,1.64c-.09.09-.15.12-.2.11s-.06-.08-.06-.19V75.87c0-.23-.11-.35-.32-.35h-2.11c-.23,0-.34.13-.34.4V89.21a.37.37,0,0,0,.42.42h1.89a.59.59,0,0,0,.39-.1.45.45,0,0,0,.12-.35v-9.8a10.73,10.73,0,0,1,2-1.53,3.87,3.87,0,0,1,1.87-.47,2.47,2.47,0,0,1,1.88.66,2.54,2.54,0,0,1,.63,1.85v9.32c0,.28.13.42.4.42h2q.45,0,.45-.48V79.33a4,4,0,0,0-1.13-3A4.29,4.29,0,0,0,241.61,75.25Z"/><path class="cls-6" d="M258.33,75.52h-3.19a.21.21,0,0,1-.24-.24V71.15c0-.28-.12-.42-.35-.42h-1.84c-.18,0-.28.12-.32.37l-.32,4.18q0,.24-.21.24h-2.13c-.21,0-.32.1-.32.29v1.41c0,.22.12.32.35.32h2c.18,0,.27.11.27.32V86.3a3.32,3.32,0,0,0,.85,2.52,3.68,3.68,0,0,0,2.61.81,19.62,19.62,0,0,0,2.72-.13.43.43,0,0,0,.4-.45V87.9a.29.29,0,0,0-.32-.32h-1.71a1.76,1.76,0,0,1-1.31-.42,2.21,2.21,0,0,1-.42-1.55v-7.8q0-.27.24-.27h3.2c.25,0,.37-.1.37-.32V75.81C258.65,75.62,258.54,75.52,258.33,75.52Z"/><path class="cls-6" d="M265.07,69.88h-2.21c-.27,0-.4.15-.4.45v2.42a.59.59,0,0,0,.1.39.51.51,0,0,0,.38.12h2a.53.53,0,0,0,.41-.14.62.62,0,0,0,.12-.42V70.3a.42.42,0,0,0-.11-.31A.36.36,0,0,0,265.07,69.88Z"/><path class="cls-6" d="M265,75.52h-2.13a.37.37,0,0,0-.29.09.46.46,0,0,0-.08.31V89.21a.42.42,0,0,0,.1.33.62.62,0,0,0,.38.09h1.81a.63.63,0,0,0,.41-.1.53.53,0,0,0,.12-.4V75.89C265.36,75.64,265.25,75.52,265,75.52Z"/><path class="cls-6" d="M275.93,75.25a8,8,0,0,0-3.69.79A5,5,0,0,0,270,78.26a.7.7,0,0,0-.08.29.21.21,0,0,0,.16.22l1.81.53a.39.39,0,0,0,.28,0,.35.35,0,0,0,.17-.2,4,4,0,0,1,3.49-2,3.06,3.06,0,0,1,2.18.76,2.74,2.74,0,0,1,.8,2.07v.66c0,.23-.14.37-.43.4l-1.73.13a10.41,10.41,0,0,0-5.34,1.44A4,4,0,0,0,269.41,86a3.57,3.57,0,0,0,1.18,2.81,4.71,4.71,0,0,0,3.24,1.05A6.34,6.34,0,0,0,278.38,88a.77.77,0,0,1,.29-.16c.07,0,.13.08.16.22l.06,1c0,.36.17.53.42.53h1.79a.41.41,0,0,0,.3-.09.51.51,0,0,0,.1-.36v-9.4a4.19,4.19,0,0,0-1.39-3.33A6.23,6.23,0,0,0,275.93,75.25Zm2.85,9.83a2.53,2.53,0,0,1-1.14,1.86,4.39,4.39,0,0,1-2.72,1,3.12,3.12,0,0,1-2-.6,2,2,0,0,1-.74-1.64,2.33,2.33,0,0,1,1.29-2.09,8,8,0,0,1,3.5-.89l1.44-.11c.25,0,.37.12.37.4Z"/><path class="cls-6" d="M288.71,69.88h-2.1c-.23,0-.35.13-.35.39l-.05,18.94a.42.42,0,0,0,.11.33.57.57,0,0,0,.37.09h1.81a.69.69,0,0,0,.44-.1.53.53,0,0,0,.12-.4V70.27C289.06,70,288.94,69.88,288.71,69.88Z"/><path class="cls-6" d="M304,83.26a5.42,5.42,0,0,0-2.76-1.48l-3.28-.93a3.77,3.77,0,0,1-1.54-.75,1.33,1.33,0,0,1-.43-1,1.69,1.69,0,0,1,.86-1.48,4,4,0,0,1,2.18-.54,4.51,4.51,0,0,1,2.1.46,4.06,4.06,0,0,1,1.47,1.24.4.4,0,0,0,.29.14.35.35,0,0,0,.16,0l1.39-.72a.24.24,0,0,0,.13-.19.5.5,0,0,0-.11-.26A5.08,5.08,0,0,0,302.26,76a7.24,7.24,0,0,0-3.24-.7,7.5,7.5,0,0,0-2.95.55,4.61,4.61,0,0,0-2,1.52,3.72,3.72,0,0,0-.7,2.25,3.23,3.23,0,0,0,.9,2.34,6,6,0,0,0,2.88,1.41l2.71.69a4.62,4.62,0,0,1,1.8.79,1.42,1.42,0,0,1,.55,1.13,1.65,1.65,0,0,1-1,1.48,4.89,4.89,0,0,1-2.42.55,4.67,4.67,0,0,1-4.18-2.14.27.27,0,0,0-.22-.1.51.51,0,0,0-.26.08l-1.31.69a.25.25,0,0,0-.13.24.52.52,0,0,0,.08.24,5,5,0,0,0,2.32,2.12,8.28,8.28,0,0,0,3.75.81,8.39,8.39,0,0,0,3.06-.53,4.9,4.9,0,0,0,2.12-1.51,3.6,3.6,0,0,0,.76-2.25A3.42,3.42,0,0,0,304,83.26Z"/></g></g></svg>