<?xml version="1.0" encoding="utf-8"?>
<!-- Generator: Adobe Illustrator 24.1.3, SVG Export Plug-In . SVG Version: 6.00 Build 0)  -->
<svg version="1.1" id="Layer_1" xmlns="http://www.w3.org/2000/svg" xmlns:xlink="http://www.w3.org/1999/xlink" x="0px" y="0px"
	 viewBox="0 0 2174.75 818.82" style="enable-background:new 0 0 2174.75 818.82;" xml:space="preserve">
<style type="text/css">
	.st0{fill-rule:evenodd;clip-rule:evenodd;fill:url(#SVGID_1_);}
	.st1{fill-rule:evenodd;clip-rule:evenodd;fill:url(#SVGID_2_);}
	.st2{fill-rule:evenodd;clip-rule:evenodd;fill:url(#SVGID_3_);}
	.st3{fill-rule:evenodd;clip-rule:evenodd;}
	.st4{fill-rule:evenodd;clip-rule:evenodd;fill:url(#SVGID_4_);}
</style>
<linearGradient id="SVGID_1_" gradientUnits="userSpaceOnUse" x1="87.373" y1="435.9781" x2="469.9999" y2="435.9781">
	<stop  offset="0" style="stop-color:#4F4F51"/>
	<stop  offset="0.0948" style="stop-color:#4A4B4C"/>
	<stop  offset="0.6619" style="stop-color:#212122"/>
	<stop  offset="1" style="stop-color:#000000"/>
</linearGradient>
<polygon class="st0" points="87.37,680.7 287.19,548.26 483.66,418.03 312.6,304.65 483.67,418.03 483.67,191.26 312.6,304.65 
	87.37,453.93 "/>
<linearGradient id="SVGID_2_" gradientUnits="userSpaceOnUse" x1="88.942" y1="173.8306" x2="483.6636" y2="173.8306">
	<stop  offset="0" style="stop-color:#000000"/>
	<stop  offset="0.2979" style="stop-color:#141414"/>
	<stop  offset="0.6541" style="stop-color:#373638"/>
	<stop  offset="1" style="stop-color:#4F4F51"/>
</linearGradient>
<polygon class="st1" points="312.6,304.65 483.66,191.26 260.29,43.2 260.01,43.02 88.94,156.4 89.64,156.87 "/>
<linearGradient id="SVGID_3_" gradientUnits="userSpaceOnUse" x1="186.6987" y1="775.8034" x2="186.6987" y2="549.0303">
	<stop  offset="0" style="stop-color:#4F4F51"/>
	<stop  offset="0.2498" style="stop-color:#424243"/>
	<stop  offset="0.6956" style="stop-color:#1A1A1B"/>
	<stop  offset="1" style="stop-color:#000000"/>
</linearGradient>
<polygon class="st2" points="286.02,775.8 87.37,680.7 286.02,549.03 "/>
<g>
	<g>
		<path class="st3" d="M663.52,256.73h24.18v31.3c6.93-10.67,16.88-19.27,29.79-25.77c12.87-6.46,26.61-9.73,41.19-9.73
			c28.87,0,52.74,9.6,71.65,28.81c18.89,19.25,28.39,43.14,28.39,71.7c0,27.93-9.37,51.51-28.03,70.78
			c-18.73,19.25-42.07,28.91-70.05,28.91c-15.54,0-29.52-2.97-41.9-8.95c-12.39-5.92-22.7-14.69-31.05-26.26v13.16v28.45v50.48
			h-24.18V256.73L663.52,256.73z M687.7,350.95c0,21.76,7.16,40.36,21.57,55.84c14.33,15.46,31.21,23.16,50.71,23.16
			c19.92,0,37.11-7.34,51.51-21.99c14.39-14.62,21.63-32.59,21.63-53.87c0-22.22-7.18-40.88-21.57-56.05
			c-14.35-15.17-31.82-22.76-52.45-22.76c-18.79,0-35.38,7.59-49.79,22.82C694.92,313.34,687.7,330.93,687.7,350.95z"/>
		<path class="st3" d="M913.75,351.96c0,21.42,6.82,39.35,20.42,53.95c13.66,14.58,30.75,21.86,51.17,21.86
			c20.15,0,36.99-7.22,50.53-21.76c13.49-14.52,20.27-32.64,20.27-54.35c0-22.05-6.84-40.17-20.54-54.35
			c-13.66-14.16-31.15-21.3-52.45-21.3c-18.87,0-35.19,7.3-48.85,21.88C920.57,312.48,913.75,330.5,913.75,351.96L913.75,351.96z
			 M888.75,352.42c0-27.36,9.37-50.75,28.12-70.15c18.77-19.46,40.99-29.16,66.63-29.16c26.9,0,49.88,9.54,68.98,28.64
			c19.1,19.1,28.66,41.84,28.66,68.31c0,27.78-9.31,51.51-27.95,71.19c-18.64,19.62-41.28,29.46-67.85,29.46
			c-26.97,0-49.83-9.6-68.54-28.89C898.12,402.55,888.75,379.39,888.75,352.42z"/>
		<path class="st3" d="M1136.6,447.74h-24.54V256.73h23.12v22.05c5.79-8.18,12.32-14.39,19.6-18.56c3.56-2.01,7.47-3.56,11.74-4.62
			c4.2-1.11,8.66-1.65,13.28-1.65l0.17,26.55c-15.4,1.42-26.48,5.99-33.24,13.75c-6.76,7.76-10.12,20.5-10.12,38.18V447.74z"/>
		<polygon class="st3" points="1243.17,447.74 1243.17,281.33 1206.9,281.33 1206.9,256.79 1243.17,256.79 1243.17,194.93 
			1267.69,194.93 1267.69,256.79 1303.97,256.79 1303.97,281.33 1267.69,281.33 1267.69,447.74 		"/>
	</g>
	<path class="st3" d="M1452.65,336.35l-33.61,111.42h-25.28l-66.17-191.03l44.88,0.07l33.86,108.94l33.27-109.07l27.04,0.15
		l33.1,108.78l34.02-108.8l44.55-0.07l-66.52,191.03h-25.21L1452.65,336.35L1452.65,336.35z M1585.87,352.42
		c0-12.92,2.14-25.56,6.73-37.64c4.6-12.11,11.63-22.89,20.55-32.28c9.15-9.65,19.85-17.4,31.92-23.01
		c11.95-5.56,24.58-8.5,37.78-8.5c13.28,0,26.34,2.24,38.62,7.35c12.19,5.07,22.9,12.71,32.11,22.14
		c9.16,9.39,16.37,20.2,21.43,32.3c4.99,11.9,7.64,24.42,7.64,37.33c0,13.09-2.29,25.89-6.89,38.13
		c-4.5,11.95-11.14,22.78-19.76,32.18c-4.64,5.05-9.75,9.7-15.29,13.75c-5.46,3.99-11.27,7.54-17.48,10.48
		c-12.25,5.49-25.14,8.19-38.56,8.19c-13.31,0-26.39-2.3-38.65-7.54c-12.11-5.16-22.76-12.79-31.78-22.35
		c-8.93-9.45-15.82-20.42-20.93-32.55c-2.33-6.08-4.23-12.35-5.51-18.72C1586.49,365.35,1585.87,358.9,1585.87,352.42
		L1585.87,352.42z M1629.18,352.09c0,16.11,4.8,30.4,15.93,42.14c10.74,11.32,23.95,16.66,39.54,16.66
		c15.44,0,28.37-5.49,38.89-16.8c11.04-11.85,15.8-26.21,15.8-42.34c0-16.07-4.55-30.59-15.76-42.36
		c-10.66-11.19-23.78-16.44-39.21-16.44c-15.47,0-28.43,5.6-39.1,16.78C1634.03,321.52,1629.18,335.86,1629.18,352.09
		L1629.18,352.09z M1850.38,269.11c3.4-3.38,7.19-6.34,11.44-8.76c8.21-4.66,17.28-6.65,26.68-6.65h4.75v43.64h-4.75
		c-5.67,0-11.32,0.89-16.56,3.11c-4.47,1.9-8.38,4.54-11.52,8.27c-7.08,8.39-8.34,22.75-8.34,33.22v105.82h-41.95V256.69h40.26
		V269.11L1850.38,269.11z M2000.56,383.31l-41.25,64.52l-47.64-0.07l64.53-99.05l-57.22-91.95l47.83-0.07
		c120.56,191.09,0,0,120.56,191.09l-47.59-0.07L2000.56,383.31z"/>
	<radialGradient id="SVGID_4_" cx="2049.2119" cy="297.0717" r="39.13" gradientUnits="userSpaceOnUse">
		<stop  offset="0" style="stop-color:#414042"/>
		<stop  offset="1" style="stop-color:#000000"/>
	</radialGradient>
	<polygon class="st4" points="2011.31,301.66 2034.69,337.4 2087.11,256.75 2037.79,256.75 	"/>
	<g>
		<path d="M1204.75,539.74v6.79c0,0.93,0.23,1.39,0.7,1.39c0.23,0,0.75-0.29,1.57-0.87c3.48-3.49,7.17-6.33,11.06-8.54
			c3.89-2.21,9.09-3.31,15.59-3.31c7.2,0,13.62,1.74,19.25,5.23c5.63,3.48,10.08,8.71,13.33,15.68c3.25,6.97,4.88,15.57,4.88,25.79
			c0,10.45-1.63,19.37-4.88,26.74c-3.25,7.38-7.84,12.95-13.76,16.73c-5.92,3.78-12.78,5.66-20.56,5.66
			c-9.41,0-17.48-2.9-24.22-8.71c-0.93-0.81-1.63-1.22-2.09-1.22c-0.58,0-0.87,0.76-0.87,2.26v32.23c0,1.62-0.7,2.44-2.09,2.44
			h-14.11c-1.51,0-2.27-0.81-2.27-2.44V540.09c0-1.16,0.26-1.97,0.78-2.44c0.52-0.46,1.36-0.7,2.53-0.7h12.2
			C1203.77,536.95,1204.75,537.88,1204.75,539.74z M1214.95,615.79c3.42,1.8,7.17,2.7,11.24,2.7c8.01,0,14.37-3.11,19.08-9.32
			c4.7-6.21,7.06-15.3,7.06-27.27c0-11.61-2.32-20.21-6.97-25.79c-4.65-5.58-10.74-8.36-18.29-8.36c-4.18,0-7.99,0.9-11.41,2.7
			c-3.43,1.8-6.1,4.12-8.01,6.97c-1.92,2.85-2.88,5.66-2.88,8.45v41.99C1208.12,611.35,1211.52,613.99,1214.95,615.79z"/>
		<path d="M1375.15,628.08c0,0.81-0.81,1.22-2.44,1.22h-15.33c-1.97,0-3.43-0.64-4.36-1.92l-22.47-31.19
			c-0.7-1.04-1.28-1.57-1.74-1.57c-0.23,0-0.81,0.52-1.74,1.57l-23.35,31.19c-0.7,1.28-2.09,1.92-4.18,1.92h-10.11
			c-1.98,0-2.96-0.58-2.96-1.74c0-0.93,0.46-2.03,1.39-3.31l30.84-39.2c0.58-0.93,0.87-1.62,0.87-2.09c0-0.7-0.35-1.45-1.04-2.26
			l-29.62-40.25c-0.35-0.58-0.52-1.04-0.52-1.39c0-1.39,0.81-2.09,2.44-2.09h14.46c1.05,0,1.86,0.15,2.44,0.44
			c0.58,0.29,1.16,0.78,1.74,1.48l21.26,29.1c0.46,0.7,0.93,1.04,1.39,1.04c0.46,0,0.87-0.35,1.22-1.04l20.56-29.1
			c0.46-0.7,0.99-1.19,1.57-1.48c0.58-0.29,1.45-0.44,2.61-0.44h11.15c1.39,0,2.09,0.46,2.09,1.39c0,0.35-0.23,0.87-0.7,1.57
			l-28.4,37.98c-0.58,0.7-0.87,1.39-0.87,2.09c0,0.58,0.29,1.34,0.87,2.26l31.36,42.69
			C1374.63,626.33,1375.15,627.38,1375.15,628.08z"/>
		<path d="M1433.69,587.48c0,1.86-1.16,2.79-3.48,2.79h-40.07c-0.93,0-1.6-0.17-2-0.52c-0.41-0.35-0.61-0.99-0.61-1.92v-9.23
			c0-1.62,0.64-2.44,1.92-2.44h42.16c1.39,0,2.09,0.64,2.09,1.92V587.48z"/>
		<path d="M1466.97,629.3c-1.16,0-1.98-0.23-2.44-0.7c-0.46-0.46-0.7-1.28-0.7-2.44V502.63c0-1.74,0.81-2.61,2.44-2.61h13.94
			c1.39,0,2.09,0.87,2.09,2.61v42.16c0,1.28,0.29,1.92,0.87,1.92c0.46,0,1.1-0.29,1.92-0.87c7.43-7.08,16.32-10.63,26.66-10.63
			c12.08,0,21.28,4.36,27.62,13.07c6.33,8.71,9.5,20.15,9.5,34.32c0,14.98-3.49,26.8-10.45,35.46
			c-6.97,8.65-16.73,12.98-29.27,12.98c-6.62,0-12.28-1.39-16.99-4.18c-4.7-2.79-8.39-5.98-11.06-9.58
			c-0.58-0.58-0.99-0.87-1.22-0.87c-0.23,0-0.46,0.46-0.7,1.39l-1.39,8.54c-0.23,1.04-0.58,1.8-1.04,2.26
			c-0.47,0.47-1.28,0.7-2.44,0.7H1466.97z M1482.3,597.93c0,3.83,1.07,7.35,3.22,10.54c2.15,3.2,4.96,5.69,8.45,7.49
			c3.48,1.8,7.14,2.7,10.98,2.7c7.55,0,13.59-2.96,18.12-8.89s6.79-14.87,6.79-26.83c0-11.38-2.06-20.06-6.19-26.05
			c-4.12-5.98-10.08-8.97-17.86-8.97c-4.65,0-8.97,1.08-12.98,3.22c-4.01,2.15-7.52,4.97-10.54,8.45V597.93z"/>
		<path d="M1599.55,631.04c-8.95,0-16-2.29-21.17-6.88c-5.17-4.59-7.75-10.71-7.75-18.38c0-9.41,4.09-16.9,12.28-22.48
			c8.19-5.58,19.83-8.71,34.93-9.41l11.32-0.87c1.86-0.23,2.79-1.1,2.79-2.61v-4.36c0-5.69-1.74-10.19-5.23-13.5
			c-3.48-3.31-8.25-4.96-14.29-4.96c-9.53,0-17.13,4.3-22.82,12.89c-0.35,0.7-0.73,1.13-1.13,1.31c-0.41,0.17-1.02,0.15-1.83-0.09
			l-11.85-3.48c-0.7-0.23-1.05-0.7-1.05-1.39c0-0.46,0.17-1.1,0.52-1.92c3.25-6.27,8.22-11.12,14.9-14.55
			c6.68-3.42,14.72-5.14,24.13-5.14c12.2,0,21.31,2.61,27.35,7.84c6.04,5.23,9.06,12.49,9.06,21.78v61.5c0,1.16-0.2,1.95-0.61,2.35
			c-0.41,0.41-1.08,0.61-2,0.61h-11.67c-1.63,0-2.56-1.16-2.79-3.48l-0.35-6.62c-0.23-0.93-0.58-1.39-1.05-1.39
			c-0.35,0-0.99,0.35-1.92,1.04C1620.87,626.97,1610.94,631.04,1599.55,631.04z M1629.52,583.3l-9.41,0.7
			c-9.64,0.58-17.28,2.53-22.91,5.84c-5.63,3.31-8.45,7.87-8.45,13.68c0,4.53,1.63,8.1,4.88,10.72c3.25,2.61,7.61,3.92,13.07,3.92
			c6.27,0,12.2-2.15,17.77-6.45c4.99-4.06,7.49-8.13,7.49-12.2v-13.59C1631.96,584.06,1631.15,583.18,1629.52,583.3z"/>
		<path d="M1743.12,541.66c6.27,4.3,10.98,9.87,14.11,16.73c0.23,0.47,0.35,0.99,0.35,1.57c0,0.7-0.52,1.16-1.57,1.39l-12.37,2.09
			h-0.52c-0.7,0-1.28-0.46-1.74-1.39c-3.25-4.76-6.39-8.28-9.41-10.54c-3.02-2.26-6.68-3.4-10.98-3.4c-8.13,0-14.58,3.08-19.34,9.23
			c-4.76,6.16-7.14,14.75-7.14,25.79c0,11.15,2.44,19.81,7.32,25.96c4.88,6.16,11.5,9.23,19.86,9.23c5.23,0,9.73-1.33,13.5-4.01
			c3.77-2.67,7.29-6.68,10.54-12.02c0.35-0.46,0.7-0.75,1.04-0.87c0.35-0.11,0.81-0.06,1.39,0.17l9.23,2.79
			c1.05,0.35,1.28,1.22,0.7,2.61c-3.25,6.85-8.04,12.57-14.37,17.16c-6.33,4.59-14.2,6.88-23.61,6.88c-8.6,0-16.26-2-23-6.01
			c-6.74-4.01-12-9.61-15.77-16.81c-3.78-7.2-5.66-15.45-5.66-24.74c0-9.29,1.92-17.6,5.75-24.91c3.83-7.32,9.12-13.04,15.85-17.16
			c6.74-4.12,14.34-6.18,22.82-6.18C1729.18,535.21,1736.84,537.36,1743.12,541.66z"/>
		<path d="M1867.34,627.55c0,1.16-0.76,1.74-2.26,1.74h-15.51c-1.63,0-2.79-0.87-3.48-2.61l-23.87-42.16
			c-0.35-0.7-0.7-1.05-1.04-1.05c-0.35,0-0.76,0.23-1.22,0.7l-16.55,16.55c-0.93,0.81-1.39,2.03-1.39,3.66v21.6
			c0,1.28-0.26,2.15-0.78,2.61c-0.52,0.47-1.42,0.7-2.7,0.7h-12.02c-1.16,0-1.95-0.2-2.35-0.61c-0.41-0.41-0.61-1.13-0.61-2.18
			V502.63c0-1.74,0.75-2.61,2.26-2.61h13.94c1.51,0,2.27,0.87,2.27,2.61v77.88c0,1.05,0.23,1.57,0.7,1.57
			c0.23,0,0.64-0.29,1.22-0.87l39.72-41.99c1.51-1.51,2.85-2.26,4.01-2.26h13.07c1.62,0,2.44,0.46,2.44,1.39
			c0,0.7-0.41,1.45-1.22,2.26l-26.48,27.01c-0.58,0.58-0.87,1.16-0.87,1.74c0,0.35,0.17,0.99,0.52,1.92l31.88,54.71
			C1867.22,626.33,1867.34,626.86,1867.34,627.55z"/>
		<path d="M1950.27,603.34v-63.42c0-1.97,1.1-2.96,3.31-2.96h12.54c1.86,0,2.79,0.93,2.79,2.79l-0.35,87.11
			c0,1.63-0.7,2.44-2.09,2.44h-13.59c-1.39,0-2.09-0.75-2.09-2.26v-9.76c0-1.39-0.58-1.57-1.74-0.52
			c-5.69,5.23-10.98,8.92-15.85,11.06c-4.88,2.15-9.99,3.22-15.33,3.22c-8.01,0-14.58-2.47-19.69-7.4
			c-5.11-4.94-7.67-11.47-7.67-19.6v-63.94c0-2.09,1.05-3.14,3.14-3.14h12.72c1.74,0,2.61,0.93,2.61,2.79v60.46
			c0,5.11,1.45,9.21,4.36,12.28c2.9,3.08,6.79,4.62,11.67,4.62C1933.02,617.1,1941.44,612.51,1950.27,603.34z"/>
		<path d="M2019.44,539.74v6.79c0,0.93,0.23,1.39,0.7,1.39c0.23,0,0.75-0.29,1.57-0.87c3.49-3.49,7.17-6.33,11.06-8.54
			c3.89-2.21,9.09-3.31,15.59-3.31c7.2,0,13.62,1.74,19.25,5.23c5.63,3.48,10.08,8.71,13.33,15.68c3.25,6.97,4.88,15.57,4.88,25.79
			c0,10.45-1.63,19.37-4.88,26.74c-3.25,7.38-7.84,12.95-13.76,16.73c-5.92,3.78-12.78,5.66-20.56,5.66
			c-9.41,0-17.48-2.9-24.22-8.71c-0.93-0.81-1.63-1.22-2.09-1.22c-0.58,0-0.87,0.76-0.87,2.26v32.23c0,1.62-0.7,2.44-2.09,2.44
			h-14.11c-1.51,0-2.26-0.81-2.26-2.44V540.09c0-1.16,0.26-1.97,0.78-2.44c0.52-0.46,1.36-0.7,2.53-0.7h12.2
			C2018.45,536.95,2019.44,537.88,2019.44,539.74z M2029.63,615.79c3.42,1.8,7.17,2.7,11.24,2.7c8.01,0,14.37-3.11,19.08-9.32
			c4.7-6.21,7.06-15.3,7.06-27.27c0-11.61-2.33-20.21-6.97-25.79c-4.65-5.58-10.75-8.36-18.29-8.36c-4.18,0-7.99,0.9-11.41,2.7
			c-3.43,1.8-6.1,4.12-8.01,6.97c-1.92,2.85-2.88,5.66-2.88,8.45v41.99C2022.8,611.35,2026.2,613.99,2029.63,615.79z"/>
	</g>
</g>
</svg>
