<?xml version="1.0" encoding="utf-8"?>
<!-- Generator: Adobe Illustrator 24.1.3, SVG Export Plug-In . SVG Version: 6.00 Build 0)  -->
<svg version="1.1" id="Layer_1" xmlns="http://www.w3.org/2000/svg" xmlns:xlink="http://www.w3.org/1999/xlink" x="0px" y="0px"
	 viewBox="0 0 2174.75 1861.42" style="enable-background:new 0 0 2174.75 1861.42;" xml:space="preserve">
<style type="text/css">
	.st0{fill-rule:evenodd;clip-rule:evenodd;}
	.st1{fill-rule:evenodd;clip-rule:evenodd;fill:url(#SVGID_1_);}
	.st2{fill-rule:evenodd;clip-rule:evenodd;fill:url(#SVGID_2_);}
	.st3{fill-rule:evenodd;clip-rule:evenodd;fill:url(#SVGID_3_);}
	.st4{fill-rule:evenodd;clip-rule:evenodd;fill:url(#SVGID_4_);}
</style>
<g>
	<g>
		<g>
			<path class="st0" d="M87.37,1271.55h33.97v43.96c9.73-14.99,23.72-27.07,41.85-36.2c18.07-9.08,37.38-13.66,57.86-13.66
				c40.55,0,74.08,13.49,100.65,40.47c26.54,27.03,39.88,60.59,39.88,100.71c0,39.23-13.16,72.35-39.38,99.41
				c-26.3,27.04-59.1,40.61-98.39,40.61c-21.83,0-41.46-4.17-58.86-12.58c-17.4-8.32-31.88-20.63-43.61-36.88v18.48v39.97v70.91
				H87.37V1271.55L87.37,1271.55z M121.34,1403.91c0,30.56,10.05,56.69,30.3,78.43c20.13,21.72,43.85,32.53,71.23,32.53
				c27.97,0,52.13-10.32,72.35-30.89c20.22-20.54,30.38-45.78,30.38-75.67c0-31.21-10.08-57.42-30.3-78.73
				c-20.16-21.3-44.7-31.97-73.67-31.97c-26.39,0-49.69,10.67-69.94,32.06C131.48,1351.07,121.34,1375.79,121.34,1403.91z"/>
			<path class="st0" d="M438.86,1405.32c0,30.09,9.58,55.28,28.68,75.79c19.19,20.48,43.2,30.71,71.88,30.71
				c28.3,0,51.96-10.14,70.97-30.56c18.95-20.39,28.47-45.84,28.47-76.34c0-30.97-9.61-56.42-28.86-76.34
				c-19.19-19.9-43.76-29.92-73.67-29.92c-26.51,0-49.43,10.25-68.62,30.74C448.44,1349.87,438.86,1375.17,438.86,1405.32
				L438.86,1405.32z M403.74,1405.97c0-38.44,13.16-71.29,39.49-98.53c26.36-27.33,57.57-40.96,93.6-40.96
				c37.79,0,70.06,13.4,96.89,40.23c26.83,26.83,40.26,58.77,40.26,95.95c0,39.03-13.08,72.35-39.26,100
				c-26.18,27.57-57.98,41.38-95.3,41.38c-37.88,0-70-13.49-96.27-40.58C416.91,1476.38,403.74,1443.85,403.74,1405.97z"/>
			<path class="st0" d="M751.89,1539.85h-34.47v-268.3h32.47v30.98c8.14-11.49,17.31-20.22,27.53-26.07
				c5-2.82,10.49-4.99,16.49-6.49c5.91-1.56,12.17-2.32,18.66-2.32l0.23,37.29c-21.63,2-37.2,8.41-46.7,19.31
				c-9.49,10.9-14.22,28.8-14.22,53.63V1539.85z"/>
			<polygon class="st0" points="901.58,1539.85 901.58,1306.11 850.62,1306.11 850.62,1271.64 901.58,1271.64 901.58,1184.75 
				936.02,1184.75 936.02,1271.64 986.98,1271.64 986.98,1306.11 936.02,1306.11 936.02,1539.85 			"/>
		</g>
		<path class="st0" d="M1195.82,1383.4l-47.22,156.5h-35.5l-92.94-268.33l63.04,0.1l47.57,153.02l46.73-153.21l37.98,0.21
			l46.49,152.8l47.78-152.82l62.57-0.1l-93.43,268.33h-35.41L1195.82,1383.4L1195.82,1383.4z M1382.94,1405.97
			c0-18.14,3.01-35.9,9.46-52.86c6.47-17.01,16.34-32.15,28.86-45.34c12.85-13.56,27.89-24.44,44.83-32.32
			c16.79-7.81,34.52-11.94,53.06-11.94c18.65,0,37,3.15,54.25,10.33c17.12,7.13,32.17,17.85,45.1,31.1
			c12.86,13.19,22.99,28.37,30.1,45.37c7.01,16.72,10.73,34.29,10.73,52.43c0,18.39-3.22,36.37-9.68,53.55
			c-6.32,16.79-15.64,31.99-27.76,45.2c-6.51,7.1-13.69,13.63-21.47,19.31c-7.67,5.61-15.83,10.6-24.56,14.71
			c-17.2,7.72-35.32,11.5-54.17,11.5c-18.7,0-37.07-3.24-54.29-10.59c-17-7.25-31.97-17.96-44.64-31.39
			c-12.54-13.27-22.22-28.68-29.4-45.72c-3.27-8.53-5.94-17.35-7.75-26.3C1383.82,1424.13,1382.94,1415.06,1382.94,1405.97
			L1382.94,1405.97z M1443.77,1405.5c0,22.63,6.74,42.7,22.38,59.18c15.08,15.9,33.65,23.4,55.54,23.4
			c21.69,0,39.84-7.72,54.62-23.59c15.5-16.65,22.19-36.81,22.19-59.47c0-22.58-6.39-42.96-22.14-59.49
			c-14.97-15.71-33.4-23.1-55.07-23.1c-21.73,0-39.93,7.86-54.92,23.57C1450.58,1362.57,1443.77,1382.71,1443.77,1405.5
			L1443.77,1405.5z M1754.48,1288.94c4.78-4.74,10.11-8.91,16.07-12.3c11.53-6.54,24.28-9.34,37.48-9.34h6.68v61.3h-6.68
			c-7.97,0-15.9,1.25-23.27,4.37c-6.28,2.67-11.77,6.38-16.18,11.61c-9.94,11.78-11.72,31.95-11.72,46.66v148.64h-58.93V1271.5
			h56.55V1288.94L1754.48,1288.94z M1965.43,1449.36l-57.94,90.62l-66.91-0.1l90.65-139.13l-80.38-129.15l67.19-0.1
			c169.34,268.42,0,0,169.34,268.42l-66.84-0.1L1965.43,1449.36z"/>
		<radialGradient id="SVGID_1_" cx="2033.7686" cy="1328.2231" r="54.9634" gradientUnits="userSpaceOnUse">
			<stop  offset="0" style="stop-color:#414042"/>
			<stop  offset="1" style="stop-color:#000000"/>
		</radialGradient>
		<polygon class="st1" points="1980.54,1334.67 2013.37,1384.87 2087,1271.58 2017.72,1271.58 		"/>
		<linearGradient id="SVGID_2_" gradientUnits="userSpaceOnUse" x1="821.9921" y1="588.3162" x2="1378.6384" y2="588.3162">
			<stop  offset="0" style="stop-color:#4F4F51"/>
			<stop  offset="0.0948" style="stop-color:#4A4B4C"/>
			<stop  offset="0.6619" style="stop-color:#212122"/>
			<stop  offset="1" style="stop-color:#000000"/>
		</linearGradient>
		<polygon class="st2" points="821.99,932.06 1102.66,746.03 1378.64,563.11 1138.35,403.84 1378.64,563.11 1378.64,244.57 
			1138.35,403.84 821.99,613.53 		"/>
		<linearGradient id="SVGID_3_" gradientUnits="userSpaceOnUse" x1="824.196" y1="220.0948" x2="1378.6357" y2="220.0948">
			<stop  offset="0" style="stop-color:#000000"/>
			<stop  offset="0.2979" style="stop-color:#141414"/>
			<stop  offset="0.6541" style="stop-color:#373638"/>
			<stop  offset="1" style="stop-color:#4F4F51"/>
		</linearGradient>
		<polygon class="st3" points="1138.35,403.84 1378.64,244.57 1064.88,36.61 1064.48,36.35 824.2,195.62 825.18,196.26 		"/>
		<linearGradient id="SVGID_4_" gradientUnits="userSpaceOnUse" x1="961.5085" y1="1065.6466" x2="961.5085" y2="747.1132">
			<stop  offset="0" style="stop-color:#4F4F51"/>
			<stop  offset="0.2498" style="stop-color:#424243"/>
			<stop  offset="0.6956" style="stop-color:#1A1A1B"/>
			<stop  offset="1" style="stop-color:#000000"/>
		</linearGradient>
		<polygon class="st4" points="1101.02,1065.65 821.99,932.06 1101.02,747.11 		"/>
	</g>
	<g>
		<path d="M847.62,1658.9v9.54c0,1.31,0.33,1.96,0.98,1.96c0.32,0,1.06-0.41,2.2-1.22c4.89-4.9,10.07-8.89,15.54-11.99
			c5.46-3.1,12.76-4.65,21.9-4.65c10.11,0,19.13,2.45,27.04,7.34c7.91,4.89,14.15,12.24,18.72,22.03
			c4.57,9.79,6.85,21.87,6.85,36.22c0,14.68-2.29,27.21-6.85,37.56c-4.57,10.36-11.01,18.19-19.33,23.49
			c-8.32,5.3-17.95,7.95-28.88,7.95c-13.22,0-24.56-4.08-34.02-12.24c-1.31-1.14-2.29-1.71-2.94-1.71c-0.82,0-1.22,1.06-1.22,3.18
			v45.27c0,2.28-0.98,3.43-2.94,3.43h-19.82c-2.12,0-3.18-1.14-3.18-3.43v-162.25c0-1.63,0.37-2.77,1.1-3.43
			c0.73-0.65,1.92-0.98,3.55-0.98h17.13C846.23,1654.99,847.62,1656.3,847.62,1658.9z M861.93,1765.73
			c4.81,2.53,10.07,3.79,15.79,3.79c11.26,0,20.19-4.36,26.8-13.09c6.61-8.73,9.91-21.49,9.91-38.3c0-16.31-3.27-28.39-9.79-36.22
			c-6.53-7.83-15.09-11.75-25.7-11.75c-5.87,0-11.22,1.27-16.03,3.79c-4.81,2.53-8.57,5.79-11.26,9.79c-2.69,4-4.04,7.95-4.04,11.87
			v58.98C852.35,1759.49,857.12,1763.2,861.93,1765.73z"/>
		<path d="M1086.96,1782.98c0,1.14-1.14,1.71-3.42,1.71H1062c-2.77,0-4.81-0.89-6.12-2.69l-31.57-43.81c-0.98-1.47-1.8-2.2-2.45-2.2
			c-0.33,0-1.14,0.74-2.45,2.2L986.62,1782c-0.98,1.8-2.94,2.69-5.87,2.69h-14.19c-2.78,0-4.16-0.81-4.16-2.45
			c0-1.3,0.65-2.85,1.96-4.65l43.32-55.06c0.81-1.3,1.22-2.28,1.22-2.94c0-0.98-0.49-2.04-1.47-3.18l-41.6-56.53
			c-0.49-0.81-0.73-1.47-0.73-1.96c0-1.96,1.14-2.94,3.43-2.94h20.31c1.47,0,2.61,0.21,3.43,0.61c0.81,0.41,1.63,1.1,2.45,2.08
			l29.86,40.87c0.65,0.98,1.3,1.47,1.96,1.47c0.65,0,1.22-0.49,1.71-1.47l28.88-40.87c0.65-0.98,1.39-1.67,2.2-2.08
			c0.81-0.41,2.04-0.61,3.67-0.61h15.66c1.96,0,2.94,0.65,2.94,1.96c0,0.49-0.33,1.22-0.98,2.2l-39.89,53.35
			c-0.82,0.98-1.22,1.96-1.22,2.94c0,0.82,0.4,1.88,1.22,3.18l44.05,59.96C1086.23,1780.53,1086.96,1782,1086.96,1782.98z"/>
		<path d="M1169.19,1725.96c0,2.61-1.63,3.91-4.89,3.91h-56.29c-1.31,0-2.24-0.24-2.81-0.73c-0.57-0.49-0.86-1.38-0.86-2.69v-12.97
			c0-2.28,0.89-3.43,2.69-3.43h59.22c1.96,0,2.94,0.9,2.94,2.69V1725.96z"/>
		<path d="M1215.93,1784.69c-1.63,0-2.78-0.33-3.43-0.98c-0.65-0.65-0.98-1.79-0.98-3.43v-173.51c0-2.45,1.14-3.67,3.43-3.67h19.58
			c1.96,0,2.94,1.22,2.94,3.67V1666c0,1.8,0.41,2.69,1.22,2.69c0.65,0,1.55-0.41,2.69-1.22c10.44-9.95,22.92-14.93,37.44-14.93
			c16.97,0,29.9,6.12,38.79,18.35c8.89,12.24,13.34,28.31,13.34,48.21c0,21.05-4.9,37.65-14.68,49.8
			c-9.79,12.16-23.49,18.23-41.11,18.23c-9.3,0-17.25-1.96-23.86-5.87c-6.61-3.91-11.79-8.4-15.54-13.46
			c-0.82-0.81-1.39-1.22-1.71-1.22c-0.33,0-0.65,0.65-0.98,1.96l-1.96,11.99c-0.33,1.47-0.82,2.53-1.47,3.18
			c-0.65,0.65-1.8,0.98-3.43,0.98H1215.93z M1237.47,1740.64c0,5.38,1.51,10.32,4.53,14.81c3.02,4.49,6.97,8,11.87,10.52
			c4.89,2.53,10.03,3.79,15.42,3.79c10.6,0,19.09-4.16,25.45-12.48c6.36-8.32,9.54-20.88,9.54-37.69c0-15.99-2.9-28.18-8.69-36.59
			c-5.79-8.4-14.15-12.6-25.08-12.6c-6.53,0-12.6,1.51-18.23,4.53c-5.63,3.02-10.56,6.98-14.81,11.87V1740.64z"/>
		<path d="M1402.17,1787.14c-12.56,0-22.48-3.22-29.73-9.67c-7.26-6.44-10.89-15.05-10.89-25.82c0-13.22,5.75-23.74,17.25-31.57
			c11.5-7.83,27.86-12.24,49.07-13.22l15.91-1.22c2.61-0.33,3.92-1.55,3.92-3.67v-6.12c0-7.99-2.45-14.32-7.34-18.97
			c-4.89-4.65-11.59-6.97-20.07-6.97c-13.38,0-24.07,6.04-32.06,18.11c-0.49,0.98-1.02,1.59-1.59,1.84
			c-0.57,0.25-1.43,0.21-2.57-0.12l-16.64-4.89c-0.98-0.33-1.47-0.98-1.47-1.96c0-0.65,0.25-1.55,0.73-2.69
			c4.57-8.81,11.54-15.62,20.92-20.43c9.38-4.81,20.68-7.22,33.9-7.22c17.13,0,29.94,3.67,38.42,11.01
			c8.48,7.34,12.73,17.54,12.73,30.59v86.39c0,1.63-0.29,2.73-0.86,3.3c-0.57,0.57-1.51,0.86-2.81,0.86h-16.4
			c-2.29,0-3.59-1.63-3.91-4.89l-0.49-9.3c-0.33-1.3-0.82-1.96-1.47-1.96c-0.49,0-1.39,0.49-2.69,1.47
			C1432.1,1781.43,1418.15,1787.14,1402.17,1787.14z M1444.26,1720.09l-13.22,0.98c-13.54,0.82-24.27,3.55-32.18,8.2
			c-7.91,4.65-11.87,11.05-11.87,19.21c0,6.36,2.28,11.38,6.85,15.05c4.57,3.67,10.68,5.51,18.35,5.51c8.81,0,17.13-3.02,24.96-9.05
			c7.01-5.71,10.52-11.42,10.52-17.13v-19.09C1447.68,1721.15,1446.54,1719.93,1444.26,1720.09z"/>
		<path d="M1603.82,1661.6c8.81,6.04,15.42,13.87,19.82,23.49c0.33,0.65,0.49,1.39,0.49,2.2c0,0.98-0.73,1.63-2.2,1.96l-17.38,2.94
			h-0.73c-0.98,0-1.8-0.65-2.45-1.96c-4.57-6.69-8.98-11.63-13.22-14.81c-4.25-3.18-9.38-4.77-15.42-4.77
			c-11.42,0-20.48,4.33-27.17,12.97c-6.69,8.65-10.03,20.72-10.03,36.22c0,15.66,3.43,27.82,10.28,36.46
			c6.85,8.65,16.15,12.97,27.9,12.97c7.34,0,13.66-1.87,18.97-5.63c5.3-3.75,10.24-9.38,14.81-16.89c0.49-0.65,0.98-1.06,1.47-1.22
			c0.49-0.16,1.14-0.08,1.96,0.25l12.97,3.91c1.47,0.49,1.79,1.71,0.98,3.67c-4.57,9.63-11.3,17.66-20.19,24.11
			c-8.89,6.45-19.94,9.67-33.16,9.67c-12.08,0-22.84-2.81-32.3-8.44c-9.46-5.63-16.85-13.5-22.15-23.62
			c-5.3-10.11-7.95-21.7-7.95-34.75c0-13.05,2.69-24.72,8.08-35c5.38-10.28,12.81-18.31,22.27-24.11
			c9.46-5.79,20.15-8.69,32.06-8.69C1584.24,1652.54,1595.01,1655.56,1603.82,1661.6z"/>
		<path d="M1778.31,1782.25c0,1.63-1.06,2.45-3.18,2.45h-21.78c-2.29,0-3.91-1.22-4.89-3.67l-33.53-59.22
			c-0.49-0.98-0.98-1.47-1.47-1.47c-0.49,0-1.06,0.33-1.71,0.98l-23.25,23.25c-1.31,1.14-1.96,2.86-1.96,5.14v30.35
			c0,1.8-0.37,3.02-1.1,3.67c-0.74,0.65-2,0.98-3.79,0.98h-16.89c-1.63,0-2.73-0.28-3.3-0.86c-0.57-0.57-0.86-1.59-0.86-3.06v-174
			c0-2.45,1.06-3.67,3.18-3.67h19.58c2.12,0,3.18,1.22,3.18,3.67v109.39c0,1.47,0.32,2.2,0.98,2.2c0.33,0,0.89-0.41,1.71-1.22
			l55.8-58.98c2.12-2.12,4-3.18,5.63-3.18h18.35c2.28,0,3.43,0.65,3.43,1.96c0,0.98-0.57,2.04-1.71,3.18l-37.2,37.93
			c-0.82,0.82-1.22,1.63-1.22,2.45c0,0.49,0.25,1.39,0.73,2.69l44.79,76.84C1778.14,1780.53,1778.31,1781.27,1778.31,1782.25z"/>
		<path d="M1894.8,1748.23v-89.08c0-2.77,1.55-4.16,4.65-4.16h17.62c2.61,0,3.92,1.31,3.92,3.91l-0.49,122.36
			c0,2.29-0.98,3.43-2.94,3.43h-19.09c-1.96,0-2.94-1.06-2.94-3.18v-13.7c0-1.96-0.82-2.2-2.45-0.74
			c-8,7.34-15.42,12.52-22.27,15.54c-6.85,3.02-14.03,4.53-21.54,4.53c-11.26,0-20.48-3.46-27.66-10.4
			c-7.18-6.93-10.77-16.11-10.77-27.53v-89.82c0-2.94,1.47-4.4,4.41-4.4h17.87c2.45,0,3.67,1.31,3.67,3.91v84.92
			c0,7.18,2.04,12.93,6.12,17.25c4.08,4.33,9.54,6.49,16.4,6.49C1870.57,1767.56,1882.39,1761.12,1894.8,1748.23z"/>
		<path d="M1991.95,1658.9v9.54c0,1.31,0.33,1.96,0.98,1.96c0.33,0,1.06-0.41,2.2-1.22c4.9-4.9,10.07-8.89,15.54-11.99
			c5.46-3.1,12.77-4.65,21.9-4.65c10.11,0,19.13,2.45,27.04,7.34c7.91,4.89,14.15,12.24,18.72,22.03
			c4.57,9.79,6.85,21.87,6.85,36.22c0,14.68-2.29,27.21-6.85,37.56c-4.57,10.36-11.01,18.19-19.33,23.49
			c-8.32,5.3-17.95,7.95-28.88,7.95c-13.22,0-24.56-4.08-34.02-12.24c-1.31-1.14-2.29-1.71-2.94-1.71c-0.82,0-1.22,1.06-1.22,3.18
			v45.27c0,2.28-0.98,3.43-2.94,3.43h-19.82c-2.12,0-3.18-1.14-3.18-3.43v-162.25c0-1.63,0.37-2.77,1.1-3.43
			c0.73-0.65,1.91-0.98,3.55-0.98h17.13C1990.56,1654.99,1991.95,1656.3,1991.95,1658.9z M2006.27,1765.73
			c4.81,2.53,10.07,3.79,15.79,3.79c11.26,0,20.19-4.36,26.8-13.09c6.61-8.73,9.91-21.49,9.91-38.3c0-16.31-3.27-28.39-9.79-36.22
			c-6.53-7.83-15.09-11.75-25.7-11.75c-5.87,0-11.22,1.27-16.03,3.79c-4.81,2.53-8.57,5.79-11.26,9.79c-2.69,4-4.04,7.95-4.04,11.87
			v58.98C1996.68,1759.49,2001.45,1763.2,2006.27,1765.73z"/>
	</g>
</g>
</svg>
