<?xml version="1.0" encoding="utf-8"?>
<!-- Generator: Adobe Illustrator 24.1.3, SVG Export Plug-In . SVG Version: 6.00 Build 0)  -->
<svg version="1.1" id="Layer_1" xmlns="http://www.w3.org/2000/svg" xmlns:xlink="http://www.w3.org/1999/xlink" x="0px" y="0px"
	 viewBox="0 0 2174.75 818.82" style="enable-background:new 0 0 2174.75 818.82;" xml:space="preserve">
<style type="text/css">
	.st0{fill:#FFFFFF;}
	.st1{fill-rule:evenodd;clip-rule:evenodd;fill:#FFFFFF;}
	.st2{fill-rule:evenodd;clip-rule:evenodd;fill:url(#SVGID_1_);}
	.st3{fill-rule:evenodd;clip-rule:evenodd;fill:url(#SVGID_2_);}
	.st4{fill-rule:evenodd;clip-rule:evenodd;fill:url(#SVGID_3_);}
</style>
<g>
	<g>
		<g>
			<path class="st0" d="M1265.08,541.06c-6.51-3.77-14.05-5.66-22.65-5.66c-8.36,0-15.94,2-22.74,6.01s-12.16,9.73-16.11,17.17
				c-3.96,7.44-5.93,16.03-5.93,25.78c0,9.06,1.92,17.16,5.75,24.3c3.84,7.14,9.18,12.68,16.03,16.63
				c6.86,3.96,14.64,5.93,23.35,5.93c8.94,0,16.55-1.6,22.82-4.79c6.27-3.2,11.84-8.4,16.72-15.59c0.35-0.59,0.52-1.05,0.52-1.4
				c0-0.58-0.29-1.05-0.87-1.4l-8.89-4.19c-0.35-0.23-0.81-0.35-1.4-0.35c-0.46,0-0.87,0.24-1.22,0.7
				c-3.49,4.65-7.32,8.08-11.5,10.28c-4.18,2.2-8.94,3.31-14.28,3.31c-5.11,0-9.82-1.25-14.11-3.74c-4.3-2.5-7.7-5.87-10.19-10.11
				c-2.5-4.24-3.74-8.97-3.74-14.2c0-1.86,0.58-2.79,1.74-2.79h64.46c1.16,0,1.89-0.26,2.18-0.78c0.29-0.53,0.43-1.31,0.43-2.36
				v-0.7c0-9.87-1.77-18.41-5.31-25.61C1276.6,550.32,1271.58,544.83,1265.08,541.06z M1266.56,575.47
				c-0.41,0.35-1.19,0.53-2.35,0.53l-47.21-0.18c-0.12-4.99,0.89-9.6,3.05-13.85c2.15-4.24,5.2-7.66,9.15-10.28
				c3.95-2.62,8.54-3.92,13.76-3.92c4.99,0,9.32,1.19,12.98,3.57c3.66,2.38,6.45,5.55,8.36,9.49c1.91,3.95,2.88,8.18,2.88,12.72
				C1267.17,574.48,1266.96,575.12,1266.56,575.47z"/>
			<path class="st0" d="M1358.81,578.08l-21.43-6.09c-4.88-1.4-8.25-3.02-10.11-4.88c-1.85-1.85-2.79-3.95-2.79-6.27
				c0-4.07,1.86-7.29,5.58-9.67c3.72-2.37,8.47-3.57,14.28-3.57c5.23,0,9.82,1.02,13.76,3.05s7.15,4.73,9.58,8.1
				c0.59,0.59,1.22,0.88,1.92,0.88c0.46,0,0.81-0.06,1.05-0.18l9.06-4.7c0.58-0.35,0.87-0.76,0.87-1.22c0-0.47-0.24-1.05-0.7-1.74
				c-3.14-4.88-7.84-8.83-14.11-11.85c-6.27-3.02-13.36-4.53-21.25-4.53c-7.32,0-13.74,1.19-19.25,3.57
				c-5.52,2.38-9.82,5.69-12.9,9.93c-3.08,4.24-4.62,9.14-4.62,14.73c0,6.15,1.97,11.26,5.93,15.33c3.95,4.07,10.22,7.14,18.81,9.23
				l17.77,4.53c5.46,1.4,9.38,3.11,11.77,5.14c2.38,2.03,3.57,4.5,3.57,7.4c0,4.07-2.09,7.29-6.28,9.67
				c-4.18,2.38-9.47,3.57-15.85,3.57c-12.08,0-21.2-4.64-27.36-13.94c-0.35-0.46-0.81-0.7-1.39-0.7c-0.47,0-1.05,0.18-1.74,0.53
				l-8.54,4.53c-0.58,0.35-0.87,0.88-0.87,1.57c0,0.46,0.17,0.99,0.52,1.57c3.02,5.69,8.07,10.31,15.16,13.85
				c7.09,3.55,15.27,5.32,24.57,5.32c7.43,0,14.11-1.17,20.03-3.49c5.92-2.32,10.54-5.6,13.85-9.84c3.31-4.24,4.97-9.14,4.97-14.72
				c0-5.93-1.95-11.07-5.84-15.42C1372.94,583.4,1366.93,580.17,1358.81,578.08z"/>
			<path class="st0" d="M1456.89,578.08l-21.43-6.09c-4.88-1.4-8.25-3.02-10.11-4.88c-1.85-1.85-2.79-3.95-2.79-6.27
				c0-4.07,1.86-7.29,5.58-9.67c3.72-2.37,8.47-3.57,14.28-3.57c5.23,0,9.82,1.02,13.76,3.05c3.95,2.03,7.15,4.73,9.58,8.1
				c0.59,0.59,1.22,0.88,1.92,0.88c0.46,0,0.81-0.06,1.05-0.18l9.06-4.7c0.58-0.35,0.87-0.76,0.87-1.22c0-0.47-0.24-1.05-0.7-1.74
				c-3.14-4.88-7.84-8.83-14.11-11.85c-6.27-3.02-13.36-4.53-21.25-4.53c-7.32,0-13.74,1.19-19.25,3.57
				c-5.52,2.38-9.82,5.69-12.9,9.93c-3.08,4.24-4.62,9.14-4.62,14.73c0,6.15,1.97,11.26,5.93,15.33c3.95,4.07,10.22,7.14,18.81,9.23
				l17.77,4.53c5.46,1.4,9.38,3.11,11.77,5.14s3.57,4.5,3.57,7.4c0,4.07-2.09,7.29-6.28,9.67c-4.18,2.38-9.47,3.57-15.85,3.57
				c-12.08,0-21.2-4.64-27.36-13.94c-0.35-0.46-0.81-0.7-1.39-0.7c-0.47,0-1.05,0.18-1.74,0.53l-8.54,4.53
				c-0.58,0.35-0.87,0.88-0.87,1.57c0,0.46,0.17,0.99,0.52,1.57c3.02,5.69,8.07,10.31,15.16,13.85c7.09,3.55,15.27,5.32,24.57,5.32
				c7.43,0,14.11-1.17,20.03-3.49c5.92-2.32,10.54-5.6,13.85-9.84c3.31-4.24,4.97-9.14,4.97-14.72c0-5.93-1.95-11.07-5.84-15.42
				C1471.03,583.4,1465.01,580.17,1456.89,578.08z"/>
			<path class="st0" d="M1570.48,541.06c-6.51-3.77-14.05-5.66-22.65-5.66c-8.36,0-15.94,2-22.73,6.01
				c-6.8,4.01-12.17,9.73-16.12,17.17c-3.95,7.44-5.92,16.03-5.92,25.78c0,9.06,1.91,17.16,5.75,24.3
				c3.83,7.14,9.17,12.68,16.03,16.63c6.85,3.96,14.63,5.93,23.34,5.93c8.94,0,16.55-1.6,22.82-4.79c6.27-3.2,11.85-8.4,16.72-15.59
				c0.35-0.59,0.53-1.05,0.53-1.4c0-0.58-0.3-1.05-0.88-1.4l-8.88-4.19c-0.35-0.23-0.82-0.35-1.4-0.35c-0.47,0-0.87,0.24-1.22,0.7
				c-3.49,4.65-7.32,8.08-11.5,10.28c-4.19,2.2-8.95,3.31-14.28,3.31c-5.11,0-9.82-1.25-14.11-3.74c-4.3-2.5-7.7-5.87-10.19-10.11
				c-2.5-4.24-3.75-8.97-3.75-14.2c0-1.86,0.58-2.79,1.74-2.79h64.47c1.16,0,1.88-0.26,2.18-0.78c0.29-0.53,0.43-1.31,0.43-2.36
				v-0.7c0-9.87-1.77-18.41-5.32-25.61C1582.01,550.32,1576.98,544.83,1570.48,541.06z M1571.96,575.47
				c-0.41,0.35-1.19,0.53-2.36,0.53l-47.21-0.18c-0.12-4.99,0.9-9.6,3.05-13.85c2.14-4.24,5.19-7.66,9.14-10.28
				c3.95-2.62,8.53-3.92,13.76-3.92c4.99,0,9.32,1.19,12.97,3.57c3.67,2.38,6.45,5.55,8.37,9.49c1.91,3.95,2.87,8.18,2.87,12.72
				C1572.57,574.48,1572.36,575.12,1571.96,575.47z"/>
			<path class="st0" d="M1668.22,535.4c-5.46,0-10.51,1.13-15.16,3.39s-9.99,5.84-16.03,10.72c-0.58,0.58-1.02,0.81-1.31,0.7
				c-0.29-0.12-0.43-0.53-0.43-1.23v-9.58c0-1.51-0.7-2.26-2.08-2.26h-13.76c-1.51,0-2.27,0.87-2.27,2.61v86.93
				c0,1.86,0.93,2.79,2.79,2.79h12.37c1.16,0,2.01-0.23,2.53-0.7c0.53-0.46,0.78-1.22,0.78-2.26V562.4
				c5.11-4.64,9.55-7.98,13.33-10.01c3.77-2.03,7.87-3.05,12.28-3.05c5.45,0,9.55,1.43,12.28,4.27c2.72,2.85,4.09,6.88,4.09,12.11
				v60.98c0,1.86,0.87,2.79,2.61,2.79h12.9c1.97,0,2.96-1.05,2.96-3.14v-64.29c0-8.12-2.47-14.61-7.41-19.42
				C1683.75,537.81,1676.93,535.4,1668.22,535.4z"/>
			<path class="st0" d="M1777.63,537.14h-20.91c-1.04,0-1.57-0.53-1.57-1.57v-27c0-1.85-0.76-2.79-2.26-2.79h-12.02
				c-1.17,0-1.86,0.82-2.09,2.44l-2.09,27.35c0,1.05-0.46,1.57-1.4,1.57h-13.93c-1.4,0-2.09,0.64-2.09,1.91v9.23
				c0,1.4,0.76,2.09,2.27,2.09h13.07c1.16,0,1.74,0.7,1.74,2.09v55.23c0,7.44,1.86,12.92,5.58,16.46c3.71,3.55,9.41,5.32,17.07,5.32
				c8.12,0,14.05-0.29,17.77-0.87c1.74-0.35,2.61-1.34,2.61-2.97v-7.49c0-1.4-0.7-2.09-2.09-2.09h-11.15
				c-3.95,0-6.82-0.93-8.62-2.79c-1.8-1.85-2.71-5.22-2.71-10.1v-51.05c0-1.16,0.53-1.74,1.57-1.74h20.9c1.62,0,2.44-0.7,2.44-2.09
				v-9.23C1779.72,537.78,1779.02,537.14,1777.63,537.14z"/>
			<path class="st0" d="M1821.7,500.21h-14.45c-1.74,0-2.62,0.99-2.62,2.96v15.86c0,1.16,0.24,2,0.7,2.53
				c0.47,0.52,1.28,0.78,2.44,0.78h12.9c1.28,0,2.18-0.29,2.7-0.88c0.52-0.58,0.78-1.51,0.78-2.78V503c0-0.82-0.23-1.49-0.7-2.01
				C1822.99,500.47,1822.4,500.21,1821.7,500.21z"/>
			<path class="st0" d="M1821.53,537.14h-13.93c-0.94,0-1.57,0.2-1.92,0.6c-0.35,0.41-0.52,1.08-0.52,2.01v86.93
				c0,1.05,0.23,1.78,0.7,2.18c0.46,0.41,1.28,0.61,2.43,0.61h11.85c1.28,0,2.18-0.23,2.71-0.7c0.52-0.46,0.78-1.34,0.78-2.61
				v-86.59C1823.62,537.95,1822.93,537.14,1821.53,537.14z"/>
			<path class="st0" d="M1892.79,535.4c-9.41,0-17.45,1.71-24.13,5.14c-6.69,3.43-11.65,8.28-14.9,14.55
				c-0.35,0.82-0.53,1.45-0.53,1.91c0,0.7,0.35,1.17,1.05,1.4l11.85,3.49c0.81,0.23,1.42,0.26,1.83,0.09
				c0.4-0.17,0.78-0.61,1.13-1.31c5.69-8.59,13.3-12.89,22.82-12.89c6.03,0,10.8,1.65,14.28,4.97c3.49,3.31,5.22,7.81,5.22,13.5
				v4.36c0,1.51-0.93,2.38-2.78,2.61l-11.32,0.87c-15.1,0.7-26.75,3.84-34.94,9.41c-8.18,5.58-12.28,13.07-12.28,22.48
				c0,7.66,2.58,13.8,7.75,18.38c5.16,4.59,12.22,6.88,21.17,6.88c11.38,0,21.31-4.07,29.79-12.2c0.93-0.7,1.57-1.05,1.92-1.05
				c0.46,0,0.81,0.47,1.04,1.4l0.35,6.62c0.24,2.33,1.17,3.49,2.79,3.49h11.67c0.93,0,1.6-0.2,2.01-0.61c0.4-0.4,0.6-1.19,0.6-2.35
				v-61.51c0-9.29-3.02-16.55-9.06-21.78C1914.1,538.01,1904.98,535.4,1892.79,535.4z M1911.42,599.69c0,4.07-2.49,8.13-7.49,12.2
				c-5.58,4.3-11.5,6.44-17.77,6.44c-5.46,0-9.82-1.3-13.07-3.92c-3.26-2.61-4.88-6.18-4.88-10.71c0-5.81,2.82-10.37,8.46-13.68
				c5.63-3.31,13.26-5.25,22.91-5.84l9.41-0.7c1.62-0.11,2.43,0.76,2.43,2.61V599.69z"/>
			<path class="st0" d="M1976.41,500.21h-13.76c-1.51,0-2.27,0.87-2.27,2.61l-0.35,123.87c0,1.05,0.24,1.78,0.7,2.18
				c0.47,0.41,1.28,0.61,2.44,0.61h11.85c1.39,0,2.35-0.23,2.88-0.7c0.52-0.46,0.78-1.34,0.78-2.61V502.82
				C1978.68,501.07,1977.92,500.21,1976.41,500.21z"/>
			<path class="st0" d="M2076.15,587.75c-3.9-4.36-9.91-7.58-18.03-9.67l-21.43-6.09c-4.88-1.4-8.25-3.02-10.11-4.88
				c-1.85-1.85-2.79-3.95-2.79-6.27c0-4.07,1.86-7.29,5.58-9.67c3.72-2.37,8.47-3.57,14.28-3.57c5.23,0,9.82,1.02,13.76,3.05
				s7.15,4.73,9.58,8.1c0.59,0.59,1.22,0.88,1.92,0.88c0.46,0,0.81-0.06,1.05-0.18l9.06-4.7c0.58-0.35,0.87-0.76,0.87-1.22
				c0-0.47-0.24-1.05-0.7-1.74c-3.14-4.88-7.84-8.83-14.11-11.85c-6.27-3.02-13.36-4.53-21.25-4.53c-7.32,0-13.74,1.19-19.25,3.57
				c-5.52,2.38-9.82,5.69-12.9,9.93c-3.08,4.24-4.62,9.14-4.62,14.73c0,6.15,1.97,11.26,5.93,15.33c3.95,4.07,10.22,7.14,18.81,9.23
				l17.77,4.53c5.46,1.4,9.38,3.11,11.77,5.14c2.38,2.03,3.57,4.5,3.57,7.4c0,4.07-2.09,7.29-6.28,9.67
				c-4.18,2.38-9.47,3.57-15.85,3.57c-12.08,0-21.2-4.64-27.36-13.94c-0.35-0.46-0.81-0.7-1.39-0.7c-0.47,0-1.05,0.18-1.74,0.53
				l-8.54,4.53c-0.58,0.35-0.87,0.88-0.87,1.57c0,0.46,0.17,0.99,0.52,1.57c3.02,5.69,8.07,10.31,15.16,13.85
				c7.09,3.55,15.27,5.32,24.57,5.32c7.43,0,14.11-1.17,20.03-3.49s10.54-5.6,13.85-9.84c3.31-4.24,4.97-9.14,4.97-14.72
				C2081.99,597.25,2080.04,592.11,2076.15,587.75z"/>
		</g>
	</g>
	<g>
		<path class="st1" d="M663.52,256.73h24.18v31.3c6.93-10.67,16.88-19.27,29.79-25.77c12.87-6.46,26.61-9.73,41.19-9.73
			c28.87,0,52.74,9.6,71.65,28.81c18.89,19.25,28.39,43.14,28.39,71.7c0,27.93-9.37,51.51-28.03,70.78
			c-18.73,19.25-42.07,28.91-70.05,28.91c-15.54,0-29.52-2.97-41.9-8.95c-12.39-5.92-22.7-14.69-31.05-26.26v13.16v28.45v50.48
			h-24.18V256.73L663.52,256.73z M687.7,350.95c0,21.76,7.16,40.36,21.57,55.84c14.33,15.46,31.21,23.16,50.71,23.16
			c19.92,0,37.11-7.34,51.51-21.99c14.39-14.62,21.63-32.59,21.63-53.87c0-22.22-7.18-40.88-21.57-56.05
			c-14.35-15.17-31.82-22.76-52.45-22.76c-18.79,0-35.38,7.59-49.79,22.82C694.92,313.34,687.7,330.93,687.7,350.95z"/>
		<path class="st1" d="M913.75,351.96c0,21.42,6.82,39.35,20.42,53.95c13.66,14.58,30.75,21.86,51.17,21.86
			c20.15,0,36.99-7.22,50.53-21.76c13.49-14.52,20.27-32.64,20.27-54.35c0-22.05-6.84-40.17-20.54-54.35
			c-13.66-14.16-31.15-21.3-52.45-21.3c-18.87,0-35.19,7.3-48.85,21.88C920.57,312.48,913.75,330.5,913.75,351.96L913.75,351.96z
			 M888.75,352.42c0-27.36,9.37-50.75,28.12-70.15c18.77-19.46,40.99-29.16,66.63-29.16c26.9,0,49.88,9.54,68.98,28.64
			c19.1,19.1,28.66,41.84,28.66,68.31c0,27.78-9.31,51.51-27.95,71.19c-18.64,19.62-41.28,29.46-67.85,29.46
			c-26.97,0-49.83-9.6-68.54-28.89C898.12,402.55,888.75,379.39,888.75,352.42z"/>
		<path class="st1" d="M1136.6,447.74h-24.54V256.73h23.12v22.05c5.79-8.18,12.32-14.39,19.6-18.56c3.56-2.01,7.47-3.56,11.74-4.62
			c4.2-1.11,8.66-1.65,13.28-1.65l0.17,26.55c-15.4,1.42-26.48,5.99-33.24,13.75c-6.76,7.76-10.12,20.5-10.12,38.18V447.74z"/>
		<polygon class="st1" points="1243.17,447.74 1243.17,281.33 1206.9,281.33 1206.9,256.79 1243.17,256.79 1243.17,194.93 
			1267.69,194.93 1267.69,256.79 1303.97,256.79 1303.97,281.33 1267.69,281.33 1267.69,447.74 		"/>
	</g>
	<path class="st1" d="M1452.65,336.35l-33.61,111.42h-25.28l-66.17-191.03l44.88,0.07l33.86,108.94l33.27-109.07l27.04,0.15
		l33.1,108.78l34.02-108.8l44.55-0.07l-66.52,191.03h-25.21L1452.65,336.35L1452.65,336.35z M1585.87,352.42
		c0-12.92,2.14-25.56,6.73-37.64c4.6-12.11,11.63-22.89,20.55-32.28c9.15-9.65,19.85-17.4,31.92-23.01
		c11.95-5.56,24.58-8.5,37.78-8.5c13.28,0,26.34,2.24,38.62,7.35c12.19,5.07,22.9,12.71,32.11,22.14
		c9.16,9.39,16.37,20.2,21.43,32.3c4.99,11.9,7.64,24.42,7.64,37.33c0,13.09-2.29,25.89-6.89,38.13
		c-4.5,11.95-11.14,22.78-19.76,32.18c-4.64,5.05-9.75,9.7-15.29,13.75c-5.46,3.99-11.27,7.54-17.48,10.48
		c-12.25,5.49-25.14,8.19-38.56,8.19c-13.31,0-26.39-2.3-38.65-7.54c-12.11-5.16-22.76-12.79-31.78-22.35
		c-8.93-9.45-15.82-20.42-20.93-32.55c-2.33-6.08-4.23-12.35-5.51-18.72C1586.49,365.35,1585.87,358.9,1585.87,352.42
		L1585.87,352.42z M1629.18,352.09c0,16.11,4.8,30.4,15.93,42.14c10.74,11.32,23.95,16.66,39.54,16.66
		c15.44,0,28.37-5.49,38.89-16.8c11.04-11.85,15.8-26.21,15.8-42.34c0-16.07-4.55-30.59-15.76-42.36
		c-10.66-11.19-23.78-16.44-39.21-16.44c-15.47,0-28.43,5.6-39.1,16.78C1634.03,321.52,1629.18,335.86,1629.18,352.09
		L1629.18,352.09z M1850.38,269.11c3.4-3.38,7.19-6.34,11.44-8.76c8.21-4.66,17.28-6.65,26.68-6.65h4.75v43.64h-4.75
		c-5.67,0-11.32,0.89-16.56,3.11c-4.47,1.9-8.38,4.54-11.52,8.27c-7.08,8.39-8.34,22.75-8.34,33.22v105.82h-41.95V256.69h40.26
		V269.11L1850.38,269.11z M2000.56,383.31l-41.25,64.52l-47.64-0.07l64.53-99.05l-57.22-91.95l47.83-0.07
		c120.56,191.09,0,0,120.56,191.09l-47.59-0.07L2000.56,383.31z"/>
	<polygon class="st1" points="2011.31,301.66 2034.69,337.4 2087.11,256.75 2037.79,256.75 	"/>
	<linearGradient id="SVGID_1_" gradientUnits="userSpaceOnUse" x1="87.373" y1="435.9781" x2="483.6655" y2="435.9781">
		<stop  offset="0" style="stop-color:#9D9FA2"/>
		<stop  offset="0.2514" style="stop-color:#BBBCBF"/>
		<stop  offset="0.5839" style="stop-color:#DEDFE0"/>
		<stop  offset="0.8449" style="stop-color:#F4F4F5"/>
		<stop  offset="1" style="stop-color:#FFFFFF"/>
	</linearGradient>
	<polygon class="st2" points="87.37,680.7 287.19,548.26 483.66,418.03 312.6,304.65 483.67,418.03 483.67,191.26 312.6,304.65 
		87.37,453.93 	"/>
	<linearGradient id="SVGID_2_" gradientUnits="userSpaceOnUse" x1="88.942" y1="173.8306" x2="483.6636" y2="173.8306">
		<stop  offset="0" style="stop-color:#FFFFFF"/>
		<stop  offset="0.1637" style="stop-color:#F8F8F9"/>
		<stop  offset="0.3599" style="stop-color:#EBECED"/>
		<stop  offset="0.5727" style="stop-color:#D7D8DA"/>
		<stop  offset="0.7958" style="stop-color:#BBBDBF"/>
		<stop  offset="1" style="stop-color:#9D9FA2"/>
	</linearGradient>
	<polygon class="st3" points="312.6,304.65 483.66,191.26 260.29,43.2 260.01,43.02 88.94,156.4 89.64,156.87 	"/>
	<linearGradient id="SVGID_3_" gradientUnits="userSpaceOnUse" x1="186.6987" y1="775.8034" x2="186.6987" y2="549.0303">
		<stop  offset="0" style="stop-color:#9D9FA2"/>
		<stop  offset="0.0666" style="stop-color:#A6A8AA"/>
		<stop  offset="0.3629" style="stop-color:#CACCCE"/>
		<stop  offset="0.6278" style="stop-color:#E5E6E7"/>
		<stop  offset="0.8492" style="stop-color:#F6F6F7"/>
		<stop  offset="1" style="stop-color:#FFFFFF"/>
	</linearGradient>
	<polygon class="st4" points="286.02,775.8 87.37,680.7 286.02,549.03 	"/>
</g>
</svg>
