<?xml version="1.0" encoding="utf-8"?>
<!-- Generator: Adobe Illustrator 24.1.3, SVG Export Plug-In . SVG Version: 6.00 Build 0)  -->
<svg version="1.1" id="Layer_1" xmlns="http://www.w3.org/2000/svg" xmlns:xlink="http://www.w3.org/1999/xlink" x="0px" y="0px"
	 viewBox="0 0 2174.75 1861.42" style="enable-background:new 0 0 2174.75 1861.42;" xml:space="preserve">
<style type="text/css">
	.st0{fill:#FFFFFF;}
	.st1{fill-rule:evenodd;clip-rule:evenodd;fill:#FFFFFF;}
	.st2{fill-rule:evenodd;clip-rule:evenodd;fill:url(#SVGID_1_);}
	.st3{fill-rule:evenodd;clip-rule:evenodd;fill:url(#SVGID_2_);}
	.st4{fill-rule:evenodd;clip-rule:evenodd;fill:url(#SVGID_3_);}
	.st5{fill-rule:evenodd;clip-rule:evenodd;fill:url(#SVGID_4_);}
</style>
<g>
	<g>
		<g>
			<path class="st0" d="M939.91,1679.46c-9.14-5.29-19.74-7.95-31.81-7.95c-11.75,0-22.39,2.81-31.94,8.44s-17.09,13.67-22.63,24.11
				c-5.56,10.44-8.33,22.51-8.33,36.22c0,12.73,2.7,24.1,8.08,34.14c5.39,10.03,12.89,17.82,22.51,23.36
				c9.63,5.56,20.56,8.33,32.8,8.33c12.56,0,23.24-2.25,32.06-6.73c8.81-4.49,16.63-11.79,23.49-21.9c0.49-0.82,0.73-1.47,0.73-1.96
				c0-0.81-0.41-1.47-1.22-1.96l-12.49-5.88c-0.49-0.32-1.14-0.49-1.96-0.49c-0.65,0-1.22,0.33-1.71,0.98
				c-4.9,6.54-10.28,11.35-16.16,14.45c-5.87,3.09-12.56,4.65-20.06,4.65c-7.18,0-13.79-1.76-19.82-5.26
				c-6.03-3.51-10.81-8.24-14.32-14.2c-3.51-5.96-5.26-12.61-5.26-19.94c0-2.62,0.81-3.92,2.45-3.92h90.54
				c1.63,0,2.65-0.37,3.06-1.1c0.41-0.74,0.61-1.84,0.61-3.31v-0.98c0-13.86-2.49-25.86-7.46-35.97
				C956.1,1692.48,949.05,1684.77,939.91,1679.46z M941.99,1727.8c-0.57,0.49-1.67,0.74-3.3,0.74l-66.32-0.25
				c-0.17-7.01,1.25-13.49,4.28-19.45c3.02-5.95,7.3-10.77,12.85-14.43c5.54-3.68,12-5.51,19.33-5.51c7.01,0,13.1,1.67,18.23,5.02
				c5.14,3.35,9.06,7.79,11.75,13.34c2.69,5.54,4.04,11.5,4.04,17.86C942.85,1726.41,942.56,1727.31,941.99,1727.8z"/>
			<path class="st0" d="M1071.57,1731.47l-30.1-8.56c-6.86-1.96-11.59-4.24-14.2-6.86c-2.6-2.6-3.92-5.54-3.92-8.81
				c0-5.71,2.62-10.24,7.84-13.59c5.22-3.33,11.9-5.02,20.06-5.02c7.35,0,13.79,1.43,19.33,4.29c5.54,2.86,10.04,6.64,13.45,11.38
				c0.82,0.82,1.72,1.23,2.7,1.23c0.65,0,1.14-0.08,1.47-0.25l12.73-6.61c0.81-0.49,1.22-1.06,1.22-1.71c0-0.66-0.33-1.47-0.98-2.45
				c-4.41-6.86-11.02-12.4-19.82-16.65c-8.81-4.24-18.76-6.36-29.85-6.36c-10.29,0-19.3,1.67-27.04,5.02
				c-7.75,3.35-13.79,7.99-18.11,13.94c-4.33,5.96-6.49,12.85-6.49,20.68c0,8.64,2.77,15.82,8.33,21.53
				c5.54,5.71,14.35,10.03,26.42,12.96l24.96,6.37c7.67,1.96,13.18,4.36,16.53,7.22c3.35,2.86,5.02,6.32,5.02,10.4
				c0,5.71-2.94,10.24-8.82,13.59c-5.87,3.35-13.3,5.02-22.26,5.02c-16.97,0-29.78-6.52-38.43-19.58c-0.49-0.65-1.14-0.98-1.95-0.98
				c-0.66,0-1.47,0.25-2.45,0.74l-12,6.36c-0.81,0.49-1.22,1.23-1.22,2.21c0,0.65,0.24,1.39,0.73,2.2
				c4.24,7.99,11.34,14.48,21.29,19.45c9.95,4.98,21.45,7.47,34.51,7.47c10.43,0,19.82-1.64,28.14-4.9
				c8.32-3.26,14.81-7.86,19.45-13.83c4.65-5.95,6.98-12.85,6.98-20.67c0-8.33-2.74-15.55-8.2-21.66
				C1091.43,1738.93,1082.98,1734.4,1071.57,1731.47z"/>
			<path class="st0" d="M1209.34,1731.47l-30.1-8.56c-6.86-1.96-11.59-4.24-14.2-6.86c-2.6-2.6-3.92-5.54-3.92-8.81
				c0-5.71,2.62-10.24,7.84-13.59c5.22-3.33,11.9-5.02,20.06-5.02c7.35,0,13.79,1.43,19.33,4.29c5.54,2.86,10.04,6.64,13.45,11.38
				c0.82,0.82,1.72,1.23,2.7,1.23c0.65,0,1.14-0.08,1.47-0.25l12.73-6.61c0.81-0.49,1.22-1.06,1.22-1.71c0-0.66-0.33-1.47-0.98-2.45
				c-4.41-6.86-11.02-12.4-19.82-16.65c-8.81-4.24-18.76-6.36-29.85-6.36c-10.29,0-19.3,1.67-27.04,5.02
				c-7.76,3.35-13.79,7.99-18.11,13.94c-4.33,5.96-6.49,12.85-6.49,20.68c0,8.64,2.77,15.82,8.33,21.53
				c5.54,5.71,14.35,10.03,26.42,12.96l24.96,6.37c7.67,1.96,13.18,4.36,16.53,7.22c3.35,2.86,5.02,6.32,5.02,10.4
				c0,5.71-2.94,10.24-8.82,13.59c-5.87,3.35-13.3,5.02-22.26,5.02c-16.97,0-29.78-6.52-38.43-19.58c-0.49-0.65-1.14-0.98-1.95-0.98
				c-0.66,0-1.47,0.25-2.45,0.74l-12,6.36c-0.81,0.49-1.22,1.23-1.22,2.21c0,0.65,0.24,1.39,0.73,2.2
				c4.24,7.99,11.34,14.48,21.29,19.45c9.95,4.98,21.45,7.47,34.51,7.47c10.43,0,19.82-1.64,28.14-4.9
				c8.32-3.26,14.8-7.86,19.45-13.83c4.65-5.95,6.98-12.85,6.98-20.67c0-8.33-2.74-15.55-8.2-21.66
				C1229.2,1738.93,1220.75,1734.4,1209.34,1731.47z"/>
			<path class="st0" d="M1368.9,1679.46c-9.14-5.29-19.74-7.95-31.82-7.95c-11.75,0-22.39,2.81-31.93,8.44
				c-9.55,5.63-17.1,13.67-22.64,24.11c-5.54,10.44-8.32,22.51-8.32,36.22c0,12.73,2.69,24.1,8.08,34.14
				c5.38,10.03,12.88,17.82,22.51,23.36c9.62,5.56,20.55,8.33,32.79,8.33c12.56,0,23.25-2.25,32.06-6.73
				c8.81-4.49,16.65-11.79,23.49-21.9c0.49-0.82,0.74-1.47,0.74-1.96c0-0.81-0.42-1.47-1.23-1.96l-12.47-5.88
				c-0.49-0.32-1.15-0.49-1.96-0.49c-0.66,0-1.22,0.33-1.71,0.98c-4.9,6.54-10.29,11.35-16.16,14.45
				c-5.88,3.09-12.57,4.65-20.06,4.65c-7.18,0-13.79-1.76-19.82-5.26c-6.05-3.51-10.81-8.24-14.32-14.2
				c-3.51-5.96-5.27-12.61-5.27-19.94c0-2.62,0.81-3.92,2.45-3.92h90.55c1.62,0,2.64-0.37,3.06-1.1c0.41-0.74,0.61-1.84,0.61-3.31
				v-0.98c0-13.86-2.49-25.86-7.47-35.97C1385.09,1692.48,1378.03,1684.77,1368.9,1679.46z M1370.98,1727.8
				c-0.57,0.49-1.67,0.74-3.31,0.74l-66.32-0.25c-0.17-7.01,1.27-13.49,4.29-19.45c3.01-5.95,7.29-10.77,12.85-14.43
				c5.54-3.68,11.98-5.51,19.33-5.51c7.01,0,13.08,1.67,18.22,5.02c5.15,3.35,9.06,7.79,11.76,13.34c2.69,5.54,4.03,11.5,4.03,17.86
				C1371.82,1726.41,1371.54,1727.31,1370.98,1727.8z"/>
			<path class="st0" d="M1506.18,1671.52c-7.67,0-14.77,1.59-21.29,4.77c-6.52,3.18-14.03,8.2-22.51,15.06
				c-0.81,0.81-1.43,1.14-1.84,0.98c-0.41-0.17-0.61-0.74-0.61-1.72v-13.45c0-2.11-0.98-3.18-2.93-3.18h-19.33
				c-2.13,0-3.19,1.22-3.19,3.67v122.11c0,2.62,1.3,3.92,3.92,3.92h17.37c1.63,0,2.82-0.32,3.55-0.98c0.74-0.65,1.1-1.71,1.1-3.18
				v-90.06c7.18-6.52,13.42-11.21,18.72-14.06c5.29-2.86,11.05-4.29,17.25-4.29c7.66,0,13.42,2.01,17.25,6c3.82,4,5.75,9.67,5.75,17
				v85.65c0,2.62,1.22,3.92,3.67,3.92h18.11c2.77,0,4.16-1.47,4.16-4.41v-90.3c0-11.41-3.47-20.52-10.41-27.28
				C1528,1674.9,1518.42,1671.52,1506.18,1671.52z"/>
			<path class="st0" d="M1659.86,1673.97h-29.37c-1.46,0-2.2-0.74-2.2-2.21v-37.93c0-2.6-1.06-3.92-3.18-3.92h-16.88
				c-1.64,0-2.62,1.15-2.94,3.43l-2.94,38.42c0,1.47-0.65,2.21-1.96,2.21h-19.57c-1.96,0-2.94,0.9-2.94,2.69v12.96
				c0,1.96,1.06,2.94,3.19,2.94h18.35c1.63,0,2.44,0.98,2.44,2.94v77.57c0,10.44,2.62,18.15,7.84,23.12
				c5.21,4.98,13.22,7.47,23.98,7.47c11.41,0,19.74-0.41,24.96-1.22c2.44-0.49,3.67-1.88,3.67-4.17v-10.52
				c0-1.96-0.98-2.94-2.94-2.94h-15.67c-5.54,0-9.58-1.3-12.1-3.92c-2.53-2.6-3.8-7.34-3.8-14.18v-71.71c0-1.63,0.74-2.45,2.21-2.45
				h29.36c2.28,0,3.43-0.98,3.43-2.94v-12.96C1662.8,1674.86,1661.82,1673.97,1659.86,1673.97z"/>
			<path class="st0" d="M1721.77,1622.08h-20.3c-2.45,0-3.68,1.39-3.68,4.16v22.27c0,1.62,0.33,2.81,0.98,3.55
				c0.66,0.73,1.79,1.1,3.43,1.1h18.11c1.79,0,3.06-0.41,3.79-1.23c0.73-0.81,1.1-2.12,1.1-3.91V1626c0-1.15-0.32-2.09-0.98-2.82
				C1723.57,1622.45,1722.75,1622.08,1721.77,1622.08z"/>
			<path class="st0" d="M1721.53,1673.97h-19.57c-1.31,0-2.21,0.29-2.7,0.85c-0.49,0.57-0.73,1.52-0.73,2.82v122.11
				c0,1.47,0.32,2.5,0.98,3.06c0.65,0.57,1.79,0.86,3.42,0.86h16.65c1.79,0,3.06-0.32,3.8-0.98c0.73-0.65,1.1-1.88,1.1-3.67v-121.63
				C1724.47,1675.1,1723.49,1673.97,1721.53,1673.97z"/>
			<path class="st0" d="M1821.61,1671.52c-13.22,0-24.51,2.4-33.89,7.22c-9.39,4.82-16.36,11.63-20.92,20.43
				c-0.49,1.15-0.74,2.04-0.74,2.69c0,0.98,0.49,1.64,1.47,1.96l16.65,4.9c1.14,0.32,2,0.36,2.57,0.12c0.56-0.24,1.1-0.86,1.59-1.84
				c7.99-12.07,18.68-18.1,32.06-18.1c8.47,0,15.16,2.32,20.06,6.98c4.9,4.65,7.34,10.97,7.34,18.96v6.12c0,2.11-1.3,3.35-3.91,3.67
				l-15.9,1.22c-21.21,0.98-37.57,5.39-49.07,13.22c-11.5,7.84-17.24,18.35-17.24,31.57c0,10.77,3.62,19.38,10.89,25.82
				c7.25,6.44,17.17,9.67,29.73,9.67c15.99,0,29.93-5.71,41.85-17.14c1.3-0.98,2.21-1.47,2.7-1.47c0.65,0,1.14,0.66,1.46,1.96
				l0.49,9.3c0.33,3.27,1.64,4.9,3.92,4.9h16.39c1.3,0,2.25-0.29,2.82-0.86c0.56-0.56,0.85-1.67,0.85-3.3v-86.39
				c0-13.05-4.24-23.24-12.73-30.59C1851.55,1675.18,1838.75,1671.52,1821.61,1671.52z M1847.79,1761.82
				c0,5.71-3.5,11.42-10.52,17.14c-7.84,6.03-16.16,9.05-24.96,9.05c-7.67,0-13.79-1.83-18.35-5.51c-4.58-3.67-6.86-8.69-6.86-15.04
				c0-8.16,3.96-14.57,11.88-19.21c7.91-4.65,18.63-7.37,32.18-8.2l13.22-0.98c2.28-0.16,3.42,1.06,3.42,3.67V1761.82z"/>
			<path class="st0" d="M1939.07,1622.08h-19.32c-2.13,0-3.19,1.22-3.19,3.67l-0.49,173.99c0,1.47,0.33,2.5,0.98,3.06
				c0.66,0.57,1.79,0.86,3.43,0.86h16.65c1.95,0,3.3-0.32,4.04-0.98c0.73-0.65,1.1-1.88,1.1-3.67v-173.26
				C1942.26,1623.3,1941.2,1622.08,1939.07,1622.08z"/>
			<path class="st0" d="M2079.18,1745.05c-5.47-6.12-13.92-10.65-25.33-13.59l-30.1-8.56c-6.86-1.96-11.59-4.24-14.2-6.86
				c-2.6-2.6-3.92-5.54-3.92-8.81c0-5.71,2.62-10.24,7.84-13.59c5.22-3.33,11.9-5.02,20.06-5.02c7.35,0,13.79,1.43,19.33,4.29
				s10.04,6.64,13.45,11.38c0.82,0.82,1.72,1.23,2.7,1.23c0.65,0,1.14-0.08,1.47-0.25l12.73-6.61c0.81-0.49,1.22-1.06,1.22-1.71
				c0-0.66-0.33-1.47-0.98-2.45c-4.41-6.86-11.02-12.4-19.82-16.65c-8.81-4.24-18.76-6.36-29.85-6.36c-10.29,0-19.3,1.67-27.04,5.02
				c-7.76,3.35-13.79,7.99-18.11,13.94c-4.33,5.96-6.49,12.85-6.49,20.68c0,8.64,2.77,15.82,8.33,21.53
				c5.54,5.71,14.35,10.03,26.42,12.96l24.96,6.37c7.67,1.96,13.18,4.36,16.53,7.22s5.02,6.32,5.02,10.4
				c0,5.71-2.94,10.24-8.82,13.59c-5.87,3.35-13.3,5.02-22.26,5.02c-16.97,0-29.78-6.52-38.43-19.58c-0.49-0.65-1.14-0.98-1.95-0.98
				c-0.66,0-1.47,0.25-2.45,0.74l-12,6.36c-0.81,0.49-1.22,1.23-1.22,2.21c0,0.65,0.24,1.39,0.73,2.2
				c4.24,7.99,11.34,14.48,21.29,19.45c9.95,4.98,21.45,7.47,34.51,7.47c10.43,0,19.82-1.64,28.14-4.9
				c8.32-3.26,14.8-7.86,19.45-13.83c4.65-5.95,6.98-12.85,6.98-20.67C2087.37,1758.39,2084.64,1751.17,2079.18,1745.05z"/>
		</g>
	</g>
	<g>
		<g>
			<path class="st1" d="M87.37,1290.52h33.97v43.96c9.73-14.99,23.72-27.07,41.85-36.2c18.07-9.08,37.38-13.66,57.86-13.66
				c40.55,0,74.08,13.49,100.65,40.47c26.54,27.03,39.88,60.59,39.88,100.71c0,39.23-13.16,72.35-39.38,99.41
				c-26.3,27.04-59.1,40.61-98.39,40.61c-21.83,0-41.46-4.17-58.86-12.58c-17.4-8.32-31.88-20.63-43.61-36.88v18.48v39.97v70.91
				H87.37V1290.52L87.37,1290.52z M121.34,1422.87c0,30.56,10.05,56.69,30.3,78.43c20.13,21.72,43.85,32.53,71.23,32.53
				c27.97,0,52.13-10.32,72.35-30.89c20.22-20.54,30.38-45.78,30.38-75.67c0-31.21-10.08-57.42-30.3-78.73
				c-20.16-21.3-44.7-31.97-73.67-31.97c-26.39,0-49.69,10.67-69.94,32.06C131.48,1370.04,121.34,1394.75,121.34,1422.87z"/>
			<path class="st1" d="M438.86,1424.28c0,30.09,9.58,55.28,28.68,75.79c19.19,20.48,43.2,30.71,71.88,30.71
				c28.3,0,51.96-10.14,70.97-30.56c18.95-20.39,28.47-45.84,28.47-76.34c0-30.97-9.61-56.42-28.86-76.34
				c-19.19-19.9-43.76-29.92-73.67-29.92c-26.51,0-49.43,10.25-68.62,30.74C448.44,1368.83,438.86,1394.13,438.86,1424.28
				L438.86,1424.28z M403.75,1424.93c0-38.44,13.16-71.29,39.49-98.53c26.36-27.33,57.57-40.96,93.6-40.96
				c37.79,0,70.06,13.4,96.89,40.23c26.83,26.83,40.26,58.77,40.26,95.95c0,39.03-13.08,72.35-39.26,100
				c-26.18,27.57-57.98,41.38-95.3,41.38c-37.88,0-70-13.49-96.27-40.58C416.91,1495.34,403.75,1462.81,403.75,1424.93z"/>
			<path class="st1" d="M751.89,1558.82h-34.47v-268.3h32.47v30.98c8.14-11.49,17.31-20.22,27.53-26.07
				c5-2.82,10.49-4.99,16.49-6.49c5.91-1.56,12.17-2.32,18.66-2.32l0.23,37.29c-21.63,2-37.2,8.41-46.7,19.31
				c-9.49,10.9-14.22,28.8-14.22,53.63V1558.82z"/>
			<polygon class="st1" points="901.58,1558.82 901.58,1325.08 850.62,1325.08 850.62,1290.6 901.58,1290.6 901.58,1203.71 
				936.02,1203.71 936.02,1290.6 986.98,1290.6 986.98,1325.08 936.02,1325.08 936.02,1558.82 			"/>
		</g>
		<path class="st1" d="M1195.82,1402.36l-47.22,156.5h-35.5l-92.94-268.33l63.04,0.1l47.57,153.02l46.73-153.21l37.98,0.21
			l46.49,152.8l47.78-152.82l62.57-0.1l-93.43,268.33h-35.41L1195.82,1402.36L1195.82,1402.36z M1382.95,1424.93
			c0-18.14,3.01-35.9,9.46-52.86c6.47-17.01,16.34-32.15,28.86-45.34c12.85-13.56,27.89-24.44,44.83-32.32
			c16.79-7.81,34.52-11.94,53.06-11.94c18.65,0,37,3.15,54.24,10.33c17.12,7.13,32.17,17.85,45.1,31.1
			c12.86,13.19,22.99,28.37,30.1,45.37c7.01,16.72,10.73,34.29,10.73,52.43c0,18.39-3.22,36.37-9.68,53.55
			c-6.32,16.79-15.64,31.99-27.76,45.2c-6.51,7.1-13.69,13.63-21.47,19.31c-7.67,5.61-15.83,10.6-24.56,14.71
			c-17.2,7.72-35.32,11.5-54.17,11.5c-18.7,0-37.07-3.24-54.29-10.59c-17-7.25-31.97-17.96-44.64-31.39
			c-12.54-13.27-22.22-28.68-29.4-45.72c-3.27-8.53-5.94-17.35-7.75-26.3C1383.82,1443.09,1382.95,1434.03,1382.95,1424.93
			L1382.95,1424.93z M1443.77,1424.47c0,22.63,6.74,42.7,22.38,59.19c15.08,15.9,33.65,23.4,55.54,23.4
			c21.69,0,39.84-7.72,54.62-23.59c15.5-16.65,22.19-36.81,22.19-59.47c0-22.58-6.39-42.96-22.14-59.49
			c-14.97-15.71-33.4-23.1-55.07-23.1c-21.73,0-39.93,7.86-54.92,23.57C1450.59,1381.53,1443.77,1401.67,1443.77,1424.47
			L1443.77,1424.47z M1754.48,1307.9c4.78-4.74,10.11-8.91,16.07-12.3c11.53-6.54,24.28-9.34,37.48-9.34h6.68v61.3h-6.68
			c-7.97,0-15.9,1.25-23.27,4.37c-6.28,2.67-11.77,6.38-16.18,11.61c-9.94,11.78-11.72,31.95-11.72,46.66v148.64h-58.93v-268.39
			h56.55V1307.9L1754.48,1307.9z M1965.43,1468.32l-57.94,90.62l-66.91-0.1l90.64-139.13l-80.38-129.15l67.19-0.1
			c169.34,268.42,0,0,169.34,268.42l-66.84-0.1L1965.43,1468.32z"/>
		<radialGradient id="SVGID_1_" cx="2033.7708" cy="1347.1858" r="54.9634" gradientUnits="userSpaceOnUse">
			<stop  offset="0" style="stop-color:#E6E7E8"/>
			<stop  offset="1" style="stop-color:#FFFFFF"/>
		</radialGradient>
		<polygon class="st2" points="1980.54,1353.64 2013.37,1403.83 2087,1290.54 2017.72,1290.54 		"/>
	</g>
	<g>
		<linearGradient id="SVGID_2_" gradientUnits="userSpaceOnUse" x1="821.9943" y1="607.2787" x2="1378.6405" y2="607.2787">
			<stop  offset="0" style="stop-color:#9D9FA2"/>
			<stop  offset="0.2514" style="stop-color:#BBBCBF"/>
			<stop  offset="0.5839" style="stop-color:#DEDFE0"/>
			<stop  offset="0.8449" style="stop-color:#F4F4F5"/>
			<stop  offset="1" style="stop-color:#FFFFFF"/>
		</linearGradient>
		<polygon class="st3" points="821.99,951.02 1102.66,764.99 1378.64,582.07 1138.35,422.8 1378.64,582.07 1378.64,263.53 
			1138.35,422.8 821.99,632.49 		"/>
		<linearGradient id="SVGID_3_" gradientUnits="userSpaceOnUse" x1="824.1981" y1="239.0574" x2="1378.6378" y2="239.0574">
			<stop  offset="0" style="stop-color:#FFFFFF"/>
			<stop  offset="0.1637" style="stop-color:#F8F8F9"/>
			<stop  offset="0.3599" style="stop-color:#EBECED"/>
			<stop  offset="0.5727" style="stop-color:#D7D8DA"/>
			<stop  offset="0.7958" style="stop-color:#BBBDBF"/>
			<stop  offset="1" style="stop-color:#9D9FA2"/>
		</linearGradient>
		<polygon class="st4" points="1138.35,422.8 1378.64,263.53 1064.89,55.58 1064.48,55.31 824.2,214.58 825.18,215.23 		"/>
		<linearGradient id="SVGID_4_" gradientUnits="userSpaceOnUse" x1="961.5106" y1="1084.6093" x2="961.5106" y2="766.0759">
			<stop  offset="0" style="stop-color:#9D9FA2"/>
			<stop  offset="0.0666" style="stop-color:#A6A8AA"/>
			<stop  offset="0.3629" style="stop-color:#CACCCE"/>
			<stop  offset="0.6278" style="stop-color:#E5E6E7"/>
			<stop  offset="0.8492" style="stop-color:#F6F6F7"/>
			<stop  offset="1" style="stop-color:#FFFFFF"/>
		</linearGradient>
		<polygon class="st5" points="1101.02,1084.61 821.99,951.02 1101.03,766.08 		"/>
	</g>
</g>
</svg>
