<svg id="Layer_1" data-name="Layer 1" xmlns="http://www.w3.org/2000/svg" xmlns:xlink="http://www.w3.org/1999/xlink" viewBox="0 0 2000 732.79"><defs><style>.cls-1,.cls-2,.cls-3,.cls-4,.cls-5{fill-rule:evenodd;}.cls-1{fill:url(#New_Gradient_Swatch_1);}.cls-2{fill:url(#linear-gradient);}.cls-3{fill:url(#linear-gradient-2);}.cls-4{fill:url(#linear-gradient-3);}.cls-5{fill:#515254;}.cls-6{fill:#f05223;}</style><radialGradient id="New_Gradient_Swatch_1" cx="1381.03" cy="1257.32" r="5.98" gradientTransform="translate(-7074.23 -7972.46) scale(6.54)" gradientUnits="userSpaceOnUse"><stop offset="0" stop-color="#e75d25"/><stop offset="1" stop-color="#d54d2a"/></radialGradient><linearGradient id="linear-gradient" y1="392.96" x2="382.63" y2="392.96" gradientUnits="userSpaceOnUse"><stop offset="0" stop-color="#f47a3a"/><stop offset="0.11" stop-color="#ef7437"/><stop offset="0.67" stop-color="#dc5a2c"/><stop offset="1" stop-color="#d55028"/></linearGradient><linearGradient id="linear-gradient-2" x1="1.57" y1="130.81" x2="396.29" y2="130.81" gradientUnits="userSpaceOnUse"><stop offset="0" stop-color="#d54927"/><stop offset="0.25" stop-color="#d84e29"/><stop offset="0.54" stop-color="#e05d30"/><stop offset="0.86" stop-color="#ee753a"/><stop offset="1" stop-color="#f58240"/></linearGradient><linearGradient id="linear-gradient-3" x1="99.33" y1="732.79" x2="99.33" y2="506.01" gradientUnits="userSpaceOnUse"><stop offset="0" stop-color="#e56f30"/><stop offset="0.37" stop-color="#d1552b"/><stop offset="0.75" stop-color="#c14127"/><stop offset="1" stop-color="#bc3a26"/></linearGradient></defs><polygon class="cls-1" points="1923.94 258.72 1947.32 294.45 1999.74 213.8 1950.41 213.8 1923.94 258.72"/><polygon class="cls-2" points="0 637.68 199.82 505.24 396.29 375.01 225.22 261.63 396.29 375.01 396.29 148.24 225.22 261.63 0 410.91 0 637.68"/><polygon class="cls-3" points="225.22 261.63 396.29 148.24 172.92 0.19 172.64 0 1.57 113.39 2.27 113.85 225.22 261.63"/><polygon class="cls-4" points="198.65 732.79 0 637.68 198.65 506.01 198.65 732.79"/><path class="cls-5" d="M663.52,256.79H687.7v31.3q10.38-16,29.79-25.77a90.51,90.51,0,0,1,41.19-9.73q43.32,0,71.66,28.81t28.39,71.69q0,41.9-28,70.78t-70,28.91q-23.31,0-41.9-8.95a80.91,80.91,0,0,1-31-26.26v92.1H663.52V256.79ZM687.7,351q0,32.64,21.57,55.84T760,430q29.88,0,51.51-22t21.63-53.87q0-33.33-21.57-56.05T759.1,275.35q-28.19,0-49.79,22.83T687.7,351Z" transform="translate(-87.37 -43.02)"/><path class="cls-5" d="M913.75,352c0,21.42,6.82,39.35,20.42,54s30.75,21.87,51.17,21.87q30.23,0,50.53-21.76t20.27-54.36q0-33.08-20.55-54.35t-52.44-21.3q-28.32,0-48.86,21.89T913.75,352Zm-25,.46q0-41.06,28.12-70.15t66.63-29.16q40.37,0,69,28.64t28.66,68.3q0,41.69-28,71.2t-67.85,29.45q-40.44,0-68.53-28.89T888.75,352.49Z" transform="translate(-87.37 -43.02)"/><path class="cls-5" d="M1136.6,447.8h-24.54v-191h23.12v22.06c5.79-8.19,12.32-14.4,19.6-18.56a47,47,0,0,1,11.74-4.63A52.41,52.41,0,0,1,1179.8,254l.17,26.55q-23.1,2.13-33.24,13.75t-10.13,38.18Z" transform="translate(-87.37 -43.02)"/><polygon class="cls-5" points="1155.8 404.79 1155.8 238.38 1119.52 238.38 1119.52 213.84 1155.8 213.84 1155.8 151.98 1180.32 151.98 1180.32 213.84 1216.6 213.84 1216.6 238.38 1180.32 238.38 1180.32 404.79 1155.8 404.79"/><path class="cls-5" d="M1452.65,336.42,1419,447.83h-25.28l-66.17-191,44.88.07,33.87,108.94,33.26-109.07,27,.15,33.1,108.78,34-108.8,44.54-.07-66.51,191h-25.21l-33.93-111.41Zm133.22,16.07a105.23,105.23,0,0,1,6.73-37.63,96.88,96.88,0,0,1,20.55-32.28,104.5,104.5,0,0,1,31.92-23,88.78,88.78,0,0,1,37.78-8.5,99.66,99.66,0,0,1,38.61,7.36,96.76,96.76,0,0,1,32.11,22.14A102.79,102.79,0,0,1,1775,312.85a96.05,96.05,0,0,1,7.64,37.33,107.82,107.82,0,0,1-6.89,38.13A98.87,98.87,0,0,1,1756,420.49a104.94,104.94,0,0,1-15.28,13.75,107.27,107.27,0,0,1-17.49,10.48,93.32,93.32,0,0,1-38.56,8.18,97.89,97.89,0,0,1-38.65-7.53A94.73,94.73,0,0,1,1614.21,423a108.13,108.13,0,0,1-20.93-32.55,118.52,118.52,0,0,1-5.51-18.72,97.21,97.21,0,0,1-1.9-19.26Zm43.31-.33c0,16.11,4.79,30.4,15.93,42.13,10.74,11.32,24,16.66,39.54,16.66,15.44,0,28.37-5.49,38.89-16.79,11-11.86,15.79-26.21,15.79-42.34s-4.54-30.59-15.76-42.36c-10.65-11.19-23.77-16.44-39.2-16.44s-28.43,5.6-39.1,16.78c-11.24,11.79-16.09,26.13-16.09,42.36Zm221.2-83a54.3,54.3,0,0,1,11.44-8.75,53.3,53.3,0,0,1,26.68-6.65h4.75v43.64h-4.75a42.19,42.19,0,0,0-16.57,3.12,30.14,30.14,0,0,0-11.52,8.26c-7.07,8.39-8.34,22.75-8.34,33.23V447.83h-42V256.76h40.27v12.41Zm150.18,114.21-41.25,64.52-47.63-.08,64.53-99.05L1919,256.83l47.84-.08,120.55,191.1-47.58-.08Z" transform="translate(-87.37 -43.02)"/><path class="cls-6" d="M1225,602.17A27.24,27.24,0,0,0,1235,612a26.93,26.93,0,0,0,13.76,3.65,29.45,29.45,0,0,0,13.93-3.23,34.25,34.25,0,0,0,11.21-10,1.47,1.47,0,0,1,1.18-.68,2.38,2.38,0,0,1,1.36.34l8.67,4.08a1.54,1.54,0,0,1,.85,1.35,2.88,2.88,0,0,1-.51,1.36q-7.14,10.54-16.31,15.21t-22.25,4.67A44.76,44.76,0,0,1,1224.1,623a40.36,40.36,0,0,1-15.63-16.22,49.37,49.37,0,0,1-5.6-23.69q0-14.28,5.77-25.14a41.51,41.51,0,0,1,15.71-16.73,45.87,45.87,0,0,1,44.25-.34,36.78,36.78,0,0,1,14.69,16q5.19,10.53,5.18,25v.68a4.89,4.89,0,0,1-.42,2.29c-.29.51-1,.76-2.12.76h-62.85c-1.13,0-1.7.91-1.7,2.72A26.78,26.78,0,0,0,1225,602.17Zm42.72-27.26a3.66,3.66,0,0,0,2.29-.51,2.36,2.36,0,0,0,.6-1.86,28.13,28.13,0,0,0-2.8-12.4A22.26,22.26,0,0,0,1247,547.4a23.73,23.73,0,0,0-13.42,3.82,25.89,25.89,0,0,0-8.92,10,28.05,28.05,0,0,0-3,13.5Z" transform="translate(-87.37 -43.02)"/><path class="cls-6" d="M1314.12,624.34V539.58c0-1.69.73-2.54,2.21-2.54h13.42c1.35,0,2,.73,2,2.2v9.35c0,.68.14,1.07.43,1.18s.7-.11,1.27-.67a85.76,85.76,0,0,1,15.63-10.45,33.23,33.23,0,0,1,14.78-3.31q12.73,0,19.95,7t7.22,18.93V624c0,2-1,3.06-2.89,3.06h-12.56c-1.7,0-2.55-.91-2.55-2.72V564.89q0-7.64-4-11.8t-12-4.16a24.84,24.84,0,0,0-12,3,69.68,69.68,0,0,0-13,9.76v62.51a2.82,2.82,0,0,1-.76,2.21,3.67,3.67,0,0,1-2.46.68h-12.06A2.4,2.4,0,0,1,1314.12,624.34Z" transform="translate(-87.37 -43.02)"/><path class="cls-6" d="M1449.83,549.94c-1,0-1.53.57-1.53,1.7v49.77q0,7.14,2.63,9.85t8.41,2.72h10.87a1.8,1.8,0,0,1,2,2v7.3a2.75,2.75,0,0,1-2.55,2.89,124.27,124.27,0,0,1-17.32.85q-11.22,0-16.65-5.18t-5.43-16V552c0-1.36-.57-2-1.7-2h-12.74c-1.47,0-2.21-.67-2.21-2v-9q0-1.86,2-1.86h13.59c.9,0,1.36-.51,1.36-1.53l2-26.67c.22-1.58.9-2.38,2-2.38h11.72c1.47,0,2.21.91,2.21,2.72v26.33a1.35,1.35,0,0,0,1.53,1.53h20.38q2,0,2,1.86v9c0,1.36-.79,2-2.38,2Z" transform="translate(-87.37 -43.02)"/><path class="cls-6" d="M1512.42,602.17a27.17,27.17,0,0,0,9.94,9.86,26.89,26.89,0,0,0,13.75,3.65,29.39,29.39,0,0,0,13.93-3.23,34.05,34.05,0,0,0,11.21-10,1.48,1.48,0,0,1,1.19-.68,2.38,2.38,0,0,1,1.36.34l8.66,4.08a1.52,1.52,0,0,1,.85,1.35,2.88,2.88,0,0,1-.51,1.36q-7.12,10.54-16.3,15.21t-22.25,4.67a44.73,44.73,0,0,1-22.76-5.78,40.3,40.3,0,0,1-15.63-16.22,49.26,49.26,0,0,1-5.61-23.69q0-14.28,5.78-25.14a41.51,41.51,0,0,1,15.71-16.73,42.77,42.77,0,0,1,22.17-5.86,43.24,43.24,0,0,1,22.08,5.52,36.84,36.84,0,0,1,14.69,16q5.17,10.53,5.18,25v.68a4.75,4.75,0,0,1-.43,2.29c-.28.51-1,.76-2.12.76h-62.84c-1.14,0-1.7.91-1.7,2.72A26.68,26.68,0,0,0,1512.42,602.17Zm42.72-27.26a3.68,3.68,0,0,0,2.29-.51,2.36,2.36,0,0,0,.6-1.86,28,28,0,0,0-2.81-12.4,22.23,22.23,0,0,0-20.8-12.74,23.73,23.73,0,0,0-13.42,3.82,25.81,25.81,0,0,0-8.92,10,27.83,27.83,0,0,0-3,13.5Z" transform="translate(-87.37 -43.02)"/><path class="cls-6" d="M1601.5,624.34V539.58c0-1.69.74-2.54,2.21-2.54h13.08c1.36,0,2,.73,2,2.2v10.7c0,.68.2,1.08.59,1.19s.82-.11,1.28-.68a52.22,52.22,0,0,1,13-11.21,26.09,26.09,0,0,1,13.17-3.9q5.94,0,5.94,2.38V551c0,1.36-.62,1.93-1.87,1.7a37.41,37.41,0,0,0-9-.85,22.39,22.39,0,0,0-10,2.64,27.3,27.3,0,0,0-8.83,6.87,13.44,13.44,0,0,0-3.57,8.67v54.18q0,2.9-3.23,2.89h-12.06A2.41,2.41,0,0,1,1601.5,624.34Z" transform="translate(-87.37 -43.02)"/><path class="cls-6" d="M1694.41,539.75v6.63c0,.91.23,1.36.68,1.36a4.08,4.08,0,0,0,1.53-.85,50.72,50.72,0,0,1,10.79-8.33q5.68-3.22,15.2-3.22a35,35,0,0,1,18.77,5.09q8.23,5.1,13,15.29t4.76,25.14q0,15.28-4.76,26.07T1741,623.24a36.46,36.46,0,0,1-20,5.52,34.93,34.93,0,0,1-23.61-8.5,4,4,0,0,0-2-1.19c-.56,0-.85.74-.85,2.21v31.43c0,1.58-.68,2.37-2,2.37h-13.76c-1.48,0-2.21-.79-2.21-2.37V540.09a3,3,0,0,1,.76-2.37,3.63,3.63,0,0,1,2.47-.68h11.89C1693.45,537,1694.41,537.94,1694.41,539.75Zm9.94,74.14a23.14,23.14,0,0,0,11,2.64q11.71,0,18.59-9.09t6.88-26.58q0-17-6.79-25.14a22.08,22.08,0,0,0-17.83-8.15A23.5,23.5,0,0,0,1705,550.2a20.9,20.9,0,0,0-7.81,6.79,14.72,14.72,0,0,0-2.81,8.24v40.94A39.94,39.94,0,0,0,1704.35,613.89Z" transform="translate(-87.37 -43.02)"/><path class="cls-6" d="M1786.13,624.34V539.58c0-1.69.74-2.54,2.21-2.54h13.08c1.36,0,2,.73,2,2.2v10.7c0,.68.19,1.08.59,1.19s.82-.11,1.28-.68a52,52,0,0,1,13-11.21,26.09,26.09,0,0,1,13.16-3.9q6,0,6,2.38V551c0,1.36-.62,1.93-1.87,1.7a37.41,37.41,0,0,0-9-.85,22.39,22.39,0,0,0-10,2.64,27.44,27.44,0,0,0-8.84,6.87,13.47,13.47,0,0,0-3.56,8.67v54.18q0,2.9-3.23,2.89h-12.06A2.41,2.41,0,0,1,1786.13,624.34Z" transform="translate(-87.37 -43.02)"/><path class="cls-6" d="M1879.55,519a4,4,0,0,1-.76,2.72,3.4,3.4,0,0,1-2.63.85h-12.57a3.06,3.06,0,0,1-2.38-.77,3.62,3.62,0,0,1-.68-2.46V503.92c0-1.93.85-2.89,2.55-2.89h14.09a2.17,2.17,0,0,1,1.7.76,2.85,2.85,0,0,1,.68,2Zm-.51,104.8a3.33,3.33,0,0,1-.76,2.55,4,4,0,0,1-2.63.68H1864.1a3.61,3.61,0,0,1-2.38-.6,2.68,2.68,0,0,1-.68-2.12V539.58a3,3,0,0,1,.51-2,2.37,2.37,0,0,1,1.87-.59H1877q2,0,2,2.37Z" transform="translate(-87.37 -43.02)"/><path class="cls-6" d="M1955.82,550.2a29,29,0,0,0-13.42-3q-8.51,0-13.93,3.48t-5.44,9.43a8.45,8.45,0,0,0,2.72,6.11q2.71,2.71,9.85,4.76l20.89,5.94q11.9,3.06,17.58,9.43a21.79,21.79,0,0,1,5.69,15,22.62,22.62,0,0,1-4.84,14.35,30.9,30.9,0,0,1-13.5,9.6,53.23,53.23,0,0,1-19.53,3.4q-13.59,0-24-5.18t-14.78-13.51a3,3,0,0,1-.51-1.53,1.65,1.65,0,0,1,.85-1.52l8.32-4.42a4,4,0,0,1,1.7-.51,1.62,1.62,0,0,1,1.36.68q9,13.59,26.67,13.59,9.33,0,15.45-3.48t6.12-9.43a9.17,9.17,0,0,0-3.48-7.22q-3.5-3-11.47-5l-17.32-4.42q-12.58-3-18.35-9a20.57,20.57,0,0,1-5.77-14.95,23.81,23.81,0,0,1,4.5-14.35,29.57,29.57,0,0,1,12.57-9.68,51.57,51.57,0,0,1,39.49.93q9.17,4.43,13.76,11.55a3.35,3.35,0,0,1,.68,1.7,1.44,1.44,0,0,1-.85,1.19l-8.84,4.59a2.36,2.36,0,0,1-1,.17,2.58,2.58,0,0,1-1.87-.85A26,26,0,0,0,1955.82,550.2Z" transform="translate(-87.37 -43.02)"/><path class="cls-6" d="M2023.67,602.17a27.17,27.17,0,0,0,9.94,9.86,26.89,26.89,0,0,0,13.75,3.65,29.39,29.39,0,0,0,13.93-3.23,34.05,34.05,0,0,0,11.21-10,1.48,1.48,0,0,1,1.19-.68,2.38,2.38,0,0,1,1.36.34l8.66,4.08a1.52,1.52,0,0,1,.85,1.35,2.88,2.88,0,0,1-.51,1.36q-7.12,10.54-16.3,15.21t-22.25,4.67a44.73,44.73,0,0,1-22.76-5.78,40.3,40.3,0,0,1-15.63-16.22,49.26,49.26,0,0,1-5.61-23.69q0-14.28,5.78-25.14A41.51,41.51,0,0,1,2023,541.2a42.77,42.77,0,0,1,22.17-5.86,43.24,43.24,0,0,1,22.08,5.52,36.84,36.84,0,0,1,14.69,16q5.18,10.53,5.18,25v.68a4.89,4.89,0,0,1-.42,2.29c-.29.51-1,.76-2.13.76h-62.84c-1.14,0-1.7.91-1.7,2.72A26.68,26.68,0,0,0,2023.67,602.17Zm42.72-27.26a3.68,3.68,0,0,0,2.29-.51,2.36,2.36,0,0,0,.6-1.86,28,28,0,0,0-2.81-12.4,22.23,22.23,0,0,0-20.8-12.74,23.73,23.73,0,0,0-13.42,3.82,25.81,25.81,0,0,0-8.92,10,27.83,27.83,0,0,0-3,13.5Z" transform="translate(-87.37 -43.02)"/></svg>