<svg id="Layer_1" data-name="Layer 1" xmlns="http://www.w3.org/2000/svg" xmlns:xlink="http://www.w3.org/1999/xlink" viewBox="0 0 2000 1785.6"><defs><style>.cls-1{fill:#515254;}.cls-1,.cls-2,.cls-3,.cls-4,.cls-5{fill-rule:evenodd;}.cls-2{fill:url(#radial-gradient);}.cls-3{fill:url(#linear-gradient);}.cls-4{fill:url(#linear-gradient-2);}.cls-5{fill:url(#linear-gradient-3);}.cls-6{fill:#f05223;}</style><radialGradient id="radial-gradient" cx="1946.4" cy="1291.88" r="54.96" gradientUnits="userSpaceOnUse"><stop offset="0" stop-color="#e75d25"/><stop offset="1" stop-color="#d54d2a"/></radialGradient><linearGradient id="linear-gradient" x1="734.62" y1="551.97" x2="1272.07" y2="551.97" gradientUnits="userSpaceOnUse"><stop offset="0" stop-color="#f47a3a"/><stop offset="0.11" stop-color="#ef7437"/><stop offset="0.67" stop-color="#dc5a2c"/><stop offset="1" stop-color="#d55028"/></linearGradient><linearGradient id="linear-gradient-2" x1="736.83" y1="183.75" x2="1291.26" y2="183.75" gradientUnits="userSpaceOnUse"><stop offset="0" stop-color="#d54927"/><stop offset="0.25" stop-color="#d84e29"/><stop offset="0.54" stop-color="#e05d30"/><stop offset="0.86" stop-color="#ee753a"/><stop offset="1" stop-color="#f58240"/></linearGradient><linearGradient id="linear-gradient-3" x1="874.14" y1="1029.3" x2="874.14" y2="710.77" gradientUnits="userSpaceOnUse"><stop offset="0" stop-color="#e56f30"/><stop offset="0.37" stop-color="#d1552b"/><stop offset="0.75" stop-color="#c14127"/><stop offset="1" stop-color="#bc3a26"/></linearGradient></defs><path class="cls-1" d="M87.37,1273.12h34v44q14.6-22.49,41.85-36.21a127.34,127.34,0,0,1,57.86-13.66q60.84,0,100.65,40.47t39.88,100.7q0,58.84-39.38,99.42t-98.39,40.61q-32.75,0-58.86-12.58A113.79,113.79,0,0,1,121.34,1499v129.36h-34V1273.12Zm34,132.35q0,45.85,30.3,78.44t71.23,32.53q42,0,72.35-30.89t30.39-75.67q0-46.82-30.3-78.73t-73.67-32q-39.58,0-69.94,32.06T121.34,1405.47Z" transform="translate(-87.37 -37.91)"/><path class="cls-1" d="M438.86,1406.88c0,30.1,9.58,55.28,28.68,75.79s43.2,30.71,71.88,30.71q42.45,0,71-30.56t28.48-76.35q0-46.46-28.86-76.34t-73.67-29.92q-39.77,0-68.62,30.74t-28.86,75.93Zm-35.11.65q0-57.66,39.49-98.53t93.6-41q56.68,0,96.88,40.23t40.26,96q0,58.53-39.26,100t-95.3,41.38q-56.82,0-96.27-40.58T403.75,1407.53Z" transform="translate(-87.37 -37.91)"/><path class="cls-1" d="M751.89,1541.42H717.42v-268.3h32.47v31c8.14-11.49,17.31-20.22,27.53-26.07a65.93,65.93,0,0,1,16.49-6.49,72.94,72.94,0,0,1,18.66-2.32l.23,37.29q-32.43,3-46.69,19.31t-14.22,53.63Z" transform="translate(-87.37 -37.91)"/><polygon class="cls-1" points="814.21 1503.51 814.21 1269.77 763.25 1269.77 763.25 1235.29 814.21 1235.29 814.21 1148.4 848.65 1148.4 848.65 1235.29 899.61 1235.29 899.61 1269.77 848.65 1269.77 848.65 1503.51 814.21 1503.51"/><path class="cls-1" d="M1195.82,1385l-47.22,156.5h-35.5l-92.94-268.33,63,.1,47.56,153,46.73-153.2,38,.21,46.49,152.8,47.78-152.82,62.58-.1-93.44,268.33h-35.41L1195.82,1385ZM1383,1407.54a148.09,148.09,0,0,1,9.45-52.87,136.17,136.17,0,0,1,28.86-45.34A146.81,146.81,0,0,1,1466.1,1277a124.69,124.69,0,0,1,53.06-11.94c18.65,0,37,3.15,54.24,10.33a136,136,0,0,1,45.1,31.09,144.58,144.58,0,0,1,30.11,45.37,135,135,0,0,1,10.72,52.43,151.3,151.3,0,0,1-9.68,53.56,138.88,138.88,0,0,1-27.76,45.2,146.26,146.26,0,0,1-21.47,19.31,150.26,150.26,0,0,1-24.56,14.72,131.13,131.13,0,0,1-54.17,11.5c-18.7,0-37.07-3.24-54.29-10.59a133.22,133.22,0,0,1-44.65-31.38,151.67,151.67,0,0,1-29.39-45.73,165.23,165.23,0,0,1-7.75-26.3,137,137,0,0,1-2.66-27Zm60.82-.47c0,22.62,6.74,42.7,22.38,59.18,15.09,15.9,33.65,23.4,55.54,23.4,21.69,0,39.85-7.71,54.62-23.59,15.5-16.65,22.2-36.81,22.2-59.47s-6.39-43-22.14-59.49c-15-15.72-33.4-23.1-55.07-23.1s-39.94,7.86-54.92,23.57c-15.79,16.56-22.61,36.7-22.61,59.5Zm310.71-116.56a76,76,0,0,1,16.07-12.3c11.53-6.55,24.28-9.34,37.48-9.34h6.67v61.3H1808a59.41,59.41,0,0,0-23.27,4.37,42.32,42.32,0,0,0-16.18,11.62c-9.94,11.78-11.72,31.95-11.72,46.66v148.64h-58.93V1273.07h56.55v17.44Zm211,160.41-57.94,90.62-66.91-.1,90.65-139.13-80.38-129.15,67.19-.1,169.33,268.42-66.84-.11Z" transform="translate(-87.37 -37.91)"/><polygon class="cls-2" points="1893.17 1298.33 1926 1348.52 1999.63 1235.23 1930.35 1235.23 1893.17 1298.33"/><polygon class="cls-3" points="734.62 895.71 1015.29 709.68 1291.27 526.76 1050.98 367.49 1291.27 526.76 1291.27 208.22 1050.98 367.49 734.62 577.18 734.62 895.71"/><polygon class="cls-4" points="1050.98 367.49 1291.27 208.22 977.51 0.27 977.11 0 736.83 159.27 737.8 159.92 1050.98 367.49"/><polygon class="cls-5" points="1013.65 1029.3 734.62 895.71 1013.65 710.76 1013.65 1029.3"/><path class="cls-6" d="M876.1,1749.19a38.13,38.13,0,0,0,14,13.84,37.74,37.74,0,0,0,19.32,5.13,41.33,41.33,0,0,0,19.57-4.53q8.58-4.53,15.74-14.08a2.09,2.09,0,0,1,1.67-1,3.46,3.46,0,0,1,1.91.47l12.17,5.73a2.16,2.16,0,0,1,1.19,1.91,4.19,4.19,0,0,1-.71,1.91q-10,14.79-22.91,21.35t-31.25,6.56q-17.89,0-32-8.11a56.56,56.56,0,0,1-21.95-22.79Q845,1741,845,1722.35q0-20,8.11-35.31a58.35,58.35,0,0,1,22.07-23.5,60.18,60.18,0,0,1,31.13-8.23q17.65,0,31,7.76a51.71,51.71,0,0,1,20.63,22.54q7.27,14.81,7.28,35.07v1a6.8,6.8,0,0,1-.6,3.22c-.39.71-1.39,1.07-3,1.07H873.36c-1.6,0-2.39,1.28-2.39,3.82A37.55,37.55,0,0,0,876.1,1749.19Zm60-38.29a5.14,5.14,0,0,0,3.22-.72,3.3,3.3,0,0,0,.84-2.62,39.32,39.32,0,0,0-3.94-17.42A31.25,31.25,0,0,0,907,1672.25a33.34,33.34,0,0,0-18.85,5.37,36.25,36.25,0,0,0-12.53,14.07,39.33,39.33,0,0,0-4.17,19Z" transform="translate(-87.37 -37.91)"/><path class="cls-6" d="M1001.23,1780.33v-119c0-2.39,1-3.58,3.1-3.58h18.85c1.91,0,2.87,1,2.87,3.1v13.12c0,1,.19,1.51.59,1.67s1-.16,1.79-.95q12.4-10,22-14.68a46.74,46.74,0,0,1,20.76-4.65q17.89,0,28,9.9t10.14,26.6v88q0,4.29-4.06,4.29H1087.6q-3.58,0-3.58-3.81v-83.51q0-10.72-5.61-16.58t-16.82-5.84a35,35,0,0,0-16.82,4.17q-7.76,4.18-18.25,13.72v87.8a4,4,0,0,1-1.07,3.1,5.13,5.13,0,0,1-3.46,1h-16.94Q1001.23,1784.14,1001.23,1780.33Z" transform="translate(-87.37 -37.91)"/><path class="cls-6" d="M1191.86,1675.83c-1.43,0-2.15.8-2.15,2.38v69.91q0,10,3.7,13.84t11.81,3.81h15.27a2.53,2.53,0,0,1,2.86,2.87v10.26q0,3.35-3.58,4-7.63,1.2-24.33,1.19-15.75,0-23.38-7.27t-7.64-22.55v-75.63c0-1.91-.8-2.86-2.38-2.86h-17.9c-2.07,0-3.1-.95-3.1-2.86v-12.65c0-1.75,1-2.62,2.86-2.62H1163c1.27,0,1.91-.72,1.91-2.15l2.86-37.46c.32-2.22,1.27-3.34,2.86-3.34h16.47c2.06,0,3.1,1.28,3.1,3.82v37a1.9,1.9,0,0,0,2.15,2.15H1221c1.9,0,2.86.87,2.86,2.62V1673c0,1.91-1.12,2.86-3.34,2.86Z" transform="translate(-87.37 -37.91)"/><path class="cls-6" d="M1279.77,1749.19a38.44,38.44,0,0,0,33.29,19,41.31,41.31,0,0,0,19.56-4.53q8.58-4.53,15.75-14.08a2.06,2.06,0,0,1,1.67-1,3.42,3.42,0,0,1,1.9.47l12.17,5.73a2.14,2.14,0,0,1,1.19,1.91,4.07,4.07,0,0,1-.71,1.91q-10,14.79-22.9,21.35t-31.26,6.56q-17.9,0-32-8.11a56.56,56.56,0,0,1-22-22.79q-7.87-14.67-7.87-33.28,0-20,8.11-35.31a58.41,58.41,0,0,1,22.07-23.5,60.18,60.18,0,0,1,31.13-8.23q17.65,0,31,7.76a51.79,51.79,0,0,1,20.64,22.54q7.28,14.81,7.27,35.07v1a6.94,6.94,0,0,1-.59,3.22c-.4.71-1.4,1.07-3,1.07H1277c-1.59,0-2.39,1.28-2.39,3.82A37.55,37.55,0,0,0,1279.77,1749.19Zm60-38.29a5.18,5.18,0,0,0,3.22-.72,3.34,3.34,0,0,0,.83-2.62,39.45,39.45,0,0,0-3.93-17.42,31.28,31.28,0,0,0-29.23-17.89,33.36,33.36,0,0,0-18.85,5.37,36.23,36.23,0,0,0-12.52,14.07,39.23,39.23,0,0,0-4.18,19Z" transform="translate(-87.37 -37.91)"/><path class="cls-6" d="M1404.91,1780.33v-119q0-3.58,3.1-3.58h18.37c1.91,0,2.86,1,2.86,3.1v15c0,1,.28,1.51.84,1.67s1.15-.16,1.79-1a72.69,72.69,0,0,1,18.25-15.75q9.42-5.49,18.49-5.49c5.56,0,8.35,1.12,8.35,3.34v18.61c0,1.91-.88,2.71-2.63,2.39a51.85,51.85,0,0,0-12.64-1.2,31.59,31.59,0,0,0-14.08,3.7,38.52,38.52,0,0,0-12.4,9.66q-5,6-5,12.17v76.11c0,2.71-1.52,4.05-4.54,4.05h-16.94Q1404.91,1784.14,1404.91,1780.33Z" transform="translate(-87.37 -37.91)"/><path class="cls-6" d="M1535.41,1661.51v9.31c0,1.27.32,1.91.95,1.91a5.89,5.89,0,0,0,2.15-1.19,71,71,0,0,1,15.15-11.7q8-4.53,21.35-4.53a49.14,49.14,0,0,1,26.37,7.16q11.56,7.15,18.25,21.47t6.68,35.31q0,21.48-6.68,36.62t-18.85,22.91q-12.16,7.76-28.15,7.75-19.34,0-33.17-11.93c-1.27-1.11-2.22-1.67-2.86-1.67-.8,0-1.19,1-1.19,3.1v44.14c0,2.23-1,3.34-2.86,3.34h-19.33q-3.1,0-3.1-3.34V1662a4.34,4.34,0,0,1,1.07-3.34,5.18,5.18,0,0,1,3.46-1h16.7Q1535.42,1657.7,1535.41,1661.51Zm14,104.14a32.5,32.5,0,0,0,15.38,3.7q16.47,0,26.13-12.76t9.66-37.34q0-23.85-9.54-35.31t-25-11.45a33,33,0,0,0-15.63,3.7,29.24,29.24,0,0,0-11,9.54,20.61,20.61,0,0,0-3.94,11.57v57.5A55.63,55.63,0,0,0,1549.37,1765.65Z" transform="translate(-87.37 -37.91)"/><path class="cls-6" d="M1664.24,1780.33v-119q0-3.58,3.1-3.58h18.37c1.91,0,2.87,1,2.87,3.1v15c0,1,.27,1.51.83,1.67s1.15-.16,1.79-1a72.87,72.87,0,0,1,18.25-15.75q9.42-5.49,18.49-5.49c5.57,0,8.35,1.12,8.35,3.34v18.61c0,1.91-.87,2.71-2.62,2.39a51.88,51.88,0,0,0-12.65-1.2,31.59,31.59,0,0,0-14.07,3.7,38.56,38.56,0,0,0-12.41,9.66q-5,6-5,12.17v76.11c0,2.71-1.51,4.05-4.53,4.05h-16.94Q1664.24,1784.14,1664.24,1780.33Z" transform="translate(-87.37 -37.91)"/><path class="cls-6" d="M1795.46,1632.41a5.61,5.61,0,0,1-1.07,3.81,4.79,4.79,0,0,1-3.7,1.2H1773a4.3,4.3,0,0,1-3.34-1.08,5.14,5.14,0,0,1-1-3.45v-21.72q0-4.05,3.58-4.05h19.8a3.08,3.08,0,0,1,2.39,1.07,4,4,0,0,1,1,2.75Zm-.71,147.2c0,1.75-.36,3-1.08,3.58a5.56,5.56,0,0,1-3.7,1h-16.22a5.1,5.1,0,0,1-3.34-.83,3.82,3.82,0,0,1-1-3v-119a4.22,4.22,0,0,1,.71-2.75,3.38,3.38,0,0,1,2.63-.83h19.08q2.86,0,2.87,3.34Z" transform="translate(-87.37 -37.91)"/><path class="cls-6" d="M1902.58,1676.19a40.68,40.68,0,0,0-18.85-4.18q-11.93,0-19.56,4.89t-7.63,13.24a11.86,11.86,0,0,0,3.81,8.59q3.83,3.82,13.84,6.68l29.35,8.35q16.7,4.31,24.69,13.25a30.63,30.63,0,0,1,8,21.11,31.79,31.79,0,0,1-6.8,20.16q-6.8,8.71-19,13.48a74.75,74.75,0,0,1-27.44,4.77q-19.1,0-33.64-7.28t-20.76-19a4.25,4.25,0,0,1-.71-2.15,2.33,2.33,0,0,1,1.19-2.15l11.69-6.2a5.59,5.59,0,0,1,2.38-.72,2.25,2.25,0,0,1,1.91,1q12.64,19.08,37.46,19.08,13.13,0,21.71-4.89t8.59-13.24a12.89,12.89,0,0,0-4.89-10.14q-4.89-4.17-16.1-7l-24.34-6.2q-17.65-4.29-25.77-12.64t-8.11-21a33.46,33.46,0,0,1,6.32-20.16,41.59,41.59,0,0,1,17.66-13.6q11.33-4.89,26.36-4.89a66.33,66.33,0,0,1,29.11,6.2q12.89,6.21,19.32,16.23a4.61,4.61,0,0,1,1,2.38,2,2,0,0,1-1.19,1.67l-12.41,6.44a3.18,3.18,0,0,1-1.43.24,3.64,3.64,0,0,1-2.63-1.19A36.49,36.49,0,0,0,1902.58,1676.19Z" transform="translate(-87.37 -37.91)"/><path class="cls-6" d="M1997.89,1749.19a38.44,38.44,0,0,0,33.29,19,41.31,41.31,0,0,0,19.56-4.53q8.58-4.53,15.74-14.08a2.09,2.09,0,0,1,1.68-1,3.42,3.42,0,0,1,1.9.47l12.17,5.73a2.14,2.14,0,0,1,1.19,1.91,4.07,4.07,0,0,1-.71,1.91q-10,14.79-22.9,21.35t-31.26,6.56q-17.9,0-32-8.11a56.56,56.56,0,0,1-21.95-22.79q-7.87-14.67-7.87-33.28,0-20,8.11-35.31a58.41,58.41,0,0,1,22.07-23.5,60.18,60.18,0,0,1,31.13-8.23q17.65,0,31,7.76a51.79,51.79,0,0,1,20.64,22.54q7.28,14.81,7.27,35.07v1a6.94,6.94,0,0,1-.59,3.22c-.4.71-1.4,1.07-3,1.07h-88.27c-1.59,0-2.39,1.28-2.39,3.82A37.55,37.55,0,0,0,1997.89,1749.19Zm60-38.29a5.18,5.18,0,0,0,3.22-.72,3.34,3.34,0,0,0,.83-2.62,39.32,39.32,0,0,0-3.94-17.42,31.25,31.25,0,0,0-29.22-17.89,33.36,33.36,0,0,0-18.85,5.37,36.23,36.23,0,0,0-12.52,14.07,39.23,39.23,0,0,0-4.18,19Z" transform="translate(-87.37 -37.91)"/></svg>