<?xml version="1.0" encoding="utf-8"?>
<!-- Generator: Adobe Illustrator 24.1.3, SVG Export Plug-In . SVG Version: 6.00 Build 0)  -->
<svg version="1.1" id="Layer_1" xmlns="http://www.w3.org/2000/svg" xmlns:xlink="http://www.w3.org/1999/xlink" x="0px" y="0px"
	 viewBox="0 0 2174.75 818.82" style="enable-background:new 0 0 2174.75 818.82;" xml:space="preserve">
<style type="text/css">
	.st0{fill-rule:evenodd;clip-rule:evenodd;fill:#FFFFFF;}
	.st1{fill-rule:evenodd;clip-rule:evenodd;fill:url(#SVGID_1_);}
	.st2{fill-rule:evenodd;clip-rule:evenodd;fill:url(#SVGID_2_);}
	.st3{fill-rule:evenodd;clip-rule:evenodd;fill:url(#SVGID_3_);}
	.st4{fill:#FFFFFF;}
</style>
<g>
	<g>
		<g>
			<path class="st0" d="M663.52,256.73h24.18v31.3c6.93-10.67,16.88-19.27,29.79-25.77c12.87-6.46,26.61-9.73,41.19-9.73
				c28.87,0,52.74,9.6,71.65,28.81c18.89,19.25,28.39,43.14,28.39,71.7c0,27.93-9.37,51.51-28.03,70.78
				c-18.73,19.25-42.07,28.91-70.05,28.91c-15.54,0-29.52-2.97-41.9-8.95c-12.39-5.92-22.7-14.69-31.05-26.26v13.16v28.45v50.48
				h-24.18V256.73L663.52,256.73z M687.7,350.95c0,21.76,7.16,40.36,21.57,55.84c14.33,15.46,31.21,23.16,50.71,23.16
				c19.92,0,37.11-7.34,51.51-21.99c14.39-14.62,21.63-32.59,21.63-53.87c0-22.22-7.18-40.88-21.57-56.05
				c-14.35-15.17-31.82-22.76-52.45-22.76c-18.79,0-35.38,7.59-49.79,22.82C694.92,313.34,687.7,330.93,687.7,350.95z"/>
			<path class="st0" d="M913.75,351.96c0,21.42,6.82,39.35,20.42,53.95c13.66,14.58,30.75,21.86,51.17,21.86
				c20.15,0,36.99-7.22,50.53-21.76c13.49-14.52,20.27-32.64,20.27-54.35c0-22.05-6.84-40.17-20.54-54.35
				c-13.66-14.16-31.15-21.3-52.45-21.3c-18.87,0-35.19,7.3-48.85,21.88C920.57,312.48,913.75,330.5,913.75,351.96L913.75,351.96z
				 M888.75,352.42c0-27.36,9.37-50.75,28.12-70.15c18.77-19.46,40.99-29.16,66.63-29.16c26.9,0,49.88,9.54,68.98,28.64
				c19.1,19.1,28.66,41.84,28.66,68.31c0,27.78-9.31,51.51-27.95,71.19c-18.64,19.62-41.28,29.46-67.85,29.46
				c-26.97,0-49.83-9.6-68.54-28.89C898.12,402.55,888.75,379.39,888.75,352.42z"/>
			<path class="st0" d="M1136.6,447.74h-24.54V256.73h23.12v22.05c5.79-8.18,12.32-14.39,19.6-18.56c3.56-2.01,7.47-3.56,11.74-4.62
				c4.2-1.11,8.66-1.65,13.28-1.65l0.17,26.55c-15.4,1.42-26.48,5.99-33.24,13.75c-6.76,7.76-10.12,20.5-10.12,38.18V447.74z"/>
			<polygon class="st0" points="1243.17,447.74 1243.17,281.33 1206.9,281.33 1206.9,256.79 1243.17,256.79 1243.17,194.93 
				1267.69,194.93 1267.69,256.79 1303.97,256.79 1303.97,281.33 1267.69,281.33 1267.69,447.74 			"/>
		</g>
		<path class="st0" d="M1452.65,336.35l-33.61,111.42h-25.28l-66.17-191.03l44.88,0.07l33.86,108.94l33.27-109.07l27.04,0.15
			l33.1,108.78l34.02-108.8l44.55-0.07l-66.52,191.03h-25.21L1452.65,336.35L1452.65,336.35z M1585.87,352.42
			c0-12.92,2.14-25.56,6.73-37.64c4.6-12.11,11.63-22.89,20.55-32.28c9.15-9.65,19.85-17.4,31.92-23.01
			c11.95-5.56,24.58-8.5,37.78-8.5c13.28,0,26.34,2.24,38.62,7.35c12.19,5.07,22.9,12.71,32.11,22.14
			c9.16,9.39,16.37,20.2,21.43,32.3c4.99,11.9,7.64,24.42,7.64,37.33c0,13.09-2.29,25.89-6.89,38.13
			c-4.5,11.95-11.14,22.78-19.76,32.18c-4.64,5.05-9.75,9.7-15.29,13.75c-5.46,3.99-11.27,7.54-17.48,10.48
			c-12.25,5.49-25.14,8.19-38.56,8.19c-13.31,0-26.39-2.3-38.65-7.54c-12.11-5.16-22.76-12.79-31.78-22.35
			c-8.93-9.45-15.82-20.42-20.93-32.55c-2.33-6.08-4.23-12.35-5.51-18.72C1586.49,365.35,1585.87,358.9,1585.87,352.42
			L1585.87,352.42z M1629.18,352.09c0,16.11,4.8,30.4,15.93,42.14c10.74,11.32,23.95,16.66,39.54,16.66
			c15.44,0,28.37-5.49,38.89-16.8c11.04-11.85,15.8-26.21,15.8-42.34c0-16.07-4.55-30.59-15.76-42.36
			c-10.66-11.19-23.78-16.44-39.21-16.44c-15.47,0-28.43,5.6-39.1,16.78C1634.03,321.52,1629.18,335.86,1629.18,352.09
			L1629.18,352.09z M1850.38,269.11c3.4-3.38,7.19-6.34,11.44-8.76c8.21-4.66,17.28-6.65,26.68-6.65h4.75v43.64h-4.75
			c-5.67,0-11.32,0.89-16.56,3.11c-4.47,1.9-8.38,4.54-11.52,8.27c-7.08,8.39-8.34,22.75-8.34,33.22v105.82h-41.95V256.69h40.26
			V269.11L1850.38,269.11z M2000.56,383.31l-41.25,64.52l-47.64-0.07l64.53-99.05l-57.22-91.95l47.83-0.07
			c120.56,191.09,0,0,120.56,191.09l-47.59-0.07L2000.56,383.31z"/>
		<polygon class="st0" points="2011.31,301.66 2034.69,337.4 2087.11,256.75 2037.79,256.75 		"/>
		<linearGradient id="SVGID_1_" gradientUnits="userSpaceOnUse" x1="87.373" y1="435.9781" x2="483.6655" y2="435.9781">
			<stop  offset="0" style="stop-color:#9D9FA2"/>
			<stop  offset="0.2514" style="stop-color:#BBBCBF"/>
			<stop  offset="0.5839" style="stop-color:#DEDFE0"/>
			<stop  offset="0.8449" style="stop-color:#F4F4F5"/>
			<stop  offset="1" style="stop-color:#FFFFFF"/>
		</linearGradient>
		<polygon class="st1" points="87.37,680.7 287.19,548.26 483.66,418.03 312.6,304.65 483.67,418.03 483.67,191.26 312.6,304.65 
			87.37,453.93 		"/>
		<linearGradient id="SVGID_2_" gradientUnits="userSpaceOnUse" x1="88.942" y1="173.8306" x2="483.6636" y2="173.8306">
			<stop  offset="0" style="stop-color:#FFFFFF"/>
			<stop  offset="0.1637" style="stop-color:#F8F8F9"/>
			<stop  offset="0.3599" style="stop-color:#EBECED"/>
			<stop  offset="0.5727" style="stop-color:#D7D8DA"/>
			<stop  offset="0.7958" style="stop-color:#BBBDBF"/>
			<stop  offset="1" style="stop-color:#9D9FA2"/>
		</linearGradient>
		<polygon class="st2" points="312.6,304.65 483.66,191.26 260.29,43.2 260.01,43.02 88.94,156.4 89.64,156.87 		"/>
		<linearGradient id="SVGID_3_" gradientUnits="userSpaceOnUse" x1="186.6987" y1="775.8034" x2="186.6987" y2="549.0303">
			<stop  offset="0" style="stop-color:#9D9FA2"/>
			<stop  offset="0.0666" style="stop-color:#A6A8AA"/>
			<stop  offset="0.3629" style="stop-color:#CACCCE"/>
			<stop  offset="0.6278" style="stop-color:#E5E6E7"/>
			<stop  offset="0.8492" style="stop-color:#F6F6F7"/>
			<stop  offset="1" style="stop-color:#FFFFFF"/>
		</linearGradient>
		<polygon class="st3" points="286.02,775.8 87.37,680.7 286.02,549.03 		"/>
	</g>
	<g>
		<path class="st4" d="M1225.26,601.91c2.43,4.14,5.75,7.42,9.94,9.85c4.19,2.44,8.77,3.65,13.76,3.65c5.21,0,9.85-1.07,13.93-3.23
			c4.08-2.15,7.81-5.49,11.21-10.02c0.34-0.45,0.74-0.68,1.19-0.68c0.57,0,1.02,0.11,1.36,0.34l8.66,4.08
			c0.57,0.34,0.85,0.79,0.85,1.36c0,0.34-0.17,0.79-0.51,1.36c-4.76,7.02-10.19,12.09-16.31,15.2c-6.11,3.11-13.53,4.67-22.25,4.67
			c-8.49,0-16.08-1.92-22.76-5.78c-6.68-3.85-11.89-9.26-15.63-16.22c-3.74-6.96-5.61-14.86-5.61-23.7c0-9.51,1.92-17.89,5.78-25.14
			c3.85-7.25,9.09-12.82,15.71-16.73c6.62-3.91,14.01-5.86,22.17-5.86c8.38,0,15.74,1.84,22.08,5.52
			c6.34,3.68,11.24,9.03,14.69,16.05c3.45,7.02,5.18,15.35,5.18,24.97v0.68c0,1.02-0.14,1.78-0.42,2.29
			c-0.28,0.51-0.99,0.76-2.12,0.76h-62.85c-1.13,0-1.7,0.91-1.7,2.72C1221.61,593.17,1222.83,597.78,1225.26,601.91z
			 M1267.98,574.65c1.13,0,1.9-0.17,2.29-0.51c0.4-0.34,0.59-0.96,0.59-1.87c0-4.42-0.93-8.55-2.8-12.4
			c-1.87-3.85-4.59-6.93-8.15-9.26c-3.57-2.32-7.79-3.48-12.65-3.48c-5.1,0-9.57,1.27-13.42,3.82c-3.85,2.55-6.82,5.89-8.92,10.02
			c-2.1,4.14-3.09,8.64-2.97,13.5L1267.98,574.65z"/>
		<path class="st4" d="M1314.35,624.08v-84.76c0-1.7,0.74-2.55,2.21-2.55h13.42c1.36,0,2.04,0.74,2.04,2.21v9.34
			c0,0.68,0.14,1.08,0.42,1.19c0.28,0.11,0.71-0.11,1.27-0.68c5.89-4.76,11.1-8.24,15.63-10.45c4.53-2.21,9.45-3.31,14.78-3.31
			c8.49,0,15.14,2.35,19.96,7.05c4.81,4.7,7.22,11.01,7.22,18.94v62.68c0,2.04-0.96,3.06-2.89,3.06h-12.57
			c-1.7,0-2.55-0.9-2.55-2.72v-59.45c0-5.1-1.33-9.03-3.99-11.8c-2.66-2.77-6.65-4.16-11.98-4.16c-4.3,0-8.3,0.99-11.97,2.97
			c-3.68,1.98-8.01,5.24-12.99,9.77v62.51c0,1.02-0.25,1.76-0.76,2.21c-0.51,0.45-1.33,0.68-2.46,0.68h-12.06
			C1315.26,626.8,1314.35,625.89,1314.35,624.08z"/>
		<path class="st4" d="M1450.06,549.68c-1.02,0-1.53,0.57-1.53,1.7v49.77c0,4.76,0.88,8.04,2.63,9.85c1.75,1.81,4.56,2.72,8.41,2.72
			h10.87c1.36,0,2.04,0.68,2.04,2.04v7.3c0,1.59-0.85,2.55-2.55,2.89c-3.63,0.57-9.4,0.85-17.33,0.85c-7.47,0-13.02-1.72-16.65-5.18
			c-3.63-3.45-5.44-8.8-5.44-16.05v-53.84c0-1.36-0.57-2.04-1.7-2.04h-12.74c-1.47,0-2.21-0.68-2.21-2.04v-9
			c0-1.24,0.68-1.87,2.04-1.87h13.59c0.9,0,1.36-0.51,1.36-1.53l2.04-26.67c0.23-1.58,0.91-2.38,2.04-2.38h11.72
			c1.47,0,2.21,0.91,2.21,2.72v26.33c0,1.02,0.51,1.53,1.53,1.53h20.38c1.36,0,2.04,0.62,2.04,1.87v9c0,1.36-0.79,2.04-2.38,2.04
			H1450.06z"/>
		<path class="st4" d="M1512.65,601.91c2.43,4.14,5.75,7.42,9.94,9.85c4.19,2.44,8.77,3.65,13.76,3.65c5.21,0,9.85-1.07,13.93-3.23
			c4.08-2.15,7.81-5.49,11.21-10.02c0.34-0.45,0.74-0.68,1.19-0.68c0.57,0,1.02,0.11,1.36,0.34l8.66,4.08
			c0.57,0.34,0.85,0.79,0.85,1.36c0,0.34-0.17,0.79-0.51,1.36c-4.76,7.02-10.19,12.09-16.31,15.2c-6.11,3.11-13.53,4.67-22.25,4.67
			c-8.49,0-16.08-1.92-22.76-5.78c-6.68-3.85-11.89-9.26-15.63-16.22c-3.74-6.96-5.61-14.86-5.61-23.7c0-9.51,1.92-17.89,5.78-25.14
			c3.85-7.25,9.09-12.82,15.71-16.73c6.62-3.91,14.01-5.86,22.17-5.86c8.38,0,15.74,1.84,22.08,5.52
			c6.34,3.68,11.24,9.03,14.69,16.05c3.45,7.02,5.18,15.35,5.18,24.97v0.68c0,1.02-0.14,1.78-0.42,2.29
			c-0.28,0.51-0.99,0.76-2.12,0.76h-62.85c-1.13,0-1.7,0.91-1.7,2.72C1509,593.17,1510.21,597.78,1512.65,601.91z M1555.37,574.65
			c1.13,0,1.9-0.17,2.29-0.51c0.4-0.34,0.59-0.96,0.59-1.87c0-4.42-0.93-8.55-2.8-12.4c-1.87-3.85-4.59-6.93-8.15-9.26
			c-3.57-2.32-7.79-3.48-12.65-3.48c-5.1,0-9.57,1.27-13.42,3.82c-3.85,2.55-6.82,5.89-8.92,10.02c-2.1,4.14-3.09,8.64-2.97,13.5
			L1555.37,574.65z"/>
		<path class="st4" d="M1601.74,624.08v-84.76c0-1.7,0.74-2.55,2.21-2.55h13.08c1.36,0,2.04,0.74,2.04,2.21v10.7
			c0,0.68,0.2,1.08,0.59,1.19c0.4,0.11,0.82-0.11,1.27-0.68c4.19-4.87,8.52-8.6,12.99-11.21c4.47-2.6,8.86-3.91,13.16-3.91
			c3.96,0,5.94,0.79,5.94,2.38v13.25c0,1.36-0.62,1.93-1.87,1.7c-2.15-0.57-5.15-0.85-9-0.85c-3.17,0-6.51,0.88-10.02,2.63
			c-3.51,1.76-6.45,4.05-8.83,6.88c-2.38,2.83-3.57,5.72-3.57,8.66v54.18c0,1.93-1.08,2.89-3.23,2.89h-12.06
			C1602.64,626.8,1601.74,625.89,1601.74,624.08z"/>
		<path class="st4" d="M1694.65,539.49v6.62c0,0.91,0.23,1.36,0.68,1.36c0.23,0,0.74-0.28,1.53-0.85c3.4-3.4,6.99-6.17,10.79-8.32
			c3.79-2.15,8.86-3.23,15.2-3.23c7.02,0,13.27,1.7,18.77,5.1c5.49,3.4,9.82,8.49,12.99,15.29c3.17,6.79,4.75,15.18,4.75,25.14
			c0,10.19-1.59,18.88-4.75,26.07c-3.17,7.19-7.64,12.63-13.42,16.31c-5.77,3.68-12.46,5.52-20.04,5.52
			c-9.17,0-17.04-2.83-23.61-8.49c-0.91-0.79-1.59-1.19-2.04-1.19c-0.57,0-0.85,0.74-0.85,2.21v31.42c0,1.58-0.68,2.38-2.04,2.38
			h-13.76c-1.47,0-2.21-0.79-2.21-2.38V539.83c0-1.13,0.25-1.92,0.76-2.38c0.51-0.45,1.33-0.68,2.46-0.68h11.89
			C1693.68,536.78,1694.65,537.68,1694.65,539.49z M1704.58,613.63c3.34,1.76,6.99,2.63,10.96,2.63c7.81,0,14.01-3.03,18.6-9.09
			c4.59-6.06,6.88-14.92,6.88-26.58c0-11.32-2.27-19.7-6.79-25.14c-4.53-5.44-10.47-8.15-17.83-8.15c-4.08,0-7.79,0.88-11.13,2.63
			c-3.34,1.76-5.95,4.02-7.81,6.79c-1.87,2.78-2.8,5.52-2.8,8.24v40.93C1697.93,609.3,1701.24,611.88,1704.58,613.63z"/>
		<path class="st4" d="M1786.37,624.08v-84.76c0-1.7,0.73-2.55,2.21-2.55h13.08c1.36,0,2.04,0.74,2.04,2.21v10.7
			c0,0.68,0.2,1.08,0.59,1.19c0.4,0.11,0.82-0.11,1.27-0.68c4.19-4.87,8.52-8.6,12.99-11.21c4.47-2.6,8.86-3.91,13.16-3.91
			c3.96,0,5.95,0.79,5.95,2.38v13.25c0,1.36-0.62,1.93-1.87,1.7c-2.15-0.57-5.15-0.85-9-0.85c-3.17,0-6.51,0.88-10.02,2.63
			c-3.51,1.76-6.45,4.05-8.83,6.88c-2.38,2.83-3.57,5.72-3.57,8.66v54.18c0,1.93-1.08,2.89-3.23,2.89h-12.06
			C1787.27,626.8,1786.37,625.89,1786.37,624.08z"/>
		<path class="st4" d="M1879.78,518.77c0,1.25-0.25,2.15-0.76,2.72c-0.51,0.57-1.39,0.85-2.63,0.85h-12.57
			c-1.13,0-1.93-0.25-2.38-0.76c-0.45-0.51-0.68-1.33-0.68-2.46v-15.46c0-1.92,0.85-2.89,2.55-2.89h14.1c0.68,0,1.24,0.25,1.7,0.76
			c0.45,0.51,0.68,1.16,0.68,1.95V518.77z M1879.27,623.57c0,1.25-0.26,2.1-0.76,2.55c-0.51,0.45-1.39,0.68-2.63,0.68h-11.55
			c-1.13,0-1.93-0.2-2.38-0.59c-0.45-0.4-0.68-1.1-0.68-2.12v-84.76c0-0.91,0.17-1.56,0.51-1.95c0.34-0.4,0.96-0.59,1.87-0.59h13.59
			c1.36,0,2.04,0.79,2.04,2.38V623.57z"/>
		<path class="st4" d="M1956.05,549.94c-3.85-1.98-8.32-2.97-13.42-2.97c-5.66,0-10.31,1.16-13.93,3.48
			c-3.63,2.32-5.44,5.46-5.44,9.43c0,2.27,0.9,4.3,2.72,6.11c1.81,1.81,5.1,3.4,9.85,4.76l20.89,5.95
			c7.92,2.04,13.79,5.18,17.58,9.43c3.79,4.25,5.69,9.26,5.69,15.03c0,5.44-1.61,10.22-4.84,14.35c-3.23,4.14-7.73,7.33-13.5,9.6
			c-5.78,2.26-12.29,3.4-19.53,3.4c-9.06,0-17.04-1.72-23.95-5.18c-6.91-3.45-11.83-7.95-14.78-13.5c-0.34-0.57-0.51-1.07-0.51-1.53
			c0-0.68,0.28-1.19,0.85-1.53l8.32-4.42c0.68-0.34,1.24-0.51,1.7-0.51c0.57,0,1.02,0.23,1.36,0.68c6,9.06,14.89,13.59,26.67,13.59
			c6.23,0,11.38-1.16,15.46-3.48c4.08-2.32,6.11-5.46,6.11-9.43c0-2.83-1.16-5.24-3.48-7.22c-2.32-1.98-6.14-3.65-11.46-5.01
			l-17.33-4.42c-8.38-2.04-14.5-5.04-18.34-9c-3.85-3.96-5.78-8.94-5.78-14.95c0-5.44,1.5-10.22,4.5-14.35
			c3-4.13,7.19-7.36,12.57-9.68c5.38-2.32,11.63-3.48,18.77-3.48c7.7,0,14.61,1.47,20.72,4.42c6.11,2.95,10.7,6.79,13.76,11.55
			c0.45,0.68,0.68,1.25,0.68,1.7c0,0.45-0.28,0.85-0.85,1.19l-8.83,4.59c-0.23,0.11-0.57,0.17-1.02,0.17c-0.68,0-1.3-0.28-1.87-0.85
			C1963.01,554.55,1959.89,551.92,1956.05,549.94z"/>
		<path class="st4" d="M2023.9,601.91c2.43,4.14,5.75,7.42,9.94,9.85c4.19,2.44,8.77,3.65,13.76,3.65c5.21,0,9.85-1.07,13.93-3.23
			c4.08-2.15,7.81-5.49,11.21-10.02c0.34-0.45,0.74-0.68,1.19-0.68c0.57,0,1.02,0.11,1.36,0.34l8.66,4.08
			c0.56,0.34,0.85,0.79,0.85,1.36c0,0.34-0.17,0.79-0.51,1.36c-4.76,7.02-10.19,12.09-16.31,15.2c-6.11,3.11-13.53,4.67-22.25,4.67
			c-8.49,0-16.08-1.92-22.76-5.78c-6.68-3.85-11.89-9.26-15.63-16.22c-3.74-6.96-5.61-14.86-5.61-23.7c0-9.51,1.92-17.89,5.78-25.14
			c3.85-7.25,9.09-12.82,15.71-16.73c6.62-3.91,14.01-5.86,22.17-5.86c8.38,0,15.74,1.84,22.08,5.52
			c6.34,3.68,11.24,9.03,14.69,16.05c3.45,7.02,5.18,15.35,5.18,24.97v0.68c0,1.02-0.14,1.78-0.42,2.29
			c-0.28,0.51-0.99,0.76-2.12,0.76h-62.85c-1.13,0-1.7,0.91-1.7,2.72C2020.25,593.17,2021.47,597.78,2023.9,601.91z M2066.62,574.65
			c1.13,0,1.89-0.17,2.29-0.51c0.4-0.34,0.59-0.96,0.59-1.87c0-4.42-0.93-8.55-2.8-12.4c-1.87-3.85-4.59-6.93-8.15-9.26
			c-3.57-2.32-7.79-3.48-12.65-3.48c-5.1,0-9.57,1.27-13.42,3.82c-3.85,2.55-6.82,5.89-8.92,10.02c-2.1,4.14-3.09,8.64-2.97,13.5
			L2066.62,574.65z"/>
	</g>
</g>
</svg>
