<?xml version="1.0" encoding="utf-8"?>
<!-- Generator: Adobe Illustrator 24.1.3, SVG Export Plug-In . SVG Version: 6.00 Build 0)  -->
<svg version="1.1" id="Layer_1" xmlns="http://www.w3.org/2000/svg" xmlns:xlink="http://www.w3.org/1999/xlink" x="0px" y="0px"
	 viewBox="0 0 2174.75 1861.42" style="enable-background:new 0 0 2174.75 1861.42;" xml:space="preserve">
<style type="text/css">
	.st0{fill-rule:evenodd;clip-rule:evenodd;fill:#FFFFFF;}
	.st1{fill-rule:evenodd;clip-rule:evenodd;fill:url(#SVGID_1_);}
	.st2{fill-rule:evenodd;clip-rule:evenodd;fill:url(#SVGID_2_);}
	.st3{fill-rule:evenodd;clip-rule:evenodd;fill:url(#SVGID_3_);}
	.st4{fill-rule:evenodd;clip-rule:evenodd;fill:url(#SVGID_4_);}
	.st5{fill:#FFFFFF;}
</style>
<g>
	<g>
		<g>
			<path class="st0" d="M87.37,1273.12h33.97v43.96c9.73-14.99,23.72-27.07,41.85-36.2c18.07-9.08,37.38-13.66,57.86-13.66
				c40.55,0,74.08,13.49,100.65,40.47c26.54,27.03,39.88,60.59,39.88,100.71c0,39.23-13.16,72.35-39.38,99.41
				c-26.3,27.04-59.1,40.61-98.39,40.61c-21.83,0-41.46-4.17-58.86-12.58c-17.4-8.32-31.88-20.63-43.61-36.88v18.48v39.97v70.91
				H87.37V1273.12L87.37,1273.12z M121.34,1405.47c0,30.56,10.05,56.69,30.3,78.43c20.13,21.72,43.85,32.53,71.23,32.53
				c27.97,0,52.13-10.32,72.35-30.89c20.22-20.54,30.38-45.78,30.38-75.67c0-31.21-10.08-57.42-30.3-78.73
				c-20.16-21.3-44.7-31.97-73.67-31.97c-26.39,0-49.69,10.67-69.94,32.06C131.48,1352.64,121.34,1377.35,121.34,1405.47z"/>
			<path class="st0" d="M438.86,1406.89c0,30.09,9.58,55.28,28.68,75.79c19.19,20.48,43.2,30.71,71.88,30.71
				c28.3,0,51.96-10.14,70.97-30.56c18.95-20.39,28.47-45.84,28.47-76.34c0-30.97-9.61-56.42-28.86-76.34
				c-19.19-19.9-43.76-29.92-73.67-29.92c-26.51,0-49.43,10.25-68.62,30.74C448.44,1351.44,438.86,1376.74,438.86,1406.89
				L438.86,1406.89z M403.75,1407.53c0-38.44,13.16-71.29,39.49-98.53c26.36-27.33,57.57-40.96,93.6-40.96
				c37.79,0,70.06,13.4,96.89,40.23c26.83,26.83,40.26,58.77,40.26,95.95c0,39.03-13.08,72.35-39.26,100
				c-26.18,27.57-57.98,41.38-95.3,41.38c-37.88,0-70-13.49-96.27-40.58C416.91,1477.94,403.75,1445.41,403.75,1407.53z"/>
			<path class="st0" d="M751.89,1541.42h-34.47v-268.3h32.47v30.98c8.14-11.49,17.31-20.22,27.53-26.07
				c5-2.82,10.49-4.99,16.49-6.49c5.91-1.56,12.17-2.32,18.66-2.32l0.23,37.29c-21.63,2-37.2,8.41-46.7,19.31
				c-9.49,10.9-14.22,28.8-14.22,53.63V1541.42z"/>
			<polygon class="st0" points="901.58,1541.42 901.58,1307.68 850.62,1307.68 850.62,1273.21 901.58,1273.21 901.58,1186.31 
				936.02,1186.31 936.02,1273.21 986.98,1273.21 986.98,1307.68 936.02,1307.68 936.02,1541.42 			"/>
		</g>
		<path class="st0" d="M1195.82,1384.96l-47.22,156.5h-35.5l-92.94-268.33l63.04,0.1l47.57,153.02l46.73-153.21l37.98,0.21
			l46.49,152.8l47.78-152.82l62.57-0.1l-93.43,268.33h-35.41L1195.82,1384.96L1195.82,1384.96z M1382.95,1407.54
			c0-18.14,3.01-35.9,9.46-52.86c6.47-17.01,16.34-32.15,28.86-45.34c12.85-13.56,27.89-24.44,44.83-32.32
			c16.79-7.81,34.52-11.94,53.06-11.94c18.65,0,37,3.15,54.24,10.33c17.12,7.13,32.17,17.85,45.1,31.1
			c12.86,13.19,22.99,28.37,30.1,45.37c7.01,16.72,10.73,34.29,10.73,52.43c0,18.39-3.22,36.37-9.68,53.55
			c-6.32,16.79-15.64,31.99-27.76,45.2c-6.51,7.1-13.69,13.63-21.47,19.31c-7.67,5.61-15.83,10.6-24.56,14.71
			c-17.2,7.72-35.32,11.5-54.17,11.5c-18.7,0-37.07-3.24-54.29-10.59c-17-7.25-31.97-17.96-44.64-31.39
			c-12.54-13.27-22.22-28.68-29.4-45.72c-3.27-8.53-5.94-17.35-7.75-26.3C1383.82,1425.7,1382.95,1416.63,1382.95,1407.54
			L1382.95,1407.54z M1443.77,1407.07c0,22.63,6.74,42.7,22.38,59.18c15.08,15.9,33.65,23.4,55.54,23.4
			c21.69,0,39.84-7.72,54.62-23.59c15.5-16.65,22.19-36.81,22.19-59.47c0-22.58-6.39-42.96-22.14-59.49
			c-14.97-15.71-33.4-23.1-55.07-23.1c-21.73,0-39.93,7.86-54.92,23.57C1450.59,1364.13,1443.77,1384.28,1443.77,1407.07
			L1443.77,1407.07z M1754.48,1290.51c4.78-4.74,10.11-8.91,16.07-12.3c11.53-6.54,24.28-9.34,37.48-9.34h6.68v61.3h-6.68
			c-7.97,0-15.9,1.25-23.27,4.37c-6.28,2.67-11.77,6.38-16.18,11.61c-9.94,11.78-11.72,31.95-11.72,46.66v148.64h-58.93v-268.39
			h56.55V1290.51L1754.48,1290.51z M1965.43,1450.92l-57.94,90.62l-66.91-0.1l90.64-139.13l-80.38-129.15l67.19-0.1
			c169.34,268.42,0,0,169.34,268.42l-66.84-0.1L1965.43,1450.92z"/>
		<radialGradient id="SVGID_1_" cx="2033.7708" cy="1329.7893" r="54.9634" gradientUnits="userSpaceOnUse">
			<stop  offset="0" style="stop-color:#E6E7E8"/>
			<stop  offset="1" style="stop-color:#FFFFFF"/>
		</radialGradient>
		<polygon class="st1" points="1980.54,1336.24 2013.37,1386.43 2087,1273.15 2017.72,1273.15 		"/>
	</g>
	<g>
		<linearGradient id="SVGID_2_" gradientUnits="userSpaceOnUse" x1="821.9943" y1="589.8822" x2="1378.6405" y2="589.8822">
			<stop  offset="0" style="stop-color:#9D9FA2"/>
			<stop  offset="0.2514" style="stop-color:#BBBCBF"/>
			<stop  offset="0.5839" style="stop-color:#DEDFE0"/>
			<stop  offset="0.8449" style="stop-color:#F4F4F5"/>
			<stop  offset="1" style="stop-color:#FFFFFF"/>
		</linearGradient>
		<polygon class="st2" points="821.99,933.63 1102.66,747.59 1378.64,564.67 1138.35,405.41 1378.64,564.67 1378.64,246.14 
			1138.35,405.41 821.99,615.09 		"/>
		<linearGradient id="SVGID_3_" gradientUnits="userSpaceOnUse" x1="824.1981" y1="221.6608" x2="1378.6378" y2="221.6608">
			<stop  offset="0" style="stop-color:#FFFFFF"/>
			<stop  offset="0.1637" style="stop-color:#F8F8F9"/>
			<stop  offset="0.3599" style="stop-color:#EBECED"/>
			<stop  offset="0.5727" style="stop-color:#D7D8DA"/>
			<stop  offset="0.7958" style="stop-color:#BBBDBF"/>
			<stop  offset="1" style="stop-color:#9D9FA2"/>
		</linearGradient>
		<polygon class="st3" points="1138.35,405.41 1378.64,246.14 1064.89,38.18 1064.48,37.91 824.2,197.18 825.18,197.83 		"/>
		<linearGradient id="SVGID_4_" gradientUnits="userSpaceOnUse" x1="961.5106" y1="1067.2126" x2="961.5106" y2="748.6793">
			<stop  offset="0" style="stop-color:#9D9FA2"/>
			<stop  offset="0.0666" style="stop-color:#A6A8AA"/>
			<stop  offset="0.3629" style="stop-color:#CACCCE"/>
			<stop  offset="0.6278" style="stop-color:#E5E6E7"/>
			<stop  offset="0.8492" style="stop-color:#F6F6F7"/>
			<stop  offset="1" style="stop-color:#FFFFFF"/>
		</linearGradient>
		<polygon class="st4" points="1101.02,1067.21 821.99,933.63 1101.03,748.68 		"/>
	</g>
	<g>
		<path class="st5" d="M876.43,1749.19c3.42,5.81,8.07,10.42,13.96,13.84c5.88,3.42,12.32,5.13,19.32,5.13
			c7.31,0,13.84-1.51,19.56-4.53c5.73-3.02,10.97-7.71,15.75-14.08c0.48-0.63,1.03-0.95,1.67-0.95c0.79,0,1.43,0.16,1.91,0.48
			l12.17,5.73c0.79,0.48,1.19,1.11,1.19,1.91c0,0.48-0.24,1.12-0.72,1.91c-6.68,9.86-14.31,16.98-22.9,21.35
			c-8.59,4.37-19.01,6.56-31.25,6.56c-11.93,0-22.59-2.7-31.97-8.11c-9.39-5.41-16.7-13-21.95-22.78
			c-5.25-9.78-7.87-20.88-7.87-33.28c0-13.36,2.7-25.13,8.11-35.31c5.41-10.18,12.76-18.01,22.07-23.5
			c9.3-5.49,19.68-8.23,31.14-8.23c11.77,0,22.11,2.59,31.02,7.75c8.91,5.17,15.78,12.69,20.64,22.55
			c4.85,9.86,7.28,21.55,7.28,35.07v0.95c0,1.43-0.2,2.51-0.6,3.22c-0.4,0.71-1.39,1.07-2.98,1.07h-88.28
			c-1.59,0-2.39,1.28-2.39,3.82C871.3,1736.9,873,1743.39,876.43,1749.19z M936.43,1710.9c1.59,0,2.66-0.24,3.22-0.72
			c0.55-0.48,0.83-1.35,0.83-2.62c0-6.2-1.31-12.01-3.94-17.42c-2.62-5.41-6.44-9.74-11.45-13c-5.01-3.26-10.94-4.89-17.77-4.89
			c-7.16,0-13.44,1.79-18.85,5.37c-5.41,3.58-9.58,8.27-12.53,14.08c-2.95,5.81-4.34,12.13-4.18,18.97L936.43,1710.9z"/>
		<path class="st5" d="M1001.56,1780.32v-119.05c0-2.39,1.03-3.58,3.1-3.58h18.85c1.91,0,2.86,1.04,2.86,3.1v13.12
			c0,0.95,0.2,1.51,0.6,1.67c0.4,0.16,0.99-0.16,1.79-0.95c8.27-6.68,15.59-11.57,21.95-14.67c6.36-3.1,13.28-4.65,20.76-4.65
			c11.93,0,21.27,3.3,28.03,9.9c6.76,6.6,10.14,15.47,10.14,26.6v88.04c0,2.86-1.35,4.29-4.06,4.29h-17.65
			c-2.39,0-3.58-1.27-3.58-3.82v-83.5c0-7.16-1.87-12.68-5.61-16.58c-3.74-3.9-9.35-5.85-16.82-5.85c-6.05,0-11.65,1.39-16.82,4.17
			c-5.17,2.79-11.25,7.36-18.25,13.72v87.8c0,1.43-0.36,2.47-1.07,3.1c-0.72,0.64-1.87,0.95-3.46,0.95h-16.94
			C1002.83,1784.14,1001.56,1782.87,1001.56,1780.32z"/>
		<path class="st5" d="M1192.19,1675.83c-1.43,0-2.15,0.8-2.15,2.39v69.91c0,6.68,1.23,11.29,3.7,13.84
			c2.46,2.55,6.4,3.82,11.81,3.82h15.27c1.91,0,2.86,0.95,2.86,2.86v10.26c0,2.23-1.19,3.58-3.58,4.06
			c-5.09,0.8-13.2,1.19-24.34,1.19c-10.5,0-18.29-2.42-23.38-7.28c-5.09-4.85-7.63-12.37-7.63-22.55v-75.63
			c0-1.91-0.8-2.86-2.39-2.86h-17.89c-2.07,0-3.1-0.95-3.1-2.86v-12.64c0-1.75,0.95-2.62,2.86-2.62h19.09
			c1.27,0,1.91-0.72,1.91-2.15l2.86-37.46c0.32-2.23,1.27-3.34,2.86-3.34h16.46c2.06,0,3.1,1.28,3.1,3.82v36.98
			c0,1.43,0.72,2.15,2.15,2.15h28.63c1.91,0,2.86,0.88,2.86,2.62v12.64c0,1.91-1.11,2.86-3.34,2.86H1192.19z"/>
		<path class="st5" d="M1280.1,1749.19c3.42,5.81,8.07,10.42,13.96,13.84c5.88,3.42,12.32,5.13,19.32,5.13
			c7.31,0,13.84-1.51,19.56-4.53c5.73-3.02,10.97-7.71,15.75-14.08c0.48-0.63,1.03-0.95,1.67-0.95c0.79,0,1.43,0.16,1.91,0.48
			l12.17,5.73c0.79,0.48,1.19,1.11,1.19,1.91c0,0.48-0.24,1.12-0.72,1.91c-6.68,9.86-14.31,16.98-22.9,21.35
			c-8.59,4.37-19.01,6.56-31.25,6.56c-11.93,0-22.59-2.7-31.97-8.11c-9.39-5.41-16.7-13-21.95-22.78
			c-5.25-9.78-7.87-20.88-7.87-33.28c0-13.36,2.7-25.13,8.11-35.31c5.41-10.18,12.76-18.01,22.07-23.5
			c9.3-5.49,19.68-8.23,31.14-8.23c11.77,0,22.11,2.59,31.02,7.75c8.91,5.17,15.78,12.69,20.64,22.55
			c4.85,9.86,7.28,21.55,7.28,35.07v0.95c0,1.43-0.2,2.51-0.6,3.22c-0.4,0.71-1.39,1.07-2.98,1.07h-88.28
			c-1.59,0-2.39,1.28-2.39,3.82C1274.97,1736.9,1276.68,1743.39,1280.1,1749.19z M1340.1,1710.9c1.59,0,2.66-0.24,3.22-0.72
			c0.56-0.48,0.83-1.35,0.83-2.62c0-6.2-1.31-12.01-3.94-17.42c-2.62-5.41-6.44-9.74-11.45-13c-5.01-3.26-10.94-4.89-17.77-4.89
			c-7.16,0-13.44,1.79-18.85,5.37c-5.41,3.58-9.58,8.27-12.53,14.08c-2.95,5.81-4.34,12.13-4.18,18.97L1340.1,1710.9z"/>
		<path class="st5" d="M1405.23,1780.32v-119.05c0-2.39,1.03-3.58,3.1-3.58h18.37c1.91,0,2.86,1.04,2.86,3.1v15.03
			c0,0.95,0.28,1.51,0.83,1.67c0.56,0.16,1.15-0.16,1.79-0.95c5.88-6.84,11.97-12.09,18.25-15.75c6.28-3.66,12.44-5.49,18.49-5.49
			c5.57,0,8.35,1.11,8.35,3.34v18.61c0,1.91-0.88,2.71-2.62,2.39c-3.02-0.79-7.24-1.19-12.65-1.19c-4.45,0-9.15,1.23-14.08,3.7
			c-4.93,2.47-9.07,5.69-12.41,9.66c-3.34,3.98-5.01,8.03-5.01,12.17v76.11c0,2.71-1.51,4.06-4.53,4.06h-16.94
			C1406.51,1784.14,1405.23,1782.87,1405.23,1780.32z"/>
		<path class="st5" d="M1535.74,1661.51v9.3c0,1.28,0.32,1.91,0.95,1.91c0.32,0,1.03-0.39,2.15-1.19
			c4.77-4.77,9.82-8.67,15.15-11.69c5.33-3.02,12.44-4.53,21.35-4.53c9.86,0,18.65,2.39,26.36,7.16
			c7.71,4.77,13.8,11.93,18.25,21.47c4.45,9.54,6.68,21.32,6.68,35.31c0,14.31-2.23,26.52-6.68,36.62
			c-4.45,10.1-10.74,17.74-18.85,22.9c-8.11,5.17-17.5,7.75-28.15,7.75c-12.88,0-23.94-3.97-33.16-11.93
			c-1.27-1.11-2.23-1.67-2.86-1.67c-0.8,0-1.19,1.04-1.19,3.1v44.14c0,2.23-0.95,3.34-2.86,3.34h-19.32c-2.07,0-3.1-1.11-3.1-3.34
			v-158.18c0-1.59,0.36-2.7,1.07-3.34c0.72-0.63,1.87-0.95,3.46-0.95h16.7C1534.38,1657.69,1535.74,1658.97,1535.74,1661.51z
			 M1549.69,1765.65c4.69,2.47,9.82,3.7,15.39,3.7c10.97,0,19.68-4.25,26.12-12.77c6.44-8.51,9.66-20.95,9.66-37.34
			c0-15.9-3.18-27.68-9.54-35.31c-6.36-7.63-14.71-11.45-25.05-11.45c-5.73,0-10.94,1.23-15.63,3.7c-4.69,2.47-8.35,5.65-10.98,9.54
			c-2.62,3.9-3.94,7.75-3.94,11.57v57.5C1540.35,1759.57,1545,1763.19,1549.69,1765.65z"/>
		<path class="st5" d="M1664.57,1780.32v-119.05c0-2.39,1.03-3.58,3.1-3.58h18.37c1.91,0,2.86,1.04,2.86,3.1v15.03
			c0,0.95,0.28,1.51,0.84,1.67c0.56,0.16,1.15-0.16,1.79-0.95c5.88-6.84,11.97-12.09,18.25-15.75c6.28-3.66,12.44-5.49,18.49-5.49
			c5.57,0,8.35,1.11,8.35,3.34v18.61c0,1.91-0.88,2.71-2.62,2.39c-3.02-0.79-7.24-1.19-12.64-1.19c-4.46,0-9.15,1.23-14.08,3.7
			c-4.93,2.47-9.07,5.69-12.41,9.66c-3.34,3.98-5.01,8.03-5.01,12.17v76.11c0,2.71-1.51,4.06-4.53,4.06h-16.94
			C1665.84,1784.14,1664.57,1782.87,1664.57,1780.32z"/>
		<path class="st5" d="M1795.79,1632.4c0,1.75-0.36,3.02-1.07,3.82c-0.72,0.8-1.95,1.19-3.7,1.19h-17.66
			c-1.59,0-2.71-0.36-3.34-1.07c-0.64-0.72-0.95-1.87-0.95-3.46v-21.71c0-2.7,1.19-4.06,3.58-4.06h19.8c0.95,0,1.75,0.36,2.39,1.07
			c0.63,0.72,0.95,1.63,0.95,2.74V1632.4z M1795.07,1779.61c0,1.75-0.36,2.95-1.07,3.58c-0.71,0.64-1.95,0.95-3.7,0.95h-16.22
			c-1.59,0-2.71-0.28-3.34-0.84c-0.64-0.56-0.95-1.55-0.95-2.98v-119.05c0-1.27,0.24-2.18,0.71-2.74c0.48-0.56,1.35-0.84,2.62-0.84
			h19.09c1.91,0,2.86,1.11,2.86,3.34V1779.61z"/>
		<path class="st5" d="M1902.91,1676.18c-5.41-2.78-11.69-4.17-18.85-4.17c-7.96,0-14.48,1.63-19.56,4.89
			c-5.09,3.26-7.63,7.67-7.63,13.24c0,3.18,1.27,6.05,3.82,8.59c2.54,2.55,7.16,4.77,13.84,6.68l29.35,8.35
			c11.13,2.86,19.36,7.28,24.69,13.24c5.33,5.96,7.99,13,7.99,21.11c0,7.63-2.27,14.36-6.8,20.16c-4.53,5.81-10.86,10.3-18.97,13.48
			c-8.11,3.18-17.26,4.77-27.44,4.77c-12.73,0-23.94-2.42-33.64-7.28c-9.7-4.85-16.62-11.17-20.76-18.97
			c-0.48-0.79-0.72-1.51-0.72-2.15c0-0.95,0.4-1.67,1.19-2.15l11.69-6.2c0.95-0.48,1.75-0.72,2.39-0.72c0.79,0,1.43,0.32,1.91,0.95
			c8.43,12.73,20.91,19.09,37.46,19.09c8.75,0,15.98-1.63,21.71-4.89c5.73-3.26,8.59-7.67,8.59-13.24c0-3.97-1.63-7.36-4.89-10.14
			c-3.26-2.78-8.63-5.13-16.1-7.04l-24.34-6.2c-11.77-2.86-20.36-7.08-25.77-12.65c-5.41-5.57-8.11-12.56-8.11-21
			c0-7.63,2.11-14.35,6.32-20.16c4.21-5.8,10.1-10.34,17.66-13.6c7.55-3.26,16.34-4.89,26.36-4.89c10.81,0,20.52,2.07,29.11,6.2
			c8.59,4.14,15.03,9.54,19.32,16.22c0.63,0.95,0.95,1.75,0.95,2.39c0,0.64-0.4,1.19-1.19,1.67l-12.41,6.44
			c-0.32,0.16-0.8,0.24-1.43,0.24c-0.95,0-1.83-0.39-2.62-1.19C1912.69,1682.67,1908.32,1678.97,1902.91,1676.18z"/>
		<path class="st5" d="M1998.22,1749.19c3.42,5.81,8.07,10.42,13.96,13.84c5.88,3.42,12.32,5.13,19.33,5.13
			c7.31,0,13.84-1.51,19.56-4.53c5.73-3.02,10.98-7.71,15.75-14.08c0.48-0.63,1.03-0.95,1.67-0.95c0.79,0,1.43,0.16,1.91,0.48
			l12.17,5.73c0.79,0.48,1.19,1.11,1.19,1.91c0,0.48-0.24,1.12-0.72,1.91c-6.68,9.86-14.31,16.98-22.9,21.35
			c-8.59,4.37-19.01,6.56-31.25,6.56c-11.93,0-22.59-2.7-31.97-8.11c-9.39-5.41-16.7-13-21.95-22.78
			c-5.25-9.78-7.87-20.88-7.87-33.28c0-13.36,2.7-25.13,8.11-35.31c5.41-10.18,12.76-18.01,22.07-23.5
			c9.3-5.49,19.68-8.23,31.13-8.23c11.77,0,22.11,2.59,31.02,7.75c8.91,5.17,15.78,12.69,20.64,22.55
			c4.85,9.86,7.28,21.55,7.28,35.07v0.95c0,1.43-0.2,2.51-0.6,3.22c-0.4,0.71-1.4,1.07-2.98,1.07h-88.28
			c-1.59,0-2.39,1.28-2.39,3.82C1993.09,1736.9,1994.8,1743.39,1998.22,1749.19z M2058.23,1710.9c1.59,0,2.66-0.24,3.22-0.72
			c0.56-0.48,0.84-1.35,0.84-2.62c0-6.2-1.31-12.01-3.94-17.42c-2.62-5.41-6.44-9.74-11.45-13c-5.01-3.26-10.94-4.89-17.77-4.89
			c-7.16,0-13.44,1.79-18.85,5.37c-5.41,3.58-9.58,8.27-12.53,14.08c-2.95,5.81-4.34,12.13-4.18,18.97L2058.23,1710.9z"/>
	</g>
</g>
</svg>
